<?xml version="1.0" encoding="UTF-8" standalone="yes"?>
<svg xmlns="http://www.w3.org/2000/svg" xmlns:xlink="http://www.w3.org/1999/xlink" width="21.000cm" height="29.700cm" version="1.1" viewBox="-591.283 -86.941 1091.339 1543.465">
  <!--
	Exported with Concepts: Smarter Sketching
	Version: 3531 on iOS 18.3
	https://concepts.app/
	-->
  <title>D31D53C2-9245-4EEC-BC8C-381FA9E67B7C</title>
  <desc>Drawing exported from Concepts: Smarter Sketching</desc>
  <defs></defs>
  <g id="New_Layer_1" opacity="1.000" display="none">
    <path id="STROKE_5fbc8c93-d949-4371-92a5-3066302d3628" opacity="1.000" display="none" fill="#171612" stroke="#171612" stroke-width="0.500" stroke-opacity="1.000" stroke-linecap="round" stroke-linejoin="round" d="M -177.023 -151.010 Q -177.493 -151.132 -179.068 -151.869 Q -180.644 -152.605 -184.485 -153.940 Q -188.326 -155.276 -191.247 -155.831 Q -194.168 -156.386 -196.260 -156.614 Q -198.352 -156.841 -200.993 -156.933 Q -203.633 -157.025 -215.204 -156.459 Q -226.775 -155.893 -233.947 -155.633 Q -241.119 -155.374 -263.812 -155.011 Q -286.505 -154.648 -297.980 -154.477 Q -309.454 -154.306 -315.481 -154.091 Q -321.507 -153.876 -345.945 -152.362 Q -370.383 -150.849 -383.162 -149.999 Q -395.942 -149.148 -402.499 -148.736 Q -409.057 -148.324 -419.978 -147.604 Q -430.900 -146.885 -462.299 -144.414 Q -493.697 -141.943 -509.814 -140.657 Q -525.930 -139.371 -535.694 -138.665 Q -545.458 -137.960 -550.166 -137.683 Q -554.873 -137.407 -574.528 -135.670 Q -594.183 -133.934 -604.373 -132.712 Q -614.562 -131.490 -620.322 -129.850 Q -626.082 -128.211 -629.950 -125.918 Q -633.818 -123.625 -636.549 -120.861 Q -639.281 -118.097 -642.099 -113.277 Q -644.918 -108.457 -647.350 -97.184 Q -649.783 -85.910 -650.252 -71.105 Q -650.722 -56.300 -650.113 -25.597 Q -649.504 5.107 -649.390 21.181 Q -649.276 37.254 -649.278 43.878 Q -649.280 50.501 -649.267 68.001 Q -649.255 85.502 -649.204 96.980 Q -649.153 108.458 -649.796 140.048 Q -650.440 171.638 -651.010 188.077 Q -651.579 204.516 -652.886 246.843 Q -654.192 289.170 -654.719 327.986 Q -655.246 366.802 -655.256 389.496 Q -655.265 412.190 -655.271 422.847 Q -655.277 433.505 -655.278 439.104 Q -655.280 444.703 -655.314 453.521 Q -655.349 462.339 -655.139 494.851 Q -654.929 527.363 -654.174 583.179 Q -653.419 638.995 -653.340 666.632 Q -653.261 694.269 -653.244 706.805 Q -653.227 719.341 -653.172 728.152 Q -653.118 736.963 -653.042 742.746 Q -652.966 748.529 -652.609 775.356 Q -652.253 802.183 -652.181 817.714 Q -652.108 833.245 -652.095 855.626 Q -652.083 878.007 -652.057 889.094 Q -652.031 900.180 -652.074 933.718 Q -652.117 967.256 -652.209 984.576 Q -652.302 1001.896 -652.454 1013.171 Q -652.606 1024.446 -652.789 1038.132 Q -652.973 1051.817 -654.052 1102.825 Q -655.131 1153.833 -655.864 1181.489 Q -656.597 1209.145 -656.958 1229.433 Q -657.320 1249.721 -657.607 1268.757 Q -657.894 1287.792 -658.245 1302.806 Q -658.595 1317.820 -658.936 1330.043 Q -659.278 1342.266 -660.235 1365.621 Q -661.193 1388.977 -661.977 1409.315 Q -662.761 1429.654 -662.499 1439.490 Q -662.237 1449.326 -661.463 1455.383 Q -660.690 1461.440 -659.303 1466.135 Q -657.917 1470.830 -656.277 1474.002 Q -654.637 1477.174 -653.221 1479.152 Q -651.804 1481.131 -647.663 1484.479 Q -643.522 1487.828 -631.254 1490.020 Q -618.986 1492.212 -610.738 1492.274 Q -602.490 1492.337 -595.098 1492.240 Q -587.705 1492.142 -568.839 1491.796 Q -549.973 1491.451 -538.573 1491.801 Q -527.173 1492.152 -513.313 1493.366 Q -499.452 1494.580 -459.960 1495.962 Q -420.467 1497.343 -400.308 1497.847 Q -380.150 1498.350 -371.053 1498.835 Q -361.957 1499.320 -355.471 1499.832 Q -348.986 1500.344 -333.644 1501.535 Q -318.302 1502.726 -307.912 1503.247 Q -297.522 1503.768 -269.242 1504.978 Q -240.962 1506.188 -226.528 1506.806 Q -212.093 1507.424 -205.749 1507.702 Q -199.405 1507.981 -182.677 1508.971 Q -165.948 1509.961 -147.765 1511.256 Q -129.582 1512.551 -121.466 1513.114 Q -113.351 1513.677 -82.009 1515.675 Q -50.668 1517.673 -30.314 1519.001 Q -9.960 1520.329 3.831 1521.305 Q 17.623 1522.281 35.804 1523.654 Q 53.985 1525.026 73.157 1526.504 Q 92.328 1527.981 104.885 1528.988 Q 117.442 1529.995 127.815 1530.856 Q 138.189 1531.716 154.775 1533.163 Q 171.362 1534.609 192.713 1536.682 Q 214.064 1538.755 239.033 1541.198 Q 264.001 1543.640 291.362 1545.949 Q 318.722 1548.259 331.831 1549.268 Q 344.941 1550.276 350.963 1550.715 Q 356.986 1551.154 359.648 1551.338 Q 362.311 1551.523 373.167 1552.277 Q 384.024 1553.031 404.584 1554.297 Q 425.144 1555.563 445.290 1556.925 Q 465.435 1558.286 483.386 1559.689 Q 501.336 1561.092 509.732 1561.764 Q 518.129 1562.436 540.899 1564.708 Q 563.670 1566.980 579.018 1568.735 Q 594.366 1570.491 602.259 1571.515 Q 610.152 1572.539 613.764 1573.068 Q 617.375 1573.597 632.006 1575.487 Q 646.637 1577.378 655.925 1577.698 Q 665.213 1578.019 669.947 1577.247 Q 674.680 1576.474 677.505 1575.256 Q 680.330 1574.038 682.364 1572.285 Q 684.398 1570.532 686.326 1567.606 Q 688.254 1564.679 689.605 1558.240 Q 690.956 1551.800 690.551 1543.008 Q 690.146 1534.217 686.406 1515.597 Q 682.666 1496.978 680.125 1484.951 Q 677.583 1472.924 675.316 1461.526 Q 673.049 1450.128 671.714 1443.157 Q 670.379 1436.187 666.845 1414.594 Q 663.311 1393.001 661.157 1374.647 Q 659.002 1356.293 657.909 1344.514 Q 656.816 1332.735 655.912 1322.581 Q 655.008 1312.427 652.985 1279.225 Q 650.963 1246.023 650.083 1227.634 Q 649.204 1209.245 648.656 1197.158 Q 648.108 1185.070 647.685 1174.948 Q 647.263 1164.827 646.125 1132.048 Q 644.987 1099.268 644.281 1080.849 Q 643.575 1062.430 642.838 1040.198 Q 642.101 1017.966 641.830 1004.798 Q 641.558 991.630 641.282 954.775 Q 641.005 917.920 640.954 893.556 Q 640.903 869.192 640.877 857.613 Q 640.850 846.034 640.787 839.006 Q 640.723 831.979 641.564 778.952 Q 642.406 725.924 643.108 698.199 Q 643.810 670.474 644.064 657.545 Q 644.318 644.617 644.465 638.177 Q 644.613 631.738 644.919 618.601 Q 645.225 605.464 645.402 598.095 Q 645.578 590.726 646.110 572.012 Q 646.641 553.298 647.376 525.752 Q 648.110 498.205 648.449 482.917 Q 648.787 467.629 648.951 460.472 Q 649.115 453.315 649.541 410.662 Q 649.966 368.009 650.027 345.950 Q 650.088 323.891 650.105 313.727 Q 650.123 303.563 650.018 280.251 Q 649.914 256.940 649.471 238.017 Q 649.028 219.094 648.656 207.279 Q 648.284 195.464 647.366 172.429 Q 646.447 149.394 645.779 135.135 Q 645.111 120.876 644.756 113.551 Q 644.400 106.227 641.518 69.392 Q 638.636 32.557 636.341 9.740 Q 634.047 -13.076 632.748 -27.540 Q 631.450 -42.003 630.747 -51.376 Q 630.044 -60.749 628.984 -76.551 Q 627.923 -92.352 626.659 -101.350 Q 625.395 -110.348 624.276 -114.758 Q 623.157 -119.169 621.811 -122.687 Q 620.465 -126.206 616.823 -131.740 Q 613.180 -137.273 603.642 -144.962 Q 594.103 -152.650 586.709 -156.484 Q 579.316 -160.317 573.603 -162.115 Q 567.890 -163.912 560.928 -164.997 Q 553.965 -166.082 532.031 -166.850 Q 510.097 -167.619 498.693 -168.063 Q 487.290 -168.508 465.321 -170.586 Q 443.352 -172.663 428.477 -174.245 Q 413.602 -175.826 406.779 -176.446 Q 399.955 -177.065 390.400 -177.783 Q 380.845 -178.501 375.185 -178.853 Q 369.525 -179.205 359.495 -179.916 Q 349.464 -180.627 310.497 -181.237 Q 271.529 -181.848 251.712 -181.849 Q 231.895 -181.850 221.857 -181.768 Q 211.818 -181.686 187.914 -180.029 Q 164.010 -178.372 151.720 -177.231 Q 139.431 -176.091 126.151 -174.371 Q 112.870 -172.650 105.936 -171.666 Q 99.002 -170.682 80.723 -167.742 Q 62.443 -164.801 42.336 -161.283 Q 22.228 -157.765 11.195 -155.870 Q 0.161 -153.974 -18.344 -150.858 "></path>
  </g>
  <g id="fills" opacity="1.000">
    <path id="STROKE_cd397093-3609-41f4-b66b-603fafeb2be6" opacity="1.000" fill="#f45e58" stroke="#f45e58" stroke-width="0.500" stroke-opacity="1.000" stroke-linecap="round" stroke-linejoin="round" d="M 4.097 308.376 Q 3.360 308.475 -0.360 308.095 Q -1.869 308.319 -9.295 311.433 Q -16.721 314.547 -25.413 318.226 Q -34.105 321.904 -39.483 323.607 Q -44.860 325.310 -51.848 327.288 Q -58.835 329.265 -67.553 330.965 Q -76.270 332.665 -82.917 333.824 Q -89.564 334.982 -92.452 335.632 Q -95.339 336.282 -100.935 337.381 Q -106.531 338.481 -115.965 340.441 Q -125.398 342.401 -134.256 343.421 Q -143.114 344.441 -153.347 344.645 Q -163.579 344.849 -170.910 344.678 Q -178.240 344.506 -184.566 344.173 Q -190.891 343.841 -198.498 343.124 Q -206.106 342.408 -211.497 341.450 Q -216.887 340.492 -222.061 339.126 Q -227.235 337.760 -230.783 336.791 Q -234.331 335.823 -240.046 335.188 Q -245.761 334.552 -253.076 334.101 Q -260.390 333.650 -267.114 332.638 Q -273.837 331.625 -280.210 330.187 Q -286.584 328.750 -294.540 327.030 Q -302.496 325.310 -306.575 324.527 Q -310.655 323.744 -315.587 322.585 Q -320.519 321.426 -322.513 321.095 Q -324.507 320.763 -327.304 320.590 Q -330.102 320.416 -331.975 320.493 Q -333.848 320.570 -340.091 322.655 Q -341.066 323.915 -341.220 324.000 Q -341.373 324.084 -342.668 328.373 Q -343.963 332.662 -344.483 337.125 Q -345.003 341.587 -345.397 347.760 Q -345.791 353.933 -346.059 359.286 Q -346.328 364.639 -345.952 371.148 Q -345.576 377.657 -344.449 381.777 Q -343.322 385.896 -342.669 388.453 Q -342.016 391.009 -339.465 400.677 Q -336.915 410.345 -336.307 413.681 Q -335.698 417.016 -335.285 419.206 Q -334.873 421.396 -333.638 426.294 Q -332.404 431.192 -331.064 436.704 Q -329.723 442.216 -329.142 444.666 Q -328.560 447.117 -328.124 449.076 Q -327.687 451.036 -326.920 454.380 Q -326.153 457.724 -325.390 460.924 Q -324.628 464.124 -323.513 468.923 Q -322.398 473.723 -321.295 477.765 Q -320.192 481.808 -319.989 482.438 Q -319.786 483.068 -318.686 486.511 Q -317.586 489.954 -316.624 492.651 Q -315.663 495.349 -315.068 496.833 Q -314.473 498.316 -312.330 502.031 Q -310.186 505.747 -309.509 506.602 Q -308.831 507.457 -307.754 508.501 Q -306.677 509.546 -302.872 512.513 Q -299.068 515.480 -297.726 516.404 Q -296.384 517.328 -294.721 518.457 Q -293.058 519.586 -291.290 520.883 Q -289.522 522.181 -287.569 523.461 Q -285.616 524.741 -279.897 527.812 Q -274.177 530.882 -271.036 532.430 Q -267.894 533.979 -265.734 535.177 Q -263.573 536.376 -257.482 538.552 Q -251.391 540.729 -248.166 541.549 Q -244.940 542.370 -242.433 542.873 Q -239.925 543.376 -237.729 543.810 Q -235.533 544.243 -228.482 545.353 Q -221.431 546.463 -215.678 547.369 Q -209.925 548.275 -201.503 548.879 Q -193.081 549.483 -188.735 549.575 Q -184.389 549.667 -182.129 549.703 Q -179.868 549.739 -170.482 549.796 Q -161.096 549.854 -155.736 549.919 Q -150.376 549.985 -139.208 550.195 Q -128.040 550.406 -123.932 550.609 Q -119.825 550.812 -114.568 551.383 Q -109.310 551.953 -103.546 552.618 Q -97.781 553.282 -90.875 553.976 Q -83.969 554.670 -82.738 554.688 Q -81.508 554.706 -73.624 553.864 Q -65.741 553.023 -64.696 552.681 Q -63.651 552.339 -63.389 552.207 Q -63.126 552.075 -60.645 550.852 Q -58.163 549.630 -55.818 548.024 Q -53.472 546.419 -52.414 545.523 Q -51.355 544.628 -49.357 542.957 Q -47.358 541.287 -45.517 539.547 Q -43.676 537.806 -39.788 533.861 Q -35.899 529.916 -33.069 526.714 Q -30.238 523.513 -25.677 516.855 Q -21.116 510.197 -18.128 504.216 Q -15.139 498.235 -13.963 495.520 Q -12.786 492.804 -11.313 489.458 Q -9.841 486.111 -8.358 482.015 Q -6.876 477.919 -5.218 473.065 Q -3.561 468.211 -1.582 459.834 Q 0.396 451.457 1.198 446.853 Q 1.999 442.250 2.276 440.436 Q 2.553 438.623 3.439 432.603 Q 4.325 426.583 4.672 424.077 Q 5.019 421.572 5.763 414.760 Q 6.506 407.948 6.701 405.204 Q 6.897 402.460 7.047 398.830 Q 7.198 395.199 7.379 389.756 Q 7.560 384.314 7.658 379.969 Q 7.756 375.624 7.826 370.699 Q 7.896 365.774 8.111 355.540 Q 8.325 345.305 9.799 330.529 Q 8.210 317.998 4.097 308.376 Z"></path>
    <path id="STROKE_c36be7dc-5235-466c-9a01-13f86f34fb90" opacity="1.000" fill="#6dc1b3" stroke="#6dc1b3" stroke-width="0.500" stroke-opacity="1.000" stroke-linecap="round" stroke-linejoin="round" d="M -342.979 304.450 Q -342.786 304.463 -341.586 303.950 L -340.552 303.809 Q -340.179 303.800 -336.638 303.460 Q -333.097 303.119 -326.784 302.577 Q -320.470 302.034 -315.755 301.698 Q -311.039 301.363 -305.949 301.031 Q -300.859 300.700 -295.847 300.275 Q -290.834 299.849 -288.460 299.654 Q -286.086 299.459 -282.403 299.343 Q -278.720 299.227 -272.261 299.165 Q -265.803 299.104 -255.340 299.059 Q -234.415 298.969 -231.727 298.876 Q -229.040 298.784 -216.620 298.704 Q -204.200 298.624 -197.808 298.724 Q -191.416 298.824 -184.941 299.080 Q -178.466 299.336 -169.135 299.431 Q -159.803 299.526 -153.354 299.494 Q -146.905 299.462 -135.605 299.528 Q -124.305 299.594 -116.609 299.854 Q -108.913 300.115 -104.501 300.218 Q -100.088 300.322 -97.549 300.341 Q -95.011 300.360 -86.758 300.599 Q -78.506 300.838 -74.543 301.012 Q -70.581 301.186 -65.836 301.309 Q -61.091 301.432 -56.570 301.496 Q -52.050 301.561 -43.429 301.682 Q -34.808 301.804 -30.322 301.841 Q -25.837 301.878 -22.543 301.975 Q -19.249 302.071 -15.987 302.428 Q -12.725 302.785 -11.939 302.977 Q -11.154 303.169 -10.381 303.496 Q -9.608 303.823 -9.513 303.837 Q -9.418 303.851 -7.292 305.767 L -7.182 306.411 L -7.225 306.926 Q -7.138 307.258 -8.885 309.501 Q -10.632 311.744 -12.938 313.427 Q -15.243 315.109 -16.949 316.206 Q -18.655 317.304 -22.021 319.101 Q -25.388 320.899 -29.920 322.836 Q -34.453 324.773 -37.396 325.814 Q -40.338 326.855 -44.006 327.926 Q -47.674 328.997 -52.382 330.031 Q -54.732 330.567 -58.578 331.207 Q -62.424 331.847 -67.727 332.758 Q -73.031 333.669 -78.481 334.683 Q -83.931 335.697 -89.621 336.431 Q -95.312 337.166 -100.011 337.362 Q -104.710 337.558 -110.145 337.684 Q -115.581 337.810 -120.601 338.102 Q -125.621 338.394 -129.742 338.958 Q -133.864 339.522 -136.538 339.895 Q -139.213 340.268 -143.975 340.579 Q -148.736 340.891 -156.464 339.728 Q -164.192 338.566 -169.740 337.408 Q -175.287 336.250 -180.345 335.703 Q -185.402 335.157 -189.507 335.133 Q -193.612 335.108 -195.568 335.208 Q -197.525 335.309 -205.022 335.582 Q -212.519 335.855 -217.126 335.773 Q -221.734 335.691 -226.130 335.333 Q -230.526 334.974 -232.642 334.712 Q -234.758 334.450 -238.563 333.877 Q -240.465 333.591 -244.147 332.947 Q -247.828 332.303 -253.289 331.302 Q -258.751 330.301 -262.788 329.538 Q -266.824 328.774 -270.752 327.988 Q -274.679 327.202 -281.113 325.987 Q -287.547 324.771 -294.930 323.721 Q -302.314 322.670 -306.896 322.157 Q -311.478 321.644 -313.076 321.467 Q -314.673 321.290 -319.406 320.451 Q -324.138 319.612 -326.404 318.972 Q -328.670 318.331 -333.559 316.663 L -334.733 315.844 Q -339.043 310.209 -342.979 304.450 Z"></path>
    <path id="STROKE_6ce457a8-9501-49e8-92c4-db5972acfdb9" opacity="1.000" fill="#ffffff" stroke="#ffffff" stroke-width="0.500" stroke-opacity="1.000" stroke-linecap="round" stroke-linejoin="round" d="M -73.310 1143.148 L -71.880 1142.596 Q -71.672 1142.563 -67.754 1142.351 Q -63.837 1142.138 -58.847 1142.552 Q -53.857 1142.966 -50.300 1143.641 Q -46.743 1144.316 -44.158 1145.117 Q -41.573 1145.919 -35.165 1147.661 Q -28.757 1149.403 -24.413 1150.577 Q -20.070 1151.751 -16.193 1152.954 Q -12.316 1154.157 -2.872 1157.072 Q 6.573 1159.986 17.184 1162.571 Q 27.795 1165.156 40.285 1167.898 Q 52.776 1170.641 58.490 1171.955 Q 64.205 1173.269 72.184 1174.944 Q 80.164 1176.619 86.080 1177.920 Q 91.996 1179.220 95.032 1179.888 Q 98.068 1180.555 107.538 1182.854 Q 117.009 1185.152 122.347 1186.454 Q 127.685 1187.756 135.610 1189.500 Q 143.536 1191.244 153.991 1193.588 Q 164.447 1195.931 169.999 1197.087 Q 175.552 1198.244 179.940 1199.173 Q 184.327 1200.102 192.671 1201.426 Q 201.015 1202.750 207.446 1203.282 Q 213.877 1203.813 219.472 1204.018 Q 225.067 1204.222 228.778 1204.520 Q 232.489 1204.818 234.359 1205.080 Q 236.230 1205.341 238.556 1205.987 Q 240.882 1206.634 244.246 1208.558 L 244.909 1209.392 L 245.233 1210.032 Q 245.770 1211.784 245.818 1211.854 Q 245.866 1211.923 245.923 1213.751 Q 245.980 1215.579 245.407 1218.442 Q 244.833 1221.305 244.256 1222.821 Q 243.680 1224.337 243.074 1225.632 Q 242.467 1226.926 239.306 1232.572 Q 236.144 1238.217 233.387 1242.496 Q 230.629 1246.774 229.082 1249.290 Q 227.535 1251.806 225.780 1254.601 Q 224.025 1257.397 222.574 1259.657 Q 221.123 1261.917 220.023 1263.671 Q 218.923 1265.425 217.213 1268.060 Q 215.503 1270.695 213.699 1273.514 Q 211.896 1276.333 211.395 1277.118 Q 210.894 1277.903 208.421 1282.327 Q 205.948 1286.751 204.843 1288.922 Q 203.739 1291.094 203.279 1292.065 Q 202.819 1293.036 201.358 1295.945 Q 199.897 1298.854 198.974 1300.680 Q 198.051 1302.506 195.648 1307.516 Q 193.245 1312.525 190.547 1318.185 Q 187.850 1323.844 185.045 1329.899 Q 182.241 1335.955 181.014 1338.766 Q 179.787 1341.577 178.474 1344.639 Q 177.161 1347.701 175.005 1353.763 Q 172.849 1359.826 171.521 1363.654 Q 170.193 1367.482 168.986 1370.830 Q 167.779 1374.178 166.415 1377.986 Q 165.050 1381.795 163.343 1386.113 Q 161.635 1390.432 160.583 1393.098 Q 159.531 1395.764 158.879 1397.488 Q 158.227 1399.212 156.827 1402.434 Q 155.427 1405.656 154.566 1407.483 Q 153.705 1409.311 152.685 1411.394 Q 151.664 1413.477 151.066 1414.800 Q 150.469 1416.122 149.454 1418.041 Q 148.440 1419.960 146.931 1422.695 Q 145.423 1425.430 144.422 1426.907 Q 143.422 1428.385 143.137 1428.773 Q 142.851 1429.162 141.833 1430.309 Q 138.359 1432.241 135.208 1433.215 Q 132.057 1434.189 124.123 1434.815 Q 116.189 1435.441 109.711 1435.897 Q 103.234 1436.354 99.244 1436.902 Q 95.255 1437.451 92.487 1437.821 Q 89.719 1438.190 88.292 1438.397 Q 86.864 1438.604 76.315 1439.733 Q 65.767 1440.863 59.888 1441.222 Q 54.009 1441.580 49.359 1441.539 Q 44.709 1441.497 37.529 1441.149 Q 30.348 1440.800 20.176 1440.493 Q 10.003 1440.185 2.863 1440.067 Q -4.277 1439.948 -9.173 1439.905 Q -14.069 1439.862 -21.376 1439.552 Q -28.682 1439.242 -32.656 1438.972 Q -36.630 1438.702 -44.610 1438.100 Q -52.591 1437.498 -60.287 1437.162 Q -67.983 1436.827 -79.276 1436.696 Q -90.569 1436.565 -96.091 1436.617 Q -101.613 1436.669 -104.660 1436.706 Q -107.708 1436.743 -116.753 1436.769 Q -125.798 1436.795 -131.254 1435.863 Q -136.710 1434.931 -139.319 1433.118 Q -139.630 1431.244 -139.406 1429.304 Q -139.183 1427.364 -137.746 1422.488 Q -136.309 1417.612 -134.423 1412.226 Q -132.538 1406.839 -131.261 1402.649 Q -129.985 1398.458 -128.555 1393.643 Q -127.125 1388.827 -125.124 1382.692 Q -123.123 1376.556 -122.174 1373.312 Q -121.224 1370.069 -120.747 1368.503 Q -120.270 1366.938 -119.687 1364.947 Q -119.104 1362.956 -118.620 1361.234 Q -118.136 1359.512 -117.345 1356.656 Q -116.553 1353.801 -115.825 1351.139 Q -115.097 1348.477 -114.710 1346.942 Q -114.324 1345.406 -112.911 1338.927 Q -111.497 1332.447 -110.300 1326.889 Q -109.103 1321.332 -108.324 1317.114 Q -107.545 1312.895 -105.790 1303.992 Q -104.034 1295.089 -103.151 1290.974 Q -102.268 1286.859 -101.325 1282.140 Q -100.382 1277.421 -99.250 1273.112 Q -98.118 1268.802 -96.391 1263.789 Q -94.663 1258.777 -93.161 1254.069 Q -91.659 1249.360 -90.393 1244.505 Q -89.127 1239.650 -88.321 1236.089 Q -87.516 1232.528 -86.926 1229.540 Q -86.337 1226.552 -86.205 1225.875 Q -86.073 1225.198 -85.353 1220.677 Q -84.632 1216.156 -83.932 1210.182 Q -83.232 1204.209 -82.741 1200.643 Q -82.249 1197.078 -81.709 1194.019 Q -81.169 1190.961 -80.524 1187.435 Q -79.879 1183.910 -78.959 1177.165 Q -78.038 1170.420 -77.617 1166.760 Q -77.197 1163.101 -77.085 1162.014 Q -76.973 1160.927 -76.705 1159.078 Q -76.438 1157.230 -75.638 1154.463 Q -74.837 1151.696 -74.561 1151.552 Q -74.285 1151.409 -72.462 1150.348 "></path>
    <path id="STROKE_4192c0b3-4185-4a88-9361-df47c3c44529" opacity="1.000" fill="#dd70a2" stroke="#dd70a2" stroke-width="0.500" stroke-opacity="1.000" stroke-linecap="round" stroke-linejoin="round" d="M -123.671 1373.867 Q -122.809 1372.105 -122.279 1371.295 Q -121.749 1370.484 -120.081 1368.635 Q -118.413 1366.786 -115.372 1364.491 Q -112.330 1362.197 -109.167 1361.208 Q -106.004 1360.219 -103.567 1360.122 Q -101.131 1360.025 -98.243 1360.206 Q -95.354 1360.388 -90.358 1361.943 Q -85.363 1363.498 -82.239 1365.004 Q -79.116 1366.510 -77.731 1367.327 Q -76.346 1368.145 -73.140 1370.723 Q -69.935 1373.302 -66.899 1375.980 Q -63.863 1378.658 -60.836 1381.947 Q -57.809 1385.235 -55.395 1388.273 Q -52.981 1391.312 -52.126 1392.539 Q -51.270 1393.766 -50.476 1395.549 Q -49.681 1397.332 -48.647 1400.090 Q -47.613 1402.849 -46.929 1405.002 Q -46.245 1407.155 -45.725 1409.490 Q -45.205 1411.825 -44.541 1415.914 Q -43.877 1420.004 -43.496 1423.951 Q -43.115 1427.899 -43.293 1429.338 Q -43.471 1430.777 -43.823 1431.702 Q -44.174 1432.627 -44.875 1433.690 Q -45.575 1434.753 -48.137 1435.948 Q -50.699 1437.143 -52.728 1437.326 Q -54.757 1437.509 -57.527 1437.362 Q -60.296 1437.215 -64.188 1437.021 Q -68.079 1436.827 -71.282 1436.819 Q -74.484 1436.812 -77.227 1436.817 Q -79.970 1436.823 -83.343 1436.847 Q -86.716 1436.872 -90.770 1436.878 Q -94.824 1436.884 -99.578 1436.871 Q -104.333 1436.859 -109.798 1436.833 Q -120.948 1437.019 -126.639 1437.559 Q -132.329 1438.099 -134.863 1438.378 Q -137.397 1438.657 -138.485 1438.658 Q -139.573 1438.658 -140.521 1438.645 Q -141.470 1438.632 -143.060 1438.023 Q -142.338 1434.693 -140.830 1430.496 Q -139.322 1426.299 -137.503 1421.748 Q -135.684 1417.198 -134.262 1413.013 Q -132.841 1408.828 -131.748 1404.934 Q -130.656 1401.040 -129.651 1397.174 Q -128.646 1393.307 -127.649 1389.381 Q -126.652 1385.456 -125.657 1381.577 Q -124.663 1377.699 -123.671 1373.867 Z"></path>
    <path id="STROKE_cdbfc173-b7b5-472b-9ee0-9f53f2db3171" opacity="1.000" fill="#ffe15c" stroke="#ffe15c" stroke-width="0.500" stroke-opacity="1.000" stroke-linecap="round" stroke-linejoin="round" d="M 123.537 1280.147 Q 119.618 1277.390 118.366 1276.565 Q 117.115 1275.740 113.747 1273.731 Q 110.380 1271.722 103.746 1268.593 Q 97.113 1265.464 94.582 1264.628 Q 92.051 1263.792 87.182 1263.299 Q 82.314 1262.806 80.243 1262.972 Q 78.171 1263.138 73.514 1264.141 Q 68.857 1265.144 63.228 1268.292 Q 57.599 1271.440 54.398 1274.176 Q 51.197 1276.912 48.803 1279.897 Q 46.410 1282.882 45.033 1285.219 Q 43.657 1287.555 41.893 1291.652 Q 40.128 1295.750 38.588 1300.730 Q 37.049 1305.710 36.218 1312.364 Q 35.386 1319.017 35.448 1322.545 Q 35.509 1326.073 35.817 1328.156 Q 36.124 1330.240 37.098 1333.216 Q 38.073 1336.192 39.298 1338.634 Q 40.523 1341.076 41.941 1343.133 Q 43.358 1345.190 44.627 1346.501 Q 45.897 1347.813 46.597 1348.418 Q 47.296 1349.024 48.786 1350.118 Q 50.275 1351.213 54.974 1353.946 Q 59.672 1356.679 61.636 1357.341 Q 63.601 1358.002 63.909 1358.118 Q 64.217 1358.234 69.552 1359.091 Q 74.886 1359.948 77.855 1359.983 Q 80.825 1360.018 85.753 1359.402 Q 90.680 1358.787 94.469 1357.533 Q 98.258 1356.280 100.421 1355.150 Q 102.584 1354.021 104.995 1352.443 Q 107.407 1350.865 109.803 1349.020 Q 112.199 1347.174 115.574 1343.820 Q 118.949 1340.465 120.835 1337.990 Q 122.722 1335.515 124.305 1333.104 Q 125.887 1330.693 127.740 1326.690 Q 129.592 1322.686 130.581 1319.601 Q 131.569 1316.517 131.735 1315.782 Q 131.901 1315.048 132.079 1313.841 Q 132.256 1312.634 132.267 1311.134 Q 132.277 1309.634 132.101 1307.160 Q 131.925 1304.687 131.477 1302.857 Q 131.030 1301.028 130.154 1299.229 Q 129.278 1297.431 127.381 1293.971 Q 125.782 1287.019 123.537 1280.147 Z"></path>
    <path id="STROKE_c645042b-c485-4e05-bec6-1aa5b035c7ac" opacity="1.000" fill="#1c7aa2" stroke="#1c7aa2" stroke-width="0.500" stroke-opacity="1.000" stroke-linecap="round" stroke-linejoin="round" d="M 21.079 1177.976 Q 21.079 1177.583 21.150 1177.409 Q 21.221 1177.234 20.956 1176.955 Q 20.857 1176.821 20.671 1179.158 Q 20.485 1181.495 20.325 1183.694 Q 20.165 1185.893 19.325 1188.541 Q 18.485 1191.189 17.302 1193.543 Q 16.118 1195.897 14.899 1198.048 Q 13.680 1200.200 12.186 1202.642 Q 10.691 1205.084 8.926 1207.819 Q 5.396 1213.288 -0.423 1219.967 Q -6.242 1226.646 -11.010 1230.300 Q -15.778 1233.954 -18.649 1235.221 Q -21.520 1236.489 -25.163 1237.710 Q -28.806 1238.931 -30.863 1239.355 Q -32.919 1239.779 -34.200 1239.935 Q -35.481 1240.091 -35.953 1240.122 Q -36.425 1240.153 -38.693 1240.265 Q -40.962 1240.378 -47.554 1239.641 Q -50.850 1239.272 -53.561 1238.876 Q -56.272 1238.479 -58.398 1238.056 Q -60.524 1237.633 -62.663 1237.184 Q -64.801 1236.736 -67.023 1236.310 Q -69.245 1235.885 -70.929 1235.662 Q -72.614 1235.440 -74.191 1235.320 Q -75.767 1235.200 -78.059 1235.014 Q -80.350 1234.829 -81.684 1234.757 Q -83.018 1234.685 -83.762 1234.563 Q -84.505 1234.441 -85.611 1233.808 Q -86.716 1233.176 -87.126 1232.223 Q -87.535 1231.271 -87.251 1229.220 Q -86.966 1227.170 -86.032 1223.706 Q -85.097 1220.242 -84.742 1217.760 Q -84.388 1215.277 -84.135 1212.444 Q -83.882 1209.610 -83.742 1208.336 Q -83.603 1207.061 -83.455 1204.891 Q -83.307 1202.720 -82.975 1199.276 Q -82.644 1195.832 -82.077 1190.388 Q -80.943 1179.502 -80.492 1171.437 Q -80.042 1163.372 -79.885 1159.857 Q -79.727 1156.342 -79.103 1151.816 Q -78.478 1147.291 -78.089 1146.032 Q -77.701 1144.774 -77.211 1143.857 Q -76.721 1142.940 -75.981 1142.290 Q -75.240 1141.639 -73.575 1140.900 Q -71.909 1140.160 -68.244 1140.115 Q -64.579 1140.071 -63.256 1140.323 Q -61.933 1140.576 -60.486 1141.032 Q -59.040 1141.489 -53.653 1143.893 Q -48.267 1146.296 -40.661 1149.365 Q -33.056 1152.434 -26.100 1154.489 Q -19.144 1156.543 -16.092 1157.288 Q -13.041 1158.033 -9.526 1159.003 Q -6.011 1159.973 -4.036 1160.523 Q -2.062 1161.073 0.079 1161.748 Q 2.221 1162.424 5.223 1163.410 Q 8.226 1164.396 9.552 1164.924 Q 10.879 1165.453 12.080 1166.007 Q 13.282 1166.562 14.602 1167.170 Q 15.922 1167.779 16.723 1168.202 Q 17.523 1168.625 20.070 1169.845 Q 20.305 1173.710 21.079 1177.976 Z"></path>
    <path id="STROKE_23f8f2e5-32d0-41f5-84ed-9098f0f87d71" opacity="1.000" fill="#ffffff" stroke="#ffffff" stroke-width="0.500" stroke-opacity="1.000" stroke-linecap="round" stroke-linejoin="round" d="M 105.519 565.163 Q 105.683 563.378 105.836 562.833 Q 105.990 562.288 107.307 558.508 Q 108.625 554.729 108.746 551.377 Q 108.867 548.025 107.776 546.101 Q 106.685 544.177 104.258 540.985 Q 101.832 537.793 99.219 533.908 Q 96.606 530.023 94.554 526.109 Q 92.502 522.194 90.504 518.188 Q 88.506 514.181 86.637 510.407 Q 84.768 506.633 83.440 503.936 Q 82.112 501.239 80.918 498.895 Q 79.723 496.551 76.943 492.738 Q 74.162 488.925 71.829 486.720 Q 69.495 484.514 68.808 484.049 Q 68.120 483.583 65.352 481.917 Q 62.584 480.252 59.204 478.756 Q 55.824 477.260 54.209 476.706 Q 52.594 476.153 50.852 475.658 Q 49.110 475.164 48.484 475.037 Q 47.859 474.910 42.963 473.845 Q 38.068 472.779 35.140 472.424 Q 32.213 472.069 30.807 472.011 Q 29.400 471.953 27.623 472.014 Q 25.846 472.074 20.638 473.203 Q 15.429 474.332 12.651 475.618 Q 9.873 476.905 8.191 478.180 Q 6.509 479.456 3.626 482.661 Q 0.744 485.866 -0.990 488.687 Q -2.725 491.508 -4.627 496.458 Q -6.529 501.407 -7.250 504.233 Q -7.971 507.058 -8.316 509.316 Q -8.661 511.574 -8.896 515.021 Q -9.132 518.468 -9.186 522.144 Q -9.239 525.821 -8.513 532.384 Q -7.787 538.947 -7.086 542.035 Q -6.384 545.122 -5.657 547.379 Q -4.931 549.636 -3.591 552.864 Q -2.250 556.091 -1.481 557.681 Q -0.712 559.271 -0.602 559.524 Q -0.493 559.777 1.719 563.624 Q 2.825 565.547 4.317 567.719 Q 5.809 569.891 7.687 572.310 Q 9.565 574.729 11.101 576.643 Q 12.637 578.558 14.449 580.656 Q 16.261 582.754 17.650 584.107 Q 19.040 585.459 20.573 586.904 Q 22.105 588.350 23.075 589.179 Q 24.044 590.009 24.723 590.549 Q 25.401 591.089 26.074 591.551 Q 26.747 592.012 29.148 593.758 Q 31.549 595.504 33.421 597.580 Q 35.294 599.656 35.706 600.825 Q 36.118 601.993 36.071 607.535 Q 36.023 613.077 35.887 614.169 Q 35.750 615.260 35.366 618.026 Q 34.981 620.793 34.392 624.792 Q 33.804 628.791 33.346 632.696 Q 32.887 636.600 32.614 638.654 Q 32.341 640.709 31.262 646.011 Q 30.184 651.313 29.459 653.445 Q 28.734 655.577 27.649 658.292 Q 26.565 661.008 25.092 665.270 Q 23.620 669.532 22.989 672.730 Q 22.358 675.928 21.937 678.881 Q 21.516 681.835 21.125 684.721 Q 20.734 687.607 20.515 689.598 Q 20.297 691.590 20.112 693.580 Q 19.926 695.570 19.592 697.665 Q 19.258 699.760 18.664 702.280 Q 18.070 704.801 17.323 708.012 Q 16.576 711.224 15.783 714.938 Q 14.978 718.675 14.278 722.200 Q 13.578 725.726 12.985 729.034 Q 11.801 735.650 11.036 740.113 Q 10.270 744.576 10.013 746.539 Q 9.755 748.502 9.110 754.475 Q 8.465 760.447 7.783 767.603 Q 7.101 774.759 6.713 780.337 Q 6.325 785.914 6.074 789.290 Q 5.823 792.665 5.229 800.426 Q 4.636 808.186 4.361 811.848 Q 4.087 815.510 3.822 821.160 Q 3.557 826.810 3.497 830.184 Q 3.436 833.557 3.419 838.934 Q 3.402 844.311 3.552 852.325 Q 3.702 860.339 3.724 867.838 Q 3.745 875.337 3.590 880.771 Q 3.436 886.205 3.278 888.675 Q 3.121 891.145 2.867 893.551 Q 2.613 895.957 2.138 899.353 Q 1.663 902.748 0.352 910.165 Q -0.960 917.582 -4.389 931.392 Q -7.818 945.202 -10.727 955.047 Q -13.637 964.892 -15.962 972.688 Q -18.288 980.484 -19.155 983.653 Q -20.023 986.822 -20.811 989.853 Q -21.599 992.885 -21.799 993.729 Q -21.998 994.574 -22.300 995.600 Q -22.602 996.627 -24.240 1003.731 Q -25.878 1010.836 -26.701 1015.430 Q -27.524 1020.024 -28.635 1026.753 Q -29.746 1033.482 -30.724 1039.568 Q -31.702 1045.653 -33.046 1054.853 Q -34.389 1064.053 -35.063 1068.645 Q -35.737 1073.237 -37.450 1083.496 Q -39.162 1093.756 -39.553 1096.206 Q -39.943 1098.656 -40.357 1101.631 Q -40.771 1104.605 -41.601 1111.402 Q -42.432 1118.199 -42.542 1120.298 Q -42.653 1122.397 -42.379 1126.529 Q -42.105 1130.661 -41.892 1131.720 Q -41.680 1132.779 -41.225 1134.138 Q -40.771 1135.498 -40.607 1136.013 Q -40.442 1136.528 -39.862 1137.647 Q -39.282 1138.766 -38.253 1140.004 Q -37.223 1141.241 -35.537 1142.579 Q -33.851 1143.916 -33.070 1144.376 Q -32.290 1144.836 -28.780 1146.536 Q -25.270 1148.235 -20.125 1149.985 Q -14.980 1151.734 -12.538 1152.477 Q -10.097 1153.220 -7.516 1154.123 Q -4.936 1155.026 -3.853 1155.332 Q -2.771 1155.638 -2.088 1155.849 Q -1.405 1156.060 0.584 1156.710 Q 2.573 1157.361 4.381 1157.874 Q 6.188 1158.386 7.398 1158.663 Q 8.609 1158.940 12.161 1159.638 Q 15.713 1160.335 18.924 1161.167 Q 22.134 1161.999 25.367 1162.980 Q 28.600 1163.960 31.894 1164.756 Q 35.189 1165.552 39.618 1166.932 Q 44.046 1168.311 48.363 1169.434 Q 52.681 1170.556 54.818 1171.147 Q 56.956 1171.737 60.711 1172.562 Q 64.466 1173.388 66.324 1173.626 Q 68.182 1173.865 70.202 1174.179 Q 72.222 1174.493 74.410 1174.606 Q 76.597 1174.719 83.293 1173.706 Q 89.988 1172.692 90.843 1172.290 Q 91.697 1171.887 92.293 1171.386 Q 92.889 1170.885 93.476 1170.192 Q 94.063 1169.500 94.363 1169.009 Q 94.663 1168.517 94.843 1168.361 Q 95.023 1168.204 96.422 1161.386 Q 97.822 1154.568 97.902 1148.058 Q 97.983 1141.549 98.030 1137.548 Q 98.077 1133.548 98.137 1131.945 Q 98.196 1130.342 98.494 1126.920 Q 98.792 1123.498 99.379 1119.006 Q 99.965 1114.514 100.215 1112.863 Q 100.464 1111.213 101.863 1103.840 Q 103.263 1096.468 104.166 1092.570 Q 105.069 1088.672 106.022 1085.500 Q 106.974 1082.327 107.954 1080.019 Q 108.935 1077.711 109.294 1077.084 Q 109.654 1076.457 109.788 1076.167 Q 109.922 1075.876 110.820 1074.722 Q 111.718 1073.567 114.282 1071.486 L 115.230 1071.055 Q 119.765 1070.208 121.484 1070.388 Q 123.204 1070.568 124.938 1071.108 Q 126.672 1071.647 127.832 1072.146 Q 128.991 1072.644 130.783 1073.613 Q 132.575 1074.582 133.714 1075.279 Q 134.854 1075.976 135.052 1076.123 Q 135.250 1076.270 139.530 1078.653 Q 143.810 1081.037 147.101 1082.265 Q 150.392 1083.494 152.329 1083.943 Q 154.267 1084.391 160.096 1084.960 Q 165.926 1085.529 174.673 1085.515 Q 183.421 1085.500 189.771 1085.020 Q 196.122 1084.540 199.012 1084.061 Q 201.901 1083.581 203.856 1083.092 Q 205.810 1082.604 208.775 1081.607 Q 211.739 1080.611 213.714 1079.747 Q 215.690 1078.882 218.087 1077.582 Q 220.485 1076.282 222.946 1074.654 Q 225.406 1073.026 227.542 1071.031 Q 229.677 1069.036 231.642 1066.725 Q 233.607 1064.413 234.686 1062.831 Q 235.765 1061.248 236.837 1059.347 Q 237.909 1057.446 238.931 1055.158 Q 239.954 1052.870 241.338 1048.258 Q 242.721 1043.647 243.149 1036.267 Q 243.577 1028.887 242.196 1021.776 Q 240.816 1014.665 239.796 1010.797 Q 238.776 1006.929 238.134 1004.908 Q 237.491 1002.887 235.666 995.445 Q 233.840 988.003 232.545 983.557 Q 231.250 979.112 230.761 977.552 Q 230.271 975.993 229.364 972.734 Q 228.457 969.474 227.896 967.403 Q 227.335 965.332 226.356 961.012 Q 225.377 956.691 225.235 955.953 Q 225.093 955.214 224.221 950.647 Q 223.348 946.080 222.992 944.231 Q 222.637 942.382 221.570 936.282 Q 220.502 930.181 219.800 925.727 Q 219.097 921.272 218.048 913.247 Q 216.999 905.223 216.265 898.098 Q 215.532 890.973 215.224 885.153 Q 214.916 879.334 214.791 872.440 Q 214.543 858.656 214.704 851.840 Q 214.866 845.023 215.019 842.130 Q 215.171 839.236 215.381 836.017 Q 215.591 832.797 216.168 827.835 Q 216.745 822.873 217.356 819.382 Q 217.967 815.891 218.530 813.390 Q 219.093 810.889 220.899 804.794 Q 222.704 798.699 223.648 795.943 Q 224.592 793.186 226.265 788.892 Q 227.938 784.598 229.780 780.475 Q 231.622 776.352 233.314 773.053 Q 235.006 769.753 235.113 769.580 Q 235.220 769.408 241.180 760.982 Q 247.141 752.557 252.445 747.928 Q 257.749 743.300 260.281 740.828 Q 262.813 738.357 263.925 737.159 Q 265.037 735.962 265.988 734.893 Q 266.939 733.824 267.810 732.697 Q 268.680 731.570 269.803 729.880 Q 270.926 728.190 272.308 725.259 Q 273.691 722.329 274.259 720.363 Q 274.827 718.397 275.057 717.201 Q 275.287 716.005 275.179 709.743 Q 275.071 703.480 274.462 701.505 Q 273.852 699.529 273.005 697.918 Q 272.159 696.307 270.872 694.644 Q 269.585 692.981 267.287 690.965 Q 264.988 688.950 264.814 688.780 Q 264.639 688.610 262.453 687.249 Q 260.266 685.887 258.467 685.163 Q 256.667 684.439 255.733 684.149 Q 254.800 683.860 253.570 683.509 Q 252.340 683.158 252.110 683.058 Q 251.880 682.959 247.794 682.234 Q 243.707 681.510 239.995 680.971 Q 236.283 680.433 234.737 680.113 Q 233.191 679.794 230.912 678.771 Q 228.634 677.747 228.347 677.434 Q 228.060 677.122 227.918 676.691 Q 227.776 676.259 227.816 675.839 Q 227.855 675.420 228.149 674.809 Q 228.442 674.199 231.053 671.993 Q 233.664 669.786 237.210 667.743 Q 240.755 665.701 245.433 662.733 Q 250.110 659.766 252.828 656.704 Q 255.545 653.643 257.083 650.711 Q 258.620 647.779 258.835 647.131 Q 259.051 646.483 259.423 645.397 Q 259.795 644.310 260.165 643.222 Q 260.534 642.135 260.891 639.750 Q 261.247 637.365 260.894 634.831 Q 260.541 632.296 260.421 631.796 Q 260.300 631.295 258.974 628.172 Q 257.649 625.049 255.721 623.247 Q 253.794 621.445 252.551 620.589 Q 251.309 619.733 250.306 619.237 Q 249.303 618.742 245.764 617.638 Q 242.226 616.535 240.313 616.314 Q 238.399 616.093 237.007 616.074 Q 235.615 616.056 233.494 616.134 Q 231.374 616.213 228.931 616.439 Q 226.488 616.665 225.599 616.773 Q 224.710 616.880 222.071 616.939 Q 219.432 616.997 214.349 615.912 L 213.648 615.375 Q 213.026 615.028 211.843 612.408 Q 210.661 609.788 210.182 606.539 Q 209.704 603.290 209.446 600.507 Q 209.188 597.724 208.471 592.507 Q 207.754 587.289 206.832 583.671 Q 205.911 580.052 205.484 578.963 Q 205.057 577.874 204.120 576.247 Q 203.182 574.619 202.406 573.619 Q 201.631 572.618 200.141 571.093 Q 198.652 569.568 197.666 568.948 Q 196.681 568.329 195.189 567.627 Q 193.697 566.926 192.418 566.455 Q 191.138 565.984 188.193 565.322 Q 185.248 564.660 183.196 564.475 Q 181.143 564.290 179.911 564.270 Q 178.678 564.250 175.768 564.554 Q 172.858 564.858 172.619 564.863 Q 172.381 564.868 168.438 566.021 Q 164.495 567.173 163.037 568.255 Q 161.580 569.336 160.740 570.217 Q 159.899 571.098 159.624 571.440 Q 159.348 571.783 157.967 573.147 Q 156.587 574.512 155.492 575.233 Q 155.690 574.504 155.987 573.810 Q 156.283 573.116 157.705 570.487 Q 159.128 567.857 160.181 565.310 Q 161.234 562.762 161.784 560.855 Q 162.334 558.948 162.661 555.755 Q 162.987 552.561 162.685 549.251 Q 162.383 545.940 162.065 543.997 Q 161.748 542.054 161.051 537.894 Q 160.354 533.735 159.985 531.831 Q 159.616 529.927 159.086 527.422 Q 158.557 524.917 157.993 522.849 Q 157.430 520.781 156.840 519.038 Q 156.251 517.295 155.572 515.608 Q 154.894 513.922 152.728 509.981 Q 150.562 506.041 148.516 503.044 Q 146.470 500.048 143.589 497.036 Q 140.708 494.024 138.875 492.314 Q 137.041 490.603 136.111 489.762 Q 135.181 488.921 132.563 487.068 Q 129.945 485.214 128.420 484.259 Q 126.894 483.303 125.413 482.386 Q 123.932 481.468 123.653 481.314 Q 123.373 481.160 121.648 480.374 Q 119.924 479.588 118.830 479.271 Q 117.736 478.955 114.802 478.325 Q 111.867 477.695 108.264 477.643 Q 104.661 477.591 102.770 477.894 Q 100.878 478.197 99.837 478.508 Q 98.796 478.820 97.601 479.358 Q 96.407 479.897 94.704 480.904 Q 93.002 481.911 92.514 482.224 Q 92.026 482.536 90.427 483.672 Q 88.828 484.809 87.765 485.995 Q 86.703 487.181 85.762 488.868 Q 84.822 490.555 84.645 491.427 Q 84.469 492.300 84.486 492.879 Q 84.503 493.457 84.719 494.709 Q 84.935 495.961 85.603 498.025 Q 86.271 500.090 87.425 502.824 Q 88.578 505.559 89.309 507.136 Q 90.040 508.713 91.013 510.918 Q 91.985 513.122 92.379 514.026 Q 92.575 514.478 93.364 515.990 Q 94.153 517.503 95.536 520.077 Q 96.918 522.651 98.027 525.066 Q 99.136 527.481 100.466 530.907 Q 101.796 534.332 102.629 538.373 Q 103.463 542.413 104.161 545.711 Q 104.860 549.009 105.889 552.163 Q 106.918 555.317 106.494 557.152 Q 106.069 558.986 105.007 561.025 Q 103.945 563.063 103.321 564.297 Q 102.697 565.530 102.853 565.598 Q 103.008 565.665 102.857 566.115 Q 102.706 566.565 102.268 567.305 Q 101.302 568.032 100.428 568.559 Q 99.554 569.085 99.292 569.213 Q 99.030 569.340 97.557 569.920 L 96.268 569.985 L 95.036 570.480 Q 99.328 568.115 105.519 565.163 Z"></path>
    <path id="STROKE_d34e02ac-9098-43d0-a001-5f45fecefcbc" opacity="1.000" fill="#ffffff" stroke="#ffffff" stroke-width="0.500" stroke-opacity="1.000" stroke-linecap="round" stroke-linejoin="round" d="M -334.528 303.129 Q -334.355 302.613 -334.464 301.340 Q -334.574 300.068 -334.574 299.277 Q -334.573 298.486 -334.364 297.034 Q -334.156 295.582 -333.793 294.358 Q -333.431 293.134 -331.562 290.261 Q -329.692 287.388 -327.104 285.399 Q -324.516 283.411 -322.328 282.173 Q -320.140 280.936 -313.850 278.802 Q -307.559 276.668 -298.016 275.045 Q -288.472 273.422 -283.312 272.701 Q -278.151 271.979 -275.731 271.659 Q -273.311 271.338 -267.259 270.742 Q -261.207 270.146 -249.645 269.327 Q -238.083 268.508 -222.851 267.700 Q -207.620 266.892 -199.751 266.674 Q -191.881 266.456 -185.678 266.405 Q -179.474 266.354 -176.174 266.312 Q -172.874 266.269 -161.232 266.308 Q -149.591 266.347 -138.106 267.265 Q -126.621 268.182 -113.686 270.372 Q -100.752 272.562 -93.827 273.857 Q -86.902 275.151 -80.120 276.448 Q -73.338 277.745 -67.116 279.242 Q -60.895 280.738 -56.151 281.932 Q -51.407 283.127 -45.416 284.855 Q -39.425 286.584 -34.282 287.949 Q -29.139 289.314 -26.634 290.001 Q -24.128 290.687 -21.931 291.457 Q -19.734 292.228 -18.430 292.836 Q -17.127 293.444 -15.458 294.551 Q -13.789 295.659 -13.009 296.490 Q -12.229 297.320 -11.663 298.374 Q -11.097 299.427 -10.942 300.521 Q -10.786 301.615 -10.904 302.398 Q -11.021 303.182 -11.087 303.445 Q -11.153 303.709 -11.442 304.148 Q -11.731 304.587 -12.111 304.866 Q -12.492 305.144 -13.801 305.653 Q -15.110 306.163 -18.086 306.316 Q -21.063 306.469 -23.343 306.330 Q -25.623 306.190 -26.714 306.084 Q -27.804 305.978 -30.691 305.744 Q -33.578 305.510 -34.385 305.463 Q -35.193 305.416 -41.751 305.339 Q -48.310 305.262 -52.958 305.496 Q -57.606 305.730 -59.843 305.751 Q -62.079 305.772 -65.290 305.652 Q -68.500 305.532 -73.706 304.790 Q -78.912 304.049 -82.405 303.689 Q -85.898 303.330 -88.259 303.321 Q -90.620 303.312 -91.866 303.336 Q -93.111 303.359 -95.992 303.864 Q -98.872 304.369 -101.272 304.806 Q -103.673 305.243 -105.584 305.470 Q -107.496 305.697 -113.856 305.969 Q -120.217 306.241 -127.175 305.780 Q -134.133 305.319 -137.588 305.081 Q -141.042 304.843 -145.194 304.893 Q -149.345 304.944 -158.803 305.868 Q -168.260 306.792 -172.868 307.127 Q -177.476 307.462 -179.266 307.583 Q -181.056 307.704 -181.840 307.736 Q -182.624 307.768 -182.842 307.744 Q -183.060 307.719 -184.149 307.642 Q -185.238 307.565 -186.292 307.600 Q -187.347 307.635 -187.722 307.609 Q -188.097 307.583 -193.759 308.273 Q -199.422 308.963 -203.977 309.407 Q -208.531 309.850 -211.341 309.935 Q -214.150 310.020 -217.578 309.877 Q -221.006 309.735 -225.991 309.027 Q -230.977 308.318 -232.272 308.170 Q -233.567 308.021 -238.652 307.875 Q -243.736 307.729 -249.295 308.404 Q -254.854 309.079 -258.227 309.519 Q -261.600 309.959 -265.065 310.001 Q -268.531 310.043 -272.557 309.507 Q -276.583 308.970 -278.914 308.500 Q -281.244 308.030 -282.358 307.805 Q -283.473 307.579 -283.593 307.536 Q -283.714 307.492 -285.282 307.166 Q -286.851 306.841 -290.452 306.290 Q -294.053 305.740 -297.384 305.123 Q -300.714 304.507 -302.242 304.229 Q -303.771 303.951 -305.344 303.648 Q -306.916 303.344 -311.522 302.906 Q -316.127 302.469 -320.299 302.565 Q -324.471 302.661 -331.891 303.347 L -332.261 303.476 L -334.981 303.939 "></path>
  </g>
  <g id="Pen" opacity="1.000">
    <path id="STROKE_1c0915c9-718a-4d43-ae50-6d80e23d3ff9" opacity="1.000" fill="none" stroke="#50514f" stroke-width="13.638" stroke-opacity="1.000" stroke-linecap="round" stroke-linejoin="round" d="M -339.406 312.657 L -339.427 312.641 Q -339.023 314.455 -338.636 316.070 Q -338.248 317.685 -332.609 320.172 Q -326.970 322.659 -320.258 323.647 Q -313.547 324.634 -304.891 325.428 Q -296.234 326.222 -289.725 327.061 Q -283.216 327.899 -278.206 328.609 Q -273.196 329.318 -267.317 330.167 Q -261.437 331.015 -256.806 331.684 Q -252.175 332.354 -246.816 333.122 Q -241.457 333.891 -236.374 334.588 Q -231.292 335.286 -224.084 336.226 Q -216.875 337.166 -208.369 338.135 Q -199.863 339.104 -190.608 339.649 Q -181.353 340.194 -171.349 340.315 Q -161.346 340.436 -156.019 340.501 Q -150.693 340.567 -150.044 340.578 Q -149.395 340.588 -145.744 340.618 Q -142.094 340.648 -135.442 340.697 Q -128.790 340.745 -123.881 340.760 Q -118.972 340.774 -114.223 340.743 Q -109.474 340.713 -101.988 340.058 Q -94.502 339.403 -89.074 338.442 Q -83.647 337.481 -78.368 336.418 Q -73.090 335.355 -65.138 333.419 Q -57.186 331.483 -52.647 330.130 Q -48.108 328.776 -41.250 326.091 Q -34.393 323.407 -30.630 321.676 Q -26.868 319.945 -21.237 317.019 Q -15.606 314.092 -9.489 310.541 Q -3.372 306.990 -1.765 305.365 Q -0.158 303.739 0.662 301.800 Q 1.482 299.860 1.205 297.210 L 0.541 295.552 Q -1.939 292.525 -3.545 291.359 Q -5.152 290.193 -9.754 288.432 Q -14.356 286.671 -18.029 285.938 Q -21.702 285.205 -26.763 284.502 Q -31.824 283.798 -39.803 282.781 Q -47.781 281.764 -50.252 281.428 Q -52.724 281.092 -60.953 280.039 Q -69.181 278.986 -74.503 278.346 Q -79.824 277.706 -85.187 276.971 Q -90.551 276.236 -97.163 275.247 Q -103.775 274.259 -104.092 274.199 Q -104.409 274.139 -113.288 273.127 Q -122.167 272.114 -128.348 271.594 Q -134.530 271.073 -140.765 270.436 Q -147.000 269.799 -155.349 268.872 Q -163.699 267.945 -170.533 267.253 Q -177.366 266.560 -185.344 265.874 Q -193.322 265.188 -197.297 264.986 Q -201.272 264.785 -205.940 264.730 Q -210.608 264.675 -217.295 264.700 Q -223.982 264.725 -231.208 265.239 Q -238.435 265.754 -246.201 266.758 Q -253.967 267.763 -260.011 268.539 Q -266.054 269.316 -272.537 270.139 Q -279.020 270.962 -287.430 271.725 Q -295.840 272.489 -299.745 273.064 Q -303.651 273.639 -307.554 274.517 Q -311.457 275.395 -315.830 276.828 Q -320.203 278.260 -324.422 280.291 Q -328.640 282.322 -330.766 283.734 Q -332.891 285.145 -334.491 286.473 Q -336.090 287.801 -338.727 290.745 Q -341.365 293.690 -342.719 295.990 Q -344.074 298.289 -344.517 299.421 Q -344.959 300.553 -345.502 303.068 Q -345.582 305.436 -345.408 306.186 Q -345.234 306.936 -344.763 307.957 Q -344.292 308.979 -343.568 309.714 Q -342.844 310.448 -337.747 313.421 "></path>
    <path id="STROKE_fde57933-b109-4146-950d-775a16a52f6d" opacity="1.000" fill="none" stroke="#50514f" stroke-width="13.638" stroke-opacity="1.000" stroke-linecap="round" stroke-linejoin="round" d="M -336.023 319.381 Q -340.468 319.136 -341.729 319.364 Q -342.990 319.592 -344.403 320.418 Q -345.550 321.767 -347.027 328.996 Q -348.504 336.225 -348.824 341.888 Q -349.144 347.550 -348.800 354.056 Q -348.455 360.562 -347.708 366.987 Q -346.960 373.413 -345.810 379.759 Q -344.660 386.104 -343.638 391.282 Q -342.616 396.459 -341.276 402.473 Q -339.936 408.488 -339.064 412.363 Q -338.191 416.238 -336.803 422.806 Q -335.416 429.375 -333.113 438.967 Q -330.811 448.558 -329.468 453.514 Q -328.125 458.470 -327.215 461.999 Q -326.305 465.528 -324.374 472.933 Q -322.444 480.339 -321.181 484.274 Q -319.919 488.210 -318.072 492.418 Q -316.226 496.626 -314.502 499.417 Q -312.779 502.208 -311.286 504.170 Q -309.794 506.131 -306.136 509.978 Q -302.479 513.825 -302.132 514.172 Q -301.786 514.519 -296.495 518.930 Q -291.205 523.341 -283.148 529.039 Q -275.091 534.737 -272.382 536.148 Q -269.672 537.560 -267.804 538.421 Q -265.937 539.281 -255.806 541.884 Q -245.676 544.488 -238.231 545.572 Q -230.786 546.656 -225.764 547.344 Q -220.741 548.032 -213.777 548.361 Q -206.812 548.690 -200.702 548.648 Q -194.591 548.607 -187.013 548.304 Q -179.435 548.002 -173.193 547.813 Q -166.951 547.624 -162.045 547.548 Q -157.139 547.473 -151.965 547.526 Q -146.792 547.578 -141.351 547.759 Q -135.910 547.940 -131.030 548.450 Q -126.149 548.959 -119.670 550.216 Q -113.190 551.472 -108.766 552.404 Q -104.342 553.335 -95.991 553.881 Q -87.640 554.427 -82.626 553.955 Q -77.612 553.484 -75.352 553.007 Q -73.092 552.531 -68.466 550.878 Q -63.840 549.226 -57.978 545.909 Q -52.117 542.593 -49.420 540.565 Q -46.723 538.537 -43.835 535.885 Q -40.946 533.234 -39.098 531.263 Q -37.250 529.292 -34.690 526.095 Q -32.130 522.899 -28.012 515.894 Q -23.895 508.889 -19.775 499.789 Q -15.655 490.690 -12.937 483.550 Q -10.220 476.409 -8.275 470.549 Q -6.330 464.689 -4.781 459.245 Q -3.232 453.802 -0.998 445.078 Q 1.236 436.355 3.181 428.218 Q 5.125 420.080 6.042 415.562 Q 6.958 411.044 8.256 404.060 Q 9.553 397.077 10.396 389.775 Q 11.239 382.472 11.510 376.808 Q 11.780 371.143 11.760 364.683 Q 11.740 358.223 11.630 353.811 Q 11.521 349.400 11.224 345.855 Q 10.927 342.310 9.961 331.991 Q 8.995 321.673 8.635 318.136 Q 8.275 314.600 4.580 300.787 Q 4.276 300.351 -0.098 298.063 "></path>
    <path id="STROKE_7a9d1602-24a4-4e8d-9583-28318c8c0f31" opacity="1.000" fill="none" stroke="#50514f" stroke-width="13.638" stroke-opacity="1.000" stroke-linecap="round" stroke-linejoin="round" d="M 39.208 601.380 Q 38.603 601.008 35.998 599.175 Q 33.394 597.341 30.500 595.138 Q 27.606 592.935 22.338 588.347 Q 17.069 583.759 12.624 578.691 Q 8.180 573.623 5.279 569.008 Q 2.378 564.393 0.925 561.501 Q -0.528 558.610 -2.849 552.636 Q -5.169 546.663 -6.141 542.428 Q -7.113 538.194 -7.676 527.735 Q -8.239 517.277 -7.593 510.462 Q -6.946 503.647 -6.804 502.928 Q -6.661 502.208 -5.774 499.178 Q -4.887 496.148 -2.574 491.194 Q -0.261 486.240 0.478 485.027 Q 1.217 483.813 3.268 481.339 Q 5.320 478.865 7.093 477.306 Q 8.866 475.748 10.986 474.390 Q 13.106 473.032 15.584 471.935 Q 18.061 470.838 21.098 470.062 Q 24.135 469.286 27.257 468.881 Q 30.379 468.476 34.917 468.675 Q 39.454 468.873 42.221 469.462 Q 44.989 470.051 48.120 471.272 Q 51.251 472.493 57.857 476.216 Q 64.464 479.940 67.900 482.779 Q 71.337 485.618 75.485 490.485 Q 79.633 495.352 81.806 498.700 Q 83.978 502.048 89.388 513.648 Q 94.797 525.248 96.511 529.858 Q 98.225 534.469 99.112 537.402 Q 100.000 540.335 100.629 542.900 Q 101.257 545.465 101.350 545.763 Q 101.443 546.062 105.045 563.743 L 105.183 563.867 L 106.856 563.925 "></path>
    <path id="STROKE_116b0b68-687d-4e56-9037-0e45f37ff9f4" opacity="1.000" fill="none" stroke="#50514f" stroke-width="13.638" stroke-opacity="1.000" stroke-linecap="round" stroke-linejoin="round" d="M 84.068 493.266 L 84.029 491.304 Q 84.125 487.775 84.809 486.228 Q 85.494 484.682 86.390 483.622 Q 87.286 482.561 89.421 480.908 Q 91.555 479.255 94.036 478.129 Q 96.516 477.003 98.622 476.441 Q 100.728 475.879 106.151 475.425 Q 111.575 474.971 115.271 475.330 Q 118.967 475.689 121.719 476.304 Q 124.472 476.920 127.906 478.462 Q 131.340 480.004 132.532 480.815 Q 133.724 481.626 136.231 483.882 Q 138.738 486.138 142.958 490.109 Q 147.178 494.080 149.757 496.671 Q 152.335 499.263 153.742 501.081 Q 155.149 502.899 157.045 506.123 Q 158.941 509.347 160.328 512.452 Q 161.715 515.557 162.805 518.841 Q 163.895 522.125 164.532 525.412 Q 165.169 528.698 165.716 533.083 Q 166.263 537.467 166.347 541.892 Q 166.431 546.316 166.052 550.780 Q 165.673 555.245 165.147 558.765 Q 164.621 562.286 163.610 566.151 Q 162.599 570.016 161.411 573.402 Q 160.224 576.788 158.381 581.026 Q 156.538 585.265 156.363 586.063 "></path>
    <path id="STROKE_438187c5-136e-4b43-bbb7-42014b7e155e" opacity="1.000" fill="none" stroke="#50514f" stroke-width="13.638" stroke-opacity="1.000" stroke-linecap="round" stroke-linejoin="round" d="M 165.295 564.943 Q 168.930 564.315 175.284 563.993 Q 181.637 563.671 186.366 564.626 Q 191.094 565.581 194.623 567.795 Q 198.152 570.009 201.501 574.627 Q 204.851 579.244 206.982 587.290 Q 209.113 595.337 209.255 599.653 Q 209.396 603.968 209.247 606.104 Q 209.097 608.240 209.033 609.085 Q 208.970 609.931 208.969 610.683 Q 208.968 611.434 209.030 611.765 Q 209.091 612.096 211.062 611.910 "></path>
    <path id="STROKE_639bb6a0-d8e3-485d-b399-f3c34e6ab6e0" opacity="1.000" fill="none" stroke="#50514f" stroke-width="13.638" stroke-opacity="1.000" stroke-linecap="round" stroke-linejoin="round" d="M 213.693 613.466 Q 214.222 613.246 222.682 612.322 Q 231.141 611.397 235.938 611.914 Q 240.734 612.430 243.790 613.567 Q 246.845 614.704 249.933 617.058 Q 253.021 619.413 254.652 621.400 Q 256.282 623.387 257.304 625.269 Q 258.327 627.151 258.874 628.626 Q 259.422 630.101 259.972 632.593 Q 260.523 635.084 260.504 638.947 Q 260.484 642.811 259.700 645.797 Q 258.916 648.782 258.494 649.690 Q 258.072 650.597 257.902 651.055 Q 257.732 651.514 250.269 659.290 Q 242.807 667.066 237.219 670.381 Q 231.631 673.695 225.613 675.793 L 222.210 674.793 "></path>
    <path id="STROKE_34094984-edc7-4c44-a0dc-cdc655f4b02f" opacity="1.000" fill="none" stroke="#50514f" stroke-width="13.638" stroke-opacity="1.000" stroke-linecap="round" stroke-linejoin="round" d="M 231.834 676.768 L 232.336 676.626 Q 241.799 676.455 247.252 677.739 Q 252.704 679.022 257.226 681.411 Q 261.747 683.800 264.023 685.542 Q 266.299 687.283 268.612 689.683 Q 270.924 692.083 273.114 695.443 Q 275.304 698.804 276.517 701.715 Q 277.730 704.627 278.075 705.952 Q 278.420 707.277 278.702 709.000 Q 278.984 710.723 279.020 713.871 Q 279.057 717.018 278.831 718.583 Q 278.605 720.149 278.284 721.314 Q 277.963 722.480 277.860 723.080 Q 277.756 723.679 273.861 729.811 Q 269.966 735.942 266.485 739.325 Q 263.004 742.708 260.850 744.560 Q 258.697 746.411 254.390 750.034 Q 250.084 753.656 246.890 756.813 Q 243.697 759.969 241.923 762.088 Q 240.150 764.207 237.836 767.754 Q 235.522 771.300 233.924 774.677 Q 232.325 778.055 231.386 780.667 Q 230.447 783.279 229.084 789.458 Q 227.721 795.637 227.206 800.190 Q 226.691 804.743 225.464 822.588 Q 224.238 840.433 223.433 850.991 Q 222.628 861.549 222.439 870.954 Q 222.249 880.359 222.203 890.220 Q 222.157 900.081 222.150 907.157 Q 222.144 914.233 222.590 925.245 Q 223.036 936.256 223.616 941.509 Q 224.195 946.763 224.840 950.865 Q 225.485 954.968 228.920 970.300 Q 232.355 985.632 233.887 990.276 Q 235.419 994.921 237.688 1002.526 Q 239.956 1010.130 241.222 1016.803 Q 242.487 1023.475 242.727 1026.041 Q 242.966 1028.606 242.825 1035.594 Q 242.684 1042.582 241.775 1047.022 Q 240.866 1051.462 239.402 1055.062 Q 237.938 1058.663 236.914 1060.472 Q 235.891 1062.280 234.373 1064.347 Q 232.855 1066.413 232.172 1067.212 Q 231.489 1068.010 226.148 1072.597 Q 220.808 1077.183 218.315 1078.643 Q 215.822 1080.103 212.341 1081.613 Q 208.861 1083.123 206.760 1083.793 Q 204.660 1084.463 201.623 1085.175 Q 198.586 1085.887 188.394 1087.240 Q 178.201 1088.593 172.249 1088.419 Q 166.297 1088.245 163.816 1087.784 Q 161.334 1087.323 158.352 1086.312 Q 155.370 1085.302 152.887 1084.188 Q 150.404 1083.075 144.425 1079.547 Q 138.445 1076.018 135.732 1074.311 Q 133.020 1072.605 127.832 1069.545 Q 126.592 1068.695 108.379 1062.561 "></path>
    <path id="STROKE_02058d1f-fac6-4fbf-930d-d41fa334ea42" opacity="1.000" fill="none" stroke="#50514f" stroke-width="13.638" stroke-opacity="1.000" stroke-linecap="round" stroke-linejoin="round" d="M 112.534 1063.339 Q 111.722 1066.156 108.483 1079.646 Q 105.243 1093.137 103.111 1110.319 Q 100.979 1127.502 99.715 1137.411 Q 98.451 1147.319 97.191 1156.669 Q 95.930 1166.018 94.652 1186.763 "></path>
    <path id="STROKE_55eccb7a-f759-4b1f-a942-62512bae7df7" opacity="1.000" fill="none" stroke="#50514f" stroke-width="13.638" stroke-opacity="1.000" stroke-linecap="round" stroke-linejoin="round" d="M 36.577 603.115 Q 37.047 604.195 35.221 616.893 Q 33.396 629.591 30.554 641.406 Q 27.713 653.222 25.697 661.326 Q 23.681 669.430 22.122 677.029 Q 20.562 684.629 19.010 693.424 Q 17.457 702.219 14.366 722.786 Q 11.275 743.353 9.662 755.721 Q 8.048 768.090 7.510 776.116 Q 6.972 784.143 6.732 791.270 Q 6.492 798.398 5.103 815.802 Q 3.713 833.207 3.039 847.425 Q 2.366 861.643 2.042 869.683 Q 1.717 877.723 -0.108 891.887 Q -1.933 906.051 -3.992 916.277 Q -6.051 926.503 -13.237 953.613 Q -20.423 980.723 -24.641 996.729 Q -28.859 1012.735 -30.708 1021.243 Q -32.558 1029.752 -33.768 1034.977 Q -34.978 1040.202 -36.184 1045.479 Q -37.390 1050.755 -41.586 1076.377 Q -45.782 1101.998 -52.266 1145.823 "></path>
    <path id="STROKE_0a83b1a5-98a2-4e16-9a0a-74fbeec59245" opacity="1.000" fill="none" stroke="#50514f" stroke-width="13.638" stroke-opacity="1.000" stroke-linecap="round" stroke-linejoin="round" d="M 3.619 450.066 Q 3.463 448.681 3.676 445.355 Q 3.890 442.029 4.473 436.762 Q 5.056 431.495 5.844 427.235 Q 6.631 422.976 8.118 418.098 Q 9.606 413.220 11.321 409.744 Q 13.036 406.268 14.505 403.996 Q 15.974 401.724 19.270 397.924 Q 22.566 394.124 25.413 391.823 Q 28.260 389.522 30.222 388.287 Q 32.185 387.051 37.609 384.668 Q 43.033 382.286 44.158 382.020 Q 45.282 381.755 47.871 381.453 Q 50.459 381.151 53.567 381.525 Q 56.675 381.900 58.560 382.595 Q 60.445 383.290 61.583 383.965 Q 62.720 384.640 66.238 388.464 Q 69.757 392.288 71.449 395.786 Q 73.141 399.283 73.966 402.107 Q 74.791 404.930 75.618 408.940 Q 76.445 412.950 77.097 417.414 Q 77.749 421.878 78.535 429.879 Q 79.321 437.880 79.107 444.919 Q 78.892 451.958 78.499 454.517 Q 78.106 457.077 77.613 459.366 Q 77.120 461.655 74.088 473.009 Q 73.213 476.021 72.096 480.919 "></path>
    <path id="STROKE_24f6350a-c50e-4ce5-936f-3c2a0164067e" opacity="1.000" fill="none" stroke="#50514f" stroke-width="13.638" stroke-opacity="1.000" stroke-linecap="round" stroke-linejoin="round" d="M 3.411 452.340 L 2.482 455.257 L 2.084 457.555 Q 1.719 460.455 1.718 463.212 Q 1.716 465.970 4.519 479.742 "></path>
    <path id="STROKE_4de459ec-3550-4270-ac43-2675bc14b79e" opacity="1.000" fill="none" stroke="#50514f" stroke-width="13.638" stroke-opacity="1.000" stroke-linecap="round" stroke-linejoin="round" d="M -0.951 462.391 Q -1.807 466.570 -1.891 469.511 Q -1.974 472.453 -1.401 475.332 Q -0.835 475.681 1.706 476.168 Q 2.427 476.389 6.370 477.922 "></path>
    <path id="STROKE_6e98f1a6-6e9a-4599-9c64-861ad7f5a48b" opacity="1.000" fill="none" stroke="#50514f" stroke-width="13.638" stroke-opacity="1.000" stroke-linecap="round" stroke-linejoin="round" d="M -265.536 -49.300 Q -262.455 -49.427 -260.466 -49.308 Q -258.478 -49.189 -256.408 -48.697 Q -254.338 -48.205 -252.153 -47.108 Q -249.967 -46.010 -247.278 -43.367 Q -244.589 -40.723 -243.296 -38.804 Q -242.004 -36.884 -240.270 -32.868 Q -238.537 -28.851 -237.687 -25.181 Q -236.838 -21.512 -236.577 -19.055 Q -236.317 -16.598 -236.410 -11.609 Q -236.503 -6.620 -239.521 3.889 Q -242.539 14.398 -244.892 19.625 Q -247.244 24.851 -248.968 28.131 Q -250.692 31.412 -253.506 36.590 Q -256.319 41.768 -257.921 45.107 Q -259.523 48.446 -260.633 51.335 Q -261.743 54.224 -262.356 56.298 Q -262.968 58.371 -263.442 60.393 Q -263.916 62.415 -264.376 65.361 Q -264.837 68.307 -265.088 71.567 Q -265.339 74.828 -265.055 82.144 Q -264.772 89.461 -259.621 109.347 Q -254.471 129.232 -252.734 138.101 Q -250.998 146.970 -250.291 155.258 Q -249.584 163.547 -249.869 168.591 Q -250.154 173.634 -250.956 177.222 Q -251.757 180.810 -253.712 185.193 Q -255.666 189.575 -258.599 194.552 Q -261.532 199.530 -263.087 202.451 Q -264.642 205.371 -265.808 208.541 Q -266.975 211.710 -269.275 218.625 "></path>
    <path id="STROKE_a39b946f-bf5e-4611-8b79-c9d46864f3b1" opacity="1.000" fill="none" stroke="#50514f" stroke-width="13.638" stroke-opacity="1.000" stroke-linecap="round" stroke-linejoin="round" d="M -131.210 -48.822 Q -125.390 -47.025 -122.125 -45.432 Q -118.859 -43.839 -117.655 -42.895 Q -116.451 -41.951 -114.693 -40.192 Q -112.936 -38.434 -111.676 -36.755 Q -110.417 -35.077 -109.378 -33.359 Q -108.339 -31.641 -106.761 -28.031 Q -105.184 -24.421 -104.890 -23.544 Q -104.595 -22.666 -103.737 -19.181 Q -102.879 -15.697 -102.279 -9.816 Q -101.679 -3.936 -102.638 3.931 Q -103.597 11.799 -107.400 21.300 Q -111.202 30.801 -115.210 40.674 Q -119.218 50.546 -120.402 54.960 Q -121.587 59.375 -122.406 66.557 Q -123.226 73.739 -123.392 78.451 Q -123.559 83.163 -123.580 93.940 Q -123.601 104.717 -122.262 113.178 Q -120.923 121.639 -119.696 125.685 Q -118.470 129.732 -117.402 132.855 Q -116.333 135.978 -115.855 137.354 Q -115.376 138.730 -114.504 143.207 Q -113.632 147.683 -113.613 150.887 Q -113.594 154.091 -114.141 158.217 Q -114.688 162.343 -115.182 165.227 Q -115.676 168.110 -115.936 170.265 Q -116.196 172.421 -115.751 178.607 Q -115.674 178.720 -112.654 180.632 "></path>
    <path id="STROKE_1e9a4020-b7bc-4eb4-b098-55ecf8d2659b" opacity="1.000" fill="none" stroke="#50514f" stroke-width="13.638" stroke-opacity="1.000" stroke-linecap="round" stroke-linejoin="round" d="M -75.900 1137.872 Q -74.162 1138.493 -66.455 1141.089 Q -58.748 1143.684 -50.323 1146.609 Q -41.899 1149.535 -38.504 1150.787 Q -35.108 1152.040 -30.541 1153.828 Q -25.974 1155.616 -23.101 1156.755 Q -20.228 1157.895 -4.638 1162.762 Q 10.953 1167.630 34.033 1172.786 Q 57.114 1177.942 64.606 1179.772 Q 72.099 1181.602 88.745 1185.122 Q 105.391 1188.643 115.568 1190.933 Q 125.746 1193.222 135.442 1195.298 Q 145.138 1197.375 154.553 1199.226 Q 163.968 1201.078 173.220 1202.629 Q 182.472 1204.180 187.992 1204.847 Q 193.513 1205.515 194.428 1205.460 "></path>
    <path id="STROKE_e0f6a45a-1ce3-4823-ab76-0b9780fcdd6b" opacity="1.000" fill="none" stroke="#50514f" stroke-width="13.638" stroke-opacity="1.000" stroke-linecap="round" stroke-linejoin="round" d="M -73.181 1139.976 Q -73.217 1139.496 -75.635 1138.585 Q -75.878 1138.794 -76.441 1141.437 Q -77.003 1144.079 -77.584 1147.057 Q -78.166 1150.034 -78.786 1153.412 Q -79.406 1156.791 -79.859 1159.423 Q -80.313 1162.054 -80.688 1164.370 Q -81.064 1166.686 -81.383 1168.795 Q -81.703 1170.903 -81.969 1172.816 Q -82.235 1174.729 -82.489 1176.671 Q -82.742 1178.614 -82.983 1180.586 Q -83.224 1182.559 -83.453 1184.561 Q -83.681 1186.563 -83.897 1188.595 Q -84.112 1190.627 -84.329 1192.621 Q -84.545 1194.614 -84.761 1196.569 Q -84.978 1198.524 -85.195 1200.441 Q -85.412 1202.357 -85.630 1204.235 Q -85.848 1206.113 -86.076 1208.158 Q -86.305 1210.203 -86.544 1212.416 Q -86.784 1214.629 -87.034 1217.009 Q -87.285 1219.388 -87.546 1221.936 Q -87.808 1224.483 -88.093 1226.879 Q -88.378 1229.276 -88.686 1231.521 Q -88.995 1233.767 -89.327 1235.861 Q -89.659 1237.956 -90.014 1239.900 Q -90.370 1241.843 -90.714 1243.570 Q -91.058 1245.296 -91.558 1247.559 Q -92.057 1249.822 -92.678 1251.968 Q -93.299 1254.115 -93.996 1256.621 Q -94.694 1259.127 -95.274 1261.276 Q -95.855 1263.425 -96.296 1265.071 Q -96.736 1266.718 -97.230 1268.578 Q -97.724 1270.439 -98.272 1272.514 Q -98.819 1274.589 -99.420 1276.877 Q -100.021 1279.166 -100.641 1281.526 Q -101.261 1283.887 -101.901 1286.318 Q -102.540 1288.750 -103.198 1291.253 Q -103.856 1293.756 -104.533 1296.331 Q -105.211 1298.905 -105.901 1301.530 Q -106.592 1304.155 -107.296 1306.830 Q -108.000 1309.505 -108.718 1312.230 Q -109.435 1314.955 -110.166 1317.730 Q -110.897 1320.506 -111.588 1323.118 Q -112.278 1325.730 -112.929 1328.178 Q -113.580 1330.626 -114.191 1332.911 Q -114.802 1335.196 -115.373 1337.317 Q -115.944 1339.438 -116.526 1341.579 Q -117.109 1343.720 -117.703 1345.881 Q -118.297 1348.042 -118.902 1350.223 Q -119.507 1352.404 -120.124 1354.604 Q -120.741 1356.805 -121.334 1358.917 Q -121.927 1361.029 -122.496 1363.051 Q -123.064 1365.074 -123.609 1367.008 Q -124.153 1368.941 -124.674 1370.786 Q -125.195 1372.630 -125.751 1374.610 Q -126.308 1376.591 -126.900 1378.707 Q -127.493 1380.823 -128.121 1383.075 Q -128.750 1385.327 -129.414 1387.715 Q -130.079 1390.103 -130.703 1392.275 Q -131.328 1394.448 -131.912 1396.405 Q -132.497 1398.362 -133.041 1400.104 Q -133.585 1401.846 -134.342 1404.135 Q -135.098 1406.425 -136.067 1409.252 Q -137.036 1412.079 -137.964 1414.680 Q -138.893 1417.281 -139.844 1419.962 Q -140.796 1422.642 -141.770 1425.401 Q -142.745 1428.161 -143.385 1429.943 Q -144.025 1431.725 -144.484 1432.932 Q -144.943 1434.139 -145.933 1434.727 "></path>
    <path id="STROKE_12ab3c75-ea85-4c92-9d44-e4eb2eb7dd5d" opacity="1.000" fill="none" stroke="#50514f" stroke-width="13.638" stroke-opacity="1.000" stroke-linecap="round" stroke-linejoin="round" d="M 199.498 1204.718 Q 211.185 1204.799 216.655 1205.061 Q 222.126 1205.322 226.552 1205.947 Q 230.978 1206.573 234.395 1207.580 Q 237.812 1208.588 237.938 1208.617 Q 238.065 1208.647 244.134 1213.399 Q 245.087 1215.538 245.189 1216.200 Q 245.290 1216.862 244.501 1221.526 Q 243.713 1226.191 242.147 1229.836 Q 240.580 1233.481 238.469 1237.563 Q 236.358 1241.645 234.763 1244.487 Q 233.169 1247.328 227.909 1256.240 Q 222.649 1265.152 218.342 1272.433 Q 214.035 1279.714 206.748 1293.390 Q 199.460 1307.065 195.838 1314.288 Q 192.217 1321.510 188.231 1329.842 Q 184.245 1338.173 181.806 1343.512 Q 179.367 1348.851 174.450 1359.672 Q 169.534 1370.493 166.680 1377.083 Q 163.826 1383.673 162.140 1387.850 Q 160.454 1392.028 158.716 1396.493 Q 156.978 1400.958 155.137 1405.599 Q 153.296 1410.241 151.758 1414.121 Q 150.220 1418.001 148.143 1423.072 Q 146.065 1428.142 144.508 1431.870 L 143.287 1433.479 "></path>
    <path id="STROKE_333a706a-e720-431f-9a5b-30298b9e9225" opacity="1.000" fill="none" stroke="#50514f" stroke-width="13.638" stroke-opacity="1.000" stroke-linecap="round" stroke-linejoin="round" d="M 199.464 1206.384 Q 198.396 1206.181 195.617 1205.797 L 195.293 1205.775 L 189.814 1204.949 L 173.957 1203.876 "></path>
    <path id="STROKE_d0fddb1e-73ed-4134-8b40-c3077321b42a" opacity="1.000" fill="none" stroke="#50514f" stroke-width="13.638" stroke-opacity="1.000" stroke-linecap="round" stroke-linejoin="round" d="M 199.718 1205.177 Q 199.787 1205.211 201.020 1205.858 Q 202.254 1206.506 203.047 1206.756 Q 203.840 1207.005 205.031 1207.227 Q 206.222 1207.449 208.171 1207.670 Q 210.121 1207.890 211.607 1208.014 Q 213.093 1208.137 214.059 1208.197 Q 215.026 1208.257 217.115 1208.288 Q 219.204 1208.319 221.052 1208.334 Q 222.900 1208.350 225.203 1208.361 Q 227.506 1208.371 229.318 1208.373 Q 231.131 1208.375 233.115 1208.365 Q 235.098 1208.355 236.125 1208.282 Q 237.152 1208.209 237.960 1208.038 Q 238.767 1207.866 239.464 1207.552 Q 240.160 1207.238 240.603 1206.834 Q 241.046 1206.431 241.238 1206.177 Q 241.429 1205.922 241.634 1205.493 Q 241.839 1205.065 241.945 1204.573 Q 242.052 1204.082 241.969 1203.103 Q 241.887 1202.123 241.679 1201.652 Q 241.472 1201.182 240.326 1200.152 Q 239.180 1199.122 237.918 1198.373 Q 236.657 1197.624 234.898 1196.811 Q 233.139 1195.999 232.004 1195.475 Q 230.869 1194.952 230.102 1194.599 Q 229.336 1194.247 226.860 1193.041 Q 224.385 1191.835 223.289 1191.313 Q 222.193 1190.791 220.488 1190.094 Q 218.783 1189.396 216.104 1188.350 Q 213.425 1187.303 211.229 1186.460 Q 209.033 1185.616 207.319 1184.976 Q 205.606 1184.336 204.447 1183.901 Q 203.289 1183.467 202.384 1183.121 Q 201.479 1182.776 198.587 1181.667 Q 195.694 1180.558 193.906 1179.843 Q 192.118 1179.128 190.306 1178.394 Q 188.493 1177.659 186.060 1176.667 Q 183.627 1175.674 181.531 1174.856 Q 179.435 1174.039 177.676 1173.396 Q 175.917 1172.754 173.871 1172.008 Q 171.825 1171.261 169.492 1170.411 Q 167.160 1169.561 164.881 1168.774 Q 162.603 1167.988 160.380 1167.264 Q 158.157 1166.541 156.433 1165.983 Q 154.709 1165.425 152.873 1164.836 Q 151.037 1164.247 148.733 1163.492 Q 146.429 1162.736 144.551 1162.142 Q 142.674 1161.547 140.455 1160.861 Q 138.237 1160.175 136.281 1159.559 Q 134.326 1158.944 132.633 1158.399 Q 130.941 1157.853 129.544 1157.416 Q 128.147 1156.979 126.494 1156.487 Q 124.842 1155.994 122.950 1155.518 Q 121.058 1155.043 119.197 1154.644 Q 117.336 1154.245 115.083 1153.768 Q 112.829 1153.292 110.429 1152.787 Q 108.030 1152.282 106.234 1151.891 Q 104.439 1151.499 103.820 1151.386 "></path>
    <path id="STROKE_1a25051e-4d2c-4adc-8f86-1f6aaafd5621" opacity="1.000" fill="none" stroke="#50514f" stroke-width="13.638" stroke-opacity="1.000" stroke-linecap="round" stroke-linejoin="round" d="M 239.797 1202.699 Q 242.825 1203.438 243.584 1203.815 Q 244.343 1204.192 244.975 1204.715 Q 245.607 1205.238 245.851 1205.526 Q 246.094 1205.813 246.489 1206.553 Q 246.883 1207.292 247.116 1208.322 Q 247.348 1209.352 247.294 1211.248 Q 247.240 1213.143 247.123 1213.969 Q 247.007 1214.795 246.703 1216.272 Q 246.398 1217.749 244.900 1223.153 "></path>
    <path id="STROKE_27023c04-c7b8-422d-b6c7-e7f54d145df5" opacity="1.000" fill="none" stroke="#50514f" stroke-width="13.638" stroke-opacity="1.000" stroke-linecap="round" stroke-linejoin="round" d="M -118.358 1365.310 L -117.496 1364.628 Q -114.152 1363.371 -108.456 1362.081 Q -102.760 1360.790 -95.639 1360.873 Q -88.519 1360.955 -84.667 1362.063 Q -80.816 1363.171 -77.897 1364.585 Q -74.979 1366.000 -72.424 1367.712 Q -69.870 1369.425 -66.881 1372.010 Q -63.892 1374.595 -61.556 1377.487 Q -59.220 1380.379 -57.201 1383.899 Q -55.183 1387.419 -53.576 1391.043 Q -51.970 1394.668 -50.189 1400.153 Q -48.408 1405.637 -47.712 1408.505 Q -47.017 1411.373 -46.409 1414.486 Q -45.802 1417.598 -45.018 1422.152 Q -44.234 1426.706 -43.594 1429.181 L -42.138 1430.107 "></path>
    <path id="STROKE_039b5fdb-e5e3-44ce-832a-c21ed836bee1" opacity="1.000" fill="none" stroke="#50514f" stroke-width="13.638" stroke-opacity="1.000" stroke-linecap="round" stroke-linejoin="round" d="M 103.669 1269.553 Q 101.274 1267.186 99.201 1265.097 L 97.253 1263.528 Q 94.386 1261.895 92.835 1261.253 Q 91.283 1260.611 84.724 1260.114 Q 78.166 1259.617 69.621 1263.141 Q 61.077 1266.666 56.574 1270.181 Q 52.071 1273.696 48.912 1277.503 Q 45.754 1281.311 41.704 1289.203 Q 37.655 1297.096 35.574 1307.888 Q 33.493 1318.680 34.851 1327.259 Q 36.210 1335.838 38.882 1340.203 Q 41.554 1344.567 44.926 1347.610 Q 48.297 1350.652 51.423 1352.607 Q 54.548 1354.562 58.805 1356.477 Q 63.061 1358.392 65.456 1359.107 Q 67.851 1359.823 77.199 1360.500 Q 86.548 1361.177 92.418 1359.943 Q 98.288 1358.709 102.073 1356.984 Q 105.858 1355.260 107.315 1354.339 Q 108.772 1353.418 110.396 1352.204 Q 112.021 1350.990 113.976 1349.200 Q 115.931 1347.410 117.044 1346.229 Q 118.157 1345.049 120.519 1341.949 Q 122.881 1338.850 123.860 1337.281 Q 124.839 1335.711 126.780 1331.488 Q 128.720 1327.264 129.500 1324.474 Q 130.280 1321.684 130.637 1319.318 Q 130.995 1316.952 131.071 1311.217 Q 131.148 1305.481 130.260 1301.109 Q 129.371 1296.736 128.241 1294.115 Q 127.111 1291.494 125.136 1288.515 Q 123.160 1285.536 121.098 1283.498 Q 119.036 1281.460 117.342 1280.275 Q 115.648 1279.089 97.177 1273.339 "></path>
    <path id="STROKE_14e5ee76-d933-4cc5-8321-fbf448837559" opacity="1.000" fill="none" stroke="#50514f" stroke-width="13.638" stroke-opacity="1.000" stroke-linecap="round" stroke-linejoin="round" d="M -86.946 1234.999 L -85.384 1234.504 Q -77.108 1236.180 -70.808 1237.522 Q -64.507 1238.864 -54.806 1239.657 Q -45.105 1240.451 -36.846 1238.806 Q -28.586 1237.160 -22.603 1234.614 Q -16.620 1232.068 -10.438 1227.753 Q -4.256 1223.437 0.269 1218.633 Q 4.794 1213.829 7.038 1210.481 Q 9.283 1207.133 13.411 1199.403 Q 14.806 1196.042 15.446 1194.176 Q 16.086 1192.311 16.602 1190.584 Q 17.119 1188.858 18.930 1179.652 L 18.950 1178.759 L 20.065 1174.675 "></path>
    <path id="STROKE_fa86d7ba-23d4-486d-a9b2-8bd0a27c7720" opacity="1.000" fill="none" stroke="#50514f" stroke-width="13.638" stroke-opacity="1.000" stroke-linecap="round" stroke-linejoin="round" d="M -75.611 1137.176 L -75.527 1137.130 L -75.374 1136.926 L -75.191 1136.743 Q -74.903 1136.514 -74.367 1136.166 Q -73.830 1135.817 -72.778 1135.358 Q -71.726 1134.898 -71.158 1134.686 Q -70.591 1134.473 -70.308 1134.358 Q -70.024 1134.243 -69.469 1134.036 Q -68.914 1133.829 -68.630 1133.720 Q -68.347 1133.611 -67.144 1133.349 Q -65.941 1133.087 -65.087 1132.980 Q -64.232 1132.874 -63.955 1132.862 Q -63.677 1132.849 -63.005 1132.767 Q -62.333 1132.684 -61.716 1132.633 Q -61.099 1132.582 -60.530 1132.521 Q -59.962 1132.461 -59.572 1132.439 Q -59.182 1132.418 -58.429 1132.341 Q -57.676 1132.265 -57.050 1132.219 Q -56.424 1132.174 -55.766 1132.160 Q -55.108 1132.147 -54.996 1132.150 Q -54.884 1132.153 -54.123 1132.134 Q -53.362 1132.114 -52.953 1132.057 L -52.912 1131.919 "></path>
    <path id="STROKE_986a9292-69e8-4a7d-984e-c578a586ee63" opacity="1.000" fill="none" stroke="#50514f" stroke-width="13.291" stroke-opacity="1.000" stroke-linecap="round" stroke-linejoin="round" d="M -282.886 1442.298 Q -282.688 1442.295 -280.608 1441.998 Q -278.527 1441.702 -276.653 1441.137 Q -274.779 1440.573 -272.545 1440.014 Q -270.311 1439.455 -269.774 1439.334 Q -269.238 1439.214 -262.430 1438.197 Q -255.622 1437.180 -251.620 1436.598 Q -247.617 1436.017 -246.812 1435.873 Q -246.007 1435.729 -237.774 1434.362 Q -229.541 1432.996 -224.113 1432.368 Q -218.685 1431.740 -215.227 1431.552 Q -211.770 1431.364 -209.212 1431.218 Q -206.655 1431.072 -203.537 1430.895 Q -200.419 1430.718 -192.338 1430.658 Q -184.256 1430.597 -183.678 1430.604 Q -183.100 1430.610 -180.674 1430.624 Q -178.248 1430.638 -176.443 1430.710 Q -174.637 1430.782 -171.925 1431.041 Q -169.212 1431.300 -169.180 1431.312 Q -169.149 1431.324 -163.572 1431.796 Q -157.996 1432.268 -152.071 1433.168 Q -146.146 1434.068 -141.420 1434.950 Q -136.694 1435.833 -134.637 1436.127 Q -132.581 1436.421 -129.185 1436.743 Q -125.789 1437.064 -124.080 1437.122 Q -122.371 1437.180 -120.704 1437.203 Q -119.036 1437.225 -111.961 1437.400 Q -104.885 1437.576 -100.366 1437.616 Q -95.848 1437.656 -87.372 1437.657 Q -78.897 1437.658 -76.183 1437.666 Q -73.468 1437.675 -69.229 1437.772 Q -64.990 1437.870 -57.401 1437.274 Q -49.812 1436.678 -45.082 1436.132 Q -40.353 1435.586 -37.351 1435.219 Q -34.349 1434.852 -16.551 1434.538 Q 1.247 1434.225 6.439 1434.470 Q 11.632 1434.716 14.966 1434.954 Q 18.299 1435.192 24.443 1435.656 Q 30.587 1436.119 33.766 1436.328 Q 36.946 1436.537 43.008 1436.366 Q 49.071 1436.195 57.761 1436.001 Q 66.451 1435.808 76.524 1435.889 Q 86.597 1435.970 95.196 1436.231 Q 103.795 1436.492 108.296 1436.485 Q 112.798 1436.478 123.243 1436.319 Q 133.688 1436.160 138.865 1436.085 Q 144.042 1436.010 147.570 1435.954 Q 151.099 1435.898 157.397 1436.010 Q 163.695 1436.121 171.558 1435.348 Q 179.422 1434.574 183.483 1433.902 Q 187.544 1433.230 189.823 1432.938 Q 192.102 1432.645 198.534 1431.451 Q 204.966 1430.256 213.137 1428.204 Q 221.308 1426.151 232.538 1424.428 Q 243.768 1422.705 250.535 1421.732 Q 257.302 1420.760 261.827 1420.325 Q 266.353 1419.891 268.353 1419.694 Q 270.354 1419.497 279.118 1418.756 Q 287.882 1418.014 295.366 1418.326 Q 302.849 1418.637 308.386 1419.439 Q 313.923 1420.241 317.334 1420.631 Q 320.745 1421.021 324.186 1421.342 Q 327.628 1421.663 331.595 1422.053 Q 335.561 1422.443 338.205 1422.931 Q 340.849 1423.419 347.944 1426.371 "></path>
  </g>
</svg>