<?xml version="1.0" encoding="UTF-8" standalone="yes"?>
<svg xmlns="http://www.w3.org/2000/svg" xmlns:xlink="http://www.w3.org/1999/xlink" width="527.021pt" height="526.802pt" version="1.1" viewBox="-263.564 503.749 527.021 526.802">
  <!--
	Exported with Concepts: Smarter Sketching
	Version: 3531 on iOS 18.3
	https://concepts.app/
	-->
  <title>F98A6716-EF4C-4193-88F5-C4DC95624454</title>
  <desc>Drawing exported from Concepts: Smarter Sketching</desc>
  <defs></defs>
  <g id="New_Layer_1" opacity="1.000" display="none">
    <path id="STROKE_5fbc8c93-d949-4371-92a5-3066302d3628" opacity="1.000" display="none" fill="#ffe15c" stroke="#ffe15c" stroke-width="0.500" stroke-opacity="1.000" stroke-linecap="round" stroke-linejoin="round" d="M -78.451 469.502 Q -78.702 469.459 -79.546 469.198 Q -80.389 468.938 -82.446 468.466 Q -84.503 467.994 -86.068 467.798 Q -87.632 467.602 -88.752 467.521 Q -89.873 467.441 -91.287 467.408 Q -92.701 467.376 -98.897 467.576 Q -105.094 467.776 -108.935 467.868 Q -112.776 467.960 -124.928 468.088 Q -137.081 468.216 -143.226 468.276 Q -149.371 468.337 -152.598 468.413 Q -155.826 468.489 -168.913 469.024 Q -182.000 469.559 -188.844 469.859 Q -195.687 470.160 -199.199 470.306 Q -202.711 470.451 -208.560 470.706 Q -214.409 470.960 -231.223 471.833 Q -248.038 472.707 -256.669 473.161 Q -265.300 473.616 -270.529 473.865 Q -275.758 474.114 -278.279 474.212 Q -280.800 474.310 -291.325 474.923 Q -301.851 475.537 -307.308 475.969 Q -312.765 476.401 -315.850 476.981 Q -318.934 477.560 -321.006 478.370 Q -323.077 479.181 -324.540 480.158 Q -326.002 481.135 -327.512 482.838 Q -329.021 484.541 -330.324 488.526 Q -331.626 492.510 -331.878 497.743 Q -332.129 502.976 -331.803 513.827 Q -331.477 524.679 -331.416 530.360 Q -331.355 536.041 -331.356 538.382 Q -331.357 540.723 -331.350 546.908 Q -331.344 553.093 -331.316 557.150 Q -331.289 561.207 -331.634 572.372 Q -331.978 583.536 -332.284 589.347 Q -332.589 595.157 -333.288 610.117 Q -333.988 625.076 -334.270 638.795 Q -334.553 652.514 -334.557 660.535 Q -334.562 668.555 -334.566 672.322 Q -334.569 676.089 -334.570 678.068 Q -334.570 680.047 -334.589 683.163 Q -334.607 686.280 -334.495 697.771 Q -334.383 709.262 -333.978 728.989 Q -333.574 748.716 -333.532 758.484 Q -333.490 768.252 -333.480 772.682 Q -333.471 777.113 -333.442 780.227 Q -333.413 783.341 -333.372 785.385 Q -333.331 787.429 -333.141 796.911 Q -332.950 806.392 -332.911 811.881 Q -332.872 817.371 -332.865 825.281 Q -332.858 833.191 -332.845 837.109 Q -332.831 841.028 -332.854 852.881 Q -332.877 864.734 -332.926 870.856 Q -332.976 876.977 -333.057 880.963 Q -333.139 884.948 -333.237 889.784 Q -333.335 894.621 -333.913 912.649 Q -334.491 930.677 -334.883 940.452 Q -335.276 950.226 -335.470 957.397 Q -335.663 964.567 -335.817 971.295 Q -335.971 978.023 -336.158 983.329 Q -336.346 988.636 -336.529 992.956 Q -336.712 997.276 -337.225 1005.530 Q -337.737 1013.785 -338.157 1020.973 Q -338.577 1028.161 -338.437 1031.638 Q -338.297 1035.114 -337.882 1037.255 Q -337.468 1039.396 -336.725 1041.055 Q -335.983 1042.714 -335.105 1043.835 Q -334.227 1044.957 -333.468 1045.656 Q -332.709 1046.355 -330.492 1047.539 Q -328.274 1048.722 -321.704 1049.497 Q -315.134 1050.272 -310.717 1050.294 Q -306.300 1050.316 -302.342 1050.281 Q -298.383 1050.247 -288.279 1050.125 Q -278.176 1050.003 -272.071 1050.126 Q -265.966 1050.250 -258.543 1050.679 Q -251.121 1051.108 -229.971 1051.597 Q -208.822 1052.085 -198.026 1052.263 Q -187.231 1052.441 -182.359 1052.612 Q -177.488 1052.784 -174.015 1052.965 Q -170.542 1053.146 -162.326 1053.567 Q -154.110 1053.987 -148.546 1054.172 Q -142.981 1054.356 -127.837 1054.783 Q -112.692 1055.211 -104.962 1055.429 Q -97.232 1055.648 -93.834 1055.746 Q -90.437 1055.845 -81.478 1056.195 Q -72.520 1056.544 -62.782 1057.002 Q -53.044 1057.460 -48.698 1057.659 Q -44.352 1057.858 -27.568 1058.564 Q -10.784 1059.270 0.116 1059.740 Q 11.016 1060.209 18.402 1060.554 Q 25.788 1060.899 35.524 1061.384 Q 45.261 1061.869 55.528 1062.391 Q 65.795 1062.913 72.519 1063.269 Q 79.244 1063.625 84.799 1063.929 Q 90.354 1064.234 99.237 1064.745 Q 108.119 1065.256 119.554 1065.989 Q 130.988 1066.721 144.359 1067.584 Q 157.731 1068.448 172.383 1069.264 Q 187.035 1070.080 194.055 1070.437 Q 201.076 1070.793 204.301 1070.948 Q 207.526 1071.103 208.952 1071.168 Q 210.378 1071.234 216.192 1071.500 Q 222.006 1071.767 233.017 1072.214 Q 244.027 1072.662 254.816 1073.143 Q 265.604 1073.624 275.217 1074.120 Q 284.830 1074.616 289.326 1074.853 Q 293.823 1075.091 306.017 1075.894 Q 318.212 1076.697 326.431 1077.317 Q 334.650 1077.938 338.877 1078.300 Q 343.104 1078.662 345.038 1078.849 Q 346.972 1079.036 354.808 1079.704 Q 362.643 1080.372 367.617 1080.485 Q 372.591 1080.599 375.126 1080.325 Q 377.661 1080.052 379.174 1079.622 Q 380.687 1079.191 381.776 1078.572 Q 382.865 1077.952 383.897 1076.918 Q 384.930 1075.884 385.653 1073.608 Q 386.377 1071.332 386.160 1068.224 Q 385.943 1065.117 383.940 1058.536 Q 381.938 1051.956 380.576 1047.705 Q 379.215 1043.454 378.001 1039.426 Q 376.788 1035.397 376.073 1032.934 Q 375.358 1030.470 373.465 1022.839 Q 371.572 1015.207 370.419 1008.720 Q 369.265 1002.233 368.680 998.070 Q 368.094 993.907 367.610 990.318 Q 367.126 986.729 366.043 974.995 Q 364.960 963.260 364.489 956.761 Q 364.018 950.261 363.724 945.989 Q 363.431 941.717 363.204 938.140 Q 362.978 934.562 362.369 922.977 Q 361.759 911.392 361.381 904.882 Q 361.003 898.372 360.608 890.514 Q 360.214 882.657 360.068 878.003 Q 359.923 873.349 359.775 860.323 Q 359.627 847.297 359.599 838.686 Q 359.572 830.075 359.558 825.983 Q 359.544 821.890 359.510 819.406 Q 359.476 816.923 359.926 798.181 Q 360.377 779.440 360.753 769.641 Q 361.129 759.842 361.265 755.272 Q 361.401 750.703 361.480 748.427 Q 361.559 746.151 361.723 741.508 Q 361.887 736.865 361.981 734.260 Q 362.076 731.656 362.360 725.042 Q 362.645 718.427 363.038 708.692 Q 363.432 698.956 363.613 693.553 Q 363.794 688.149 363.882 685.620 Q 363.970 683.090 364.198 668.015 Q 364.426 652.940 364.458 645.144 Q 364.491 637.347 364.500 633.755 Q 364.510 630.163 364.454 621.924 Q 364.398 613.685 364.161 606.997 Q 363.923 600.309 363.724 596.133 Q 363.525 591.957 363.033 583.816 Q 362.541 575.674 362.183 570.635 Q 361.826 565.595 361.635 563.006 Q 361.445 560.418 359.901 547.399 Q 358.358 534.380 357.129 526.316 Q 355.900 518.252 355.205 513.140 Q 354.510 508.028 354.133 504.716 Q 353.757 501.403 353.189 495.818 Q 352.621 490.233 351.944 487.053 Q 351.267 483.873 350.668 482.314 Q 350.068 480.755 349.348 479.512 Q 348.627 478.268 346.677 476.312 Q 344.726 474.357 339.618 471.639 Q 334.510 468.922 330.550 467.567 Q 326.590 466.212 323.531 465.577 Q 320.472 464.942 316.743 464.558 Q 313.014 464.175 301.268 463.903 Q 289.522 463.632 283.415 463.474 Q 277.308 463.317 265.543 462.583 Q 253.778 461.849 245.812 461.290 Q 237.846 460.731 234.192 460.512 Q 230.538 460.293 225.421 460.039 Q 220.304 459.786 217.273 459.661 Q 214.242 459.537 208.870 459.285 Q 203.498 459.034 182.630 458.818 Q 161.762 458.603 151.149 458.602 Q 140.537 458.602 135.161 458.631 Q 129.785 458.660 116.984 459.245 Q 104.183 459.831 97.601 460.234 Q 91.020 460.637 83.908 461.245 Q 76.796 461.853 73.082 462.201 Q 69.369 462.549 59.580 463.588 Q 49.791 464.628 39.022 465.871 Q 28.254 467.114 22.346 467.784 Q 16.437 468.454 6.527 469.556 "></path>
  </g>
  <g id="fills" opacity="1.000">
    <path id="STROKE_2615eb2b-74b5-4814-8f58-50646a585fec" opacity="1.000" fill="#ff0000" stroke="#ff0000" stroke-width="0.500" stroke-opacity="1.000" stroke-linecap="round" stroke-linejoin="round" d="M -236.145 755.578 Q -235.645 755.477 -234.323 755.491 Q -233.000 755.504 -231.725 755.636 Q -230.449 755.767 -229.934 755.861 Q -229.420 755.954 -224.143 757.053 Q -218.866 758.152 -214.065 759.173 Q -209.263 760.194 -204.946 761.117 Q -200.629 762.040 -196.826 762.997 Q -193.023 763.955 -191.268 764.362 Q -189.513 764.770 -184.897 765.639 Q -180.281 766.508 -178.152 766.833 Q -176.022 767.159 -171.178 768.000 Q -166.333 768.842 -162.873 769.576 Q -159.412 770.310 -156.962 770.833 Q -154.512 771.355 -149.073 772.290 Q -143.633 773.224 -138.841 773.912 Q -134.049 774.600 -127.053 775.645 Q -120.058 776.690 -116.343 777.207 Q -112.628 777.725 -109.991 778.036 Q -107.354 778.347 -102.721 778.951 Q -98.088 779.554 -94.290 780.152 Q -90.491 780.750 -88.310 781.172 Q -86.128 781.595 -77.061 782.825 Q -67.994 784.055 -59.818 784.779 Q -51.642 785.503 -44.284 786.204 Q -36.925 786.906 -32.672 787.258 Q -28.419 787.610 -23.997 787.761 Q -19.574 787.912 -13.175 788.174 Q -6.776 788.436 -2.260 788.588 Q 2.256 788.740 6.957 788.757 Q 11.657 788.773 17.973 789.107 Q 24.289 789.441 28.018 789.774 Q 31.747 790.107 33.511 790.255 Q 35.276 790.403 39.585 790.696 Q 43.893 790.989 50.718 791.300 Q 57.542 791.610 61.320 791.701 Q 65.097 791.792 68.880 791.806 Q 72.662 791.821 75.631 791.776 Q 78.601 791.731 82.449 791.378 Q 86.297 791.025 90.450 790.106 Q 94.603 789.186 98.301 788.089 Q 101.999 786.992 104.097 786.179 Q 106.194 785.365 107.678 784.538 Q 109.162 783.711 111.202 782.336 Q 113.243 780.961 114.768 779.966 Q 116.293 778.971 118.532 777.660 Q 120.771 776.349 122.230 775.597 Q 123.689 774.846 125.056 774.293 Q 126.422 773.740 127.407 773.402 Q 128.392 773.063 130.359 772.452 Q 132.326 771.841 135.027 770.923 Q 137.728 770.005 139.030 769.479 Q 140.332 768.954 140.976 768.655 Q 141.620 768.356 142.684 767.814 Q 143.749 767.272 144.695 766.786 Q 145.641 766.300 147.118 765.842 Q 148.595 765.385 149.441 765.323 Q 150.288 765.262 150.769 765.332 Q 151.250 765.401 151.740 765.582 Q 152.231 765.762 153.097 766.428 Q 153.964 767.094 154.571 767.943 Q 155.177 768.792 155.703 770.312 Q 156.229 771.832 156.467 773.286 Q 156.704 774.740 156.952 780.139 Q 157.201 785.538 157.532 793.941 Q 157.864 802.344 158.011 806.460 Q 158.157 810.577 157.924 813.679 Q 157.692 816.781 157.248 819.167 Q 156.804 821.552 156.464 823.278 Q 156.123 825.003 155.547 827.876 Q 154.970 830.750 154.628 832.293 Q 154.285 833.837 152.782 839.178 Q 151.278 844.520 150.218 847.679 Q 149.159 850.839 147.964 853.655 Q 146.769 856.471 146.136 857.950 Q 145.504 859.429 144.473 862.773 Q 143.443 866.117 142.819 869.258 Q 142.195 872.400 141.775 875.794 Q 141.354 879.188 140.514 885.276 Q 139.673 891.364 139.236 894.296 Q 138.799 897.229 138.504 899.711 Q 138.210 902.193 137.690 905.288 Q 137.171 908.383 136.828 910.078 Q 136.486 911.772 135.796 914.827 Q 135.106 917.883 134.275 920.413 Q 133.445 922.943 132.736 924.539 Q 132.026 926.135 130.233 929.109 Q 128.439 932.082 126.677 934.536 Q 124.915 936.991 122.259 940.596 Q 119.604 944.201 117.542 947.640 Q 115.480 951.079 114.429 952.917 Q 113.379 954.755 112.752 955.821 Q 112.126 956.888 111.012 958.932 Q 109.898 960.976 109.002 962.574 Q 108.106 964.173 107.035 965.957 Q 105.965 967.740 104.806 969.678 Q 103.648 971.615 101.643 974.512 Q 99.638 977.408 98.302 979.315 Q 96.967 981.222 95.652 983.135 Q 94.338 985.048 92.945 986.876 Q 91.551 988.705 89.528 991.095 Q 87.505 993.484 85.000 996.023 Q 82.496 998.562 81.276 999.708 Q 80.055 1000.853 78.425 1002.274 Q 76.794 1003.695 74.684 1005.050 Q 72.573 1006.404 69.845 1007.485 Q 67.117 1008.566 59.974 1009.890 Q 52.831 1011.214 49.018 1011.713 Q 45.206 1012.212 39.573 1012.344 Q 33.940 1012.477 31.042 1012.332 Q 28.145 1012.188 20.786 1011.534 Q 13.426 1010.880 8.690 1010.269 Q 3.953 1009.658 0.635 1009.109 Q -2.684 1008.561 -4.463 1008.271 Q -6.242 1007.981 -9.623 1007.428 Q -13.004 1006.875 -21.617 1005.920 Q -30.229 1004.966 -34.635 1004.694 Q -39.042 1004.422 -41.839 1004.298 Q -44.637 1004.174 -52.647 1003.767 Q -60.657 1003.361 -64.966 1003.058 Q -69.275 1002.754 -71.639 1002.622 Q -74.003 1002.489 -76.727 1002.392 Q -79.452 1002.295 -85.311 1002.011 Q -91.171 1001.727 -95.342 1001.277 Q -99.514 1000.826 -104.238 999.932 Q -108.962 999.038 -111.359 998.450 Q -113.756 997.861 -116.195 997.261 Q -118.634 996.660 -122.671 995.759 Q -126.709 994.858 -129.814 994.162 Q -132.919 993.466 -137.627 992.318 Q -142.336 991.171 -145.243 990.429 Q -148.149 989.687 -151.211 988.805 Q -154.273 987.923 -160.162 986.015 Q -166.050 984.107 -169.958 982.684 Q -173.865 981.261 -179.974 978.256 Q -186.083 975.251 -189.246 973.531 Q -192.408 971.811 -196.012 969.413 Q -199.615 967.015 -202.787 964.328 Q -205.958 961.640 -209.134 958.210 Q -212.310 954.779 -214.130 952.236 Q -215.951 949.694 -217.109 947.680 Q -218.267 945.666 -218.875 944.517 Q -219.483 943.368 -221.276 939.113 Q -223.069 934.859 -223.770 932.785 Q -224.471 930.712 -226.390 923.914 Q -228.309 917.116 -229.878 912.274 Q -231.446 907.431 -233.296 902.353 Q -235.145 897.275 -236.405 892.830 Q -237.665 888.384 -238.622 882.967 Q -239.580 877.550 -240.241 874.009 Q -240.903 870.468 -241.572 867.036 Q -242.241 863.604 -242.811 859.582 Q -243.382 855.560 -243.802 851.597 Q -244.221 847.634 -244.398 844.563 Q -244.574 841.492 -244.702 838.561 Q -244.831 835.630 -244.944 833.868 Q -245.057 832.107 -245.219 830.282 Q -245.381 828.457 -245.598 822.569 Q -245.816 816.680 -245.721 812.698 Q -245.626 808.716 -245.266 805.456 Q -244.905 802.195 -244.685 800.588 Q -244.465 798.981 -244.364 798.207 Q -244.262 797.432 -243.949 794.732 Q -243.637 792.031 -243.433 788.933 Q -243.229 785.835 -243.226 780.483 Q -243.224 775.132 -243.237 774.252 Q -243.250 773.372 -243.281 772.459 Q -243.313 771.545 -243.301 770.068 Q -243.290 768.591 -243.092 767.497 Q -242.895 766.403 -242.795 765.998 Q -242.696 765.593 -242.358 764.997 Q -242.020 764.400 -239.030 761.615 "></path>
    <path id="STROKE_4f5b9225-1cff-478a-ae4c-66ece959f4b2" opacity="1.000" fill="#6dc1b3" stroke="#6dc1b3" stroke-width="0.500" stroke-opacity="1.000" stroke-linecap="round" stroke-linejoin="round" d="M -214.173 756.563 Q -214.922 756.321 -215.410 756.149 Q -215.898 755.977 -217.194 755.387 Q -218.489 754.797 -219.020 754.556 Q -219.551 754.316 -219.963 754.139 Q -220.374 753.963 -222.111 753.071 Q -223.849 752.179 -225.094 751.355 Q -226.339 750.530 -227.210 749.757 Q -228.081 748.984 -228.643 748.316 Q -229.204 747.648 -229.755 746.701 Q -230.306 745.754 -230.626 744.726 Q -230.947 743.697 -230.986 743.037 Q -231.026 742.376 -230.952 741.884 Q -230.878 741.391 -230.728 740.995 Q -230.578 740.598 -229.496 739.393 Q -228.414 738.187 -225.735 736.873 Q -223.057 735.558 -219.935 734.945 Q -216.813 734.333 -214.287 734.178 Q -211.762 734.023 -205.878 734.003 Q -199.994 733.984 -192.758 734.724 Q -185.522 735.464 -182.043 736.070 Q -178.563 736.676 -176.758 737.043 Q -174.953 737.410 -169.995 738.395 Q -165.038 739.381 -161.391 740.057 Q -157.744 740.733 -153.759 741.552 Q -149.773 742.371 -144.601 743.135 Q -139.429 743.898 -135.067 744.260 Q -130.705 744.622 -124.551 744.760 Q -118.398 744.898 -112.887 744.690 Q -107.377 744.482 -100.834 743.897 Q -94.291 743.312 -90.871 743.003 Q -87.452 742.695 -84.349 742.471 Q -81.247 742.248 -75.839 742.046 Q -70.431 741.845 -67.356 741.842 Q -64.282 741.839 -62.833 741.846 Q -61.385 741.854 -57.402 742.074 Q -53.419 742.295 -45.785 743.311 Q -38.151 744.326 -34.290 744.838 Q -30.430 745.350 -28.150 745.627 Q -25.870 745.903 -18.901 746.886 Q -11.933 747.869 -5.676 748.365 Q 0.580 748.861 4.437 748.845 Q 8.293 748.830 10.261 748.733 Q 12.229 748.636 19.546 747.682 Q 26.863 746.727 32.801 746.086 Q 38.739 745.444 41.807 745.255 Q 44.874 745.065 48.638 744.993 Q 52.403 744.921 61.627 746.124 Q 70.851 747.327 75.393 747.996 Q 79.935 748.666 82.001 748.886 Q 84.068 749.107 89.419 749.078 Q 94.771 749.049 100.094 748.751 Q 105.417 748.453 108.321 748.397 Q 111.224 748.340 116.519 748.442 Q 121.814 748.543 126.242 748.499 Q 130.670 748.455 133.097 748.548 Q 135.523 748.640 137.106 748.916 Q 138.689 749.192 140.053 749.755 Q 141.416 750.318 142.235 750.878 Q 143.055 751.438 143.766 752.237 Q 144.477 753.036 145.068 754.242 Q 145.658 755.448 145.769 756.301 Q 145.879 757.154 145.765 757.902 Q 145.651 758.650 145.539 759.011 Q 145.427 759.373 144.368 761.086 Q 143.310 762.799 141.838 764.167 Q 140.366 765.535 138.052 766.904 Q 135.738 768.273 129.130 770.399 Q 122.521 772.526 116.762 773.962 Q 111.002 775.398 106.801 776.369 Q 102.601 777.340 96.844 778.686 Q 91.087 780.032 86.934 780.862 Q 82.780 781.693 75.866 782.459 Q 68.952 783.226 60.285 783.984 Q 51.619 784.743 47.538 785.116 Q 43.458 785.490 36.215 785.715 Q 28.973 785.940 21.547 786.275 Q 14.122 786.609 10.098 786.838 Q 6.075 787.066 4.203 787.134 Q 2.332 787.202 -0.639 787.314 Q -3.609 787.425 -9.088 787.480 Q -14.566 787.535 -18.762 787.392 Q -22.958 787.248 -24.855 787.119 Q -26.753 786.990 -29.677 786.854 Q -32.602 786.718 -40.200 785.760 Q -47.799 784.802 -51.735 784.139 Q -55.670 783.476 -60.016 782.880 Q -64.362 782.285 -70.466 781.319 Q -76.571 780.352 -81.843 779.468 Q -87.115 778.583 -94.743 777.239 Q -102.372 775.894 -111.602 773.892 Q -120.833 771.889 -125.366 770.915 Q -129.899 769.940 -132.613 769.325 Q -135.327 768.710 -139.914 767.544 Q -144.502 766.377 -147.407 765.758 Q -150.311 765.138 -154.674 764.134 Q -159.036 763.129 -161.694 762.408 Q -164.351 761.687 -165.821 761.204 Q -167.292 760.721 -174.390 758.873 Q -181.489 757.025 -185.325 756.099 Q -189.161 755.174 -191.661 754.429 Q -194.162 753.684 -196.146 753.123 Q -198.130 752.563 -199.161 752.277 Q -200.193 751.992 -203.931 751.569 Q -207.670 751.147 -211.451 751.328 Q -215.232 751.510 -225.919 753.298 "></path>
    <path id="STROKE_4e73a382-8e31-4c9c-9e65-adbefe9e33f9" opacity="1.000" fill="#ffffff" stroke="#ffffff" stroke-width="0.500" stroke-opacity="1.000" stroke-linecap="round" stroke-linejoin="round" d="M -231.637 737.622 Q -231.858 737.040 -231.938 736.809 Q -232.019 736.578 -232.097 736.149 Q -232.175 735.720 -232.222 734.802 Q -232.269 733.883 -232.245 733.324 Q -232.220 732.765 -232.210 732.271 Q -232.200 731.777 -231.629 730.058 Q -231.059 728.339 -230.491 727.368 Q -229.924 726.396 -228.568 724.949 Q -227.211 723.501 -226.187 722.751 Q -225.162 722.000 -222.434 720.565 Q -219.706 719.129 -210.185 716.770 Q -200.664 714.411 -194.642 713.346 Q -188.621 712.282 -179.302 711.246 Q -169.982 710.211 -160.668 709.588 Q -151.354 708.966 -146.651 708.797 Q -141.948 708.629 -139.901 708.598 Q -137.854 708.567 -126.219 708.562 Q -114.584 708.556 -108.145 708.523 Q -101.705 708.489 -92.406 708.757 Q -83.108 709.025 -77.292 709.450 Q -71.475 709.874 -67.666 710.197 Q -63.856 710.519 -60.966 710.731 Q -58.077 710.942 -52.500 711.223 Q -46.923 711.504 -39.039 712.274 Q -31.156 713.044 -27.242 713.626 Q -23.328 714.207 -19.045 714.972 Q -14.761 715.736 -4.290 717.224 Q 6.181 718.711 24.442 721.197 Q 42.703 723.682 51.794 724.819 Q 60.885 725.955 64.843 726.472 Q 68.802 726.988 72.839 727.717 Q 76.876 728.446 82.431 729.689 Q 87.986 730.932 91.058 731.585 Q 94.130 732.238 97.502 732.853 Q 100.873 733.469 106.370 734.769 Q 111.868 736.069 114.932 736.930 Q 117.995 737.790 120.450 738.578 Q 122.904 739.366 126.096 740.506 Q 129.288 741.645 132.958 743.207 Q 136.629 744.769 138.142 745.777 Q 139.656 746.785 140.217 747.353 Q 140.779 747.921 141.127 748.518 Q 141.476 749.114 141.610 749.819 Q 141.744 750.524 141.688 750.948 Q 141.631 751.373 141.380 751.889 Q 141.128 752.405 140.388 753.103 Q 139.648 753.802 138.040 754.479 Q 136.432 755.157 132.901 755.012 Q 129.370 754.867 127.376 754.436 Q 125.383 754.006 121.457 753.231 Q 117.532 752.457 112.977 751.982 Q 108.423 751.507 103.005 750.952 Q 97.588 750.396 92.422 749.785 Q 87.257 749.173 83.297 748.662 Q 79.336 748.151 74.738 747.547 Q 70.140 746.944 64.410 746.405 Q 58.681 745.865 54.117 745.877 Q 49.552 745.889 47.356 746.091 Q 45.161 746.293 42.615 746.853 Q 40.070 747.413 38.542 747.890 Q 37.014 748.367 35.967 748.726 Q 34.919 749.085 32.585 749.748 Q 30.251 750.411 23.561 750.963 Q 16.871 751.514 12.537 751.718 Q 8.202 751.921 6.261 752.088 Q 4.320 752.256 -3.644 752.834 Q -11.609 753.413 -17.439 753.706 Q -23.269 753.999 -29.458 754.250 Q -35.646 754.500 -38.826 754.613 Q -42.007 754.727 -44.789 754.698 Q -47.572 754.669 -51.276 754.486 Q -54.980 754.302 -59.277 753.903 Q -63.575 753.504 -67.647 752.839 Q -71.718 752.175 -74.113 751.671 Q -76.508 751.167 -80.453 750.388 Q -84.399 749.608 -90.813 748.883 Q -97.227 748.157 -101.146 747.849 Q -105.064 747.542 -108.060 747.361 Q -111.055 747.181 -117.068 747.002 Q -123.081 746.822 -125.906 746.850 Q -128.731 746.878 -130.457 746.949 Q -132.182 747.019 -136.279 747.291 Q -140.376 747.562 -142.968 747.723 Q -145.559 747.885 -151.365 747.639 Q -157.171 747.394 -162.491 746.889 Q -167.811 746.384 -172.735 745.845 Q -177.659 745.306 -182.931 744.733 Q -188.202 744.160 -194.316 743.408 Q -200.430 742.656 -203.539 742.173 Q -206.648 741.691 -209.541 741.124 Q -212.434 740.557 -214.146 740.251 Q -215.858 739.945 -218.404 739.550 Q -220.949 739.155 -222.654 738.829 Q -224.360 738.504 -224.621 738.454 Q -224.883 738.404 -225.392 738.261 Q -225.901 738.118 -226.218 737.993 Q -226.536 737.869 -227.038 737.592 Q -227.539 737.314 -227.934 737.056 Q -228.328 736.798 -229.080 736.534 "></path>
  </g>
  <g id="Pen" opacity="1.000">
    <path id="STROKE_1c0915c9-718a-4d43-ae50-6d80e23d3ff9" opacity="1.000" fill="none" stroke="#171612" stroke-width="20.400" stroke-opacity="1.000" stroke-linecap="round" stroke-linejoin="round" d="M -234.687 752.471 L -234.310 752.444 Q -229.433 753.480 -227.072 754.184 Q -224.710 754.887 -216.529 757.094 Q -208.347 759.302 -192.762 762.840 Q -177.177 766.378 -166.237 768.521 Q -155.297 770.663 -131.216 775.143 Q -107.135 779.623 -87.995 782.656 Q -68.855 785.689 -46.237 787.137 Q -23.618 788.584 -22.151 788.684 Q -20.684 788.783 -5.640 789.680 Q 9.404 790.577 16.568 790.913 Q 23.733 791.249 32.236 791.016 Q 40.739 790.782 46.929 790.108 Q 53.118 789.434 59.131 788.651 Q 65.145 787.868 74.056 786.440 Q 82.966 785.011 87.788 784.099 Q 92.611 783.187 99.339 781.488 Q 106.068 779.789 109.585 778.700 Q 113.101 777.610 118.130 775.775 Q 123.160 773.941 131.165 770.090 Q 139.170 766.239 141.789 764.227 Q 144.407 762.216 146.138 759.840 Q 147.868 757.463 148.426 754.264 L 148.177 752.258 Q 146.262 748.537 144.782 747.067 Q 143.303 745.597 138.585 743.260 Q 133.866 740.924 129.870 739.873 Q 125.873 738.822 120.235 737.759 Q 114.596 736.696 105.635 735.156 Q 96.674 733.615 93.897 733.118 Q 91.120 732.620 81.868 731.033 Q 72.616 729.446 66.631 728.462 Q 60.646 727.478 54.619 726.392 Q 48.591 725.307 41.165 723.884 Q 33.738 722.460 33.383 722.379 Q 33.028 722.298 23.038 720.714 Q 13.048 719.130 3.763 717.915 Q -5.523 716.700 -24.312 713.773 Q -43.102 710.846 -55.085 709.258 Q -67.068 707.671 -73.049 707.074 Q -79.030 706.478 -94.160 705.730 Q -109.290 704.982 -126.967 706.144 Q -144.644 707.305 -154.480 707.930 Q -164.316 708.554 -173.870 708.846 Q -183.424 709.138 -187.873 709.502 Q -192.321 709.867 -196.783 710.546 Q -201.245 711.226 -206.265 712.451 Q -211.285 713.676 -216.148 715.512 Q -221.011 717.349 -223.462 718.652 Q -225.913 719.954 -227.748 721.181 Q -229.584 722.407 -232.555 725.087 Q -235.526 727.766 -236.981 729.809 Q -238.436 731.853 -238.879 732.846 Q -239.322 733.840 -239.782 736.039 Q -239.695 738.093 -239.426 738.734 Q -239.158 739.376 -238.495 740.221 Q -237.833 741.067 -236.850 741.603 Q -235.867 742.139 -228.812 743.607 "></path>
    <path id="STROKE_fde57933-b109-4146-950d-775a16a52f6d" opacity="1.000" fill="none" stroke="#171612" stroke-width="20.400" stroke-opacity="1.000" stroke-linecap="round" stroke-linejoin="round" d="M -231.389 755.516 Q -236.403 754.995 -237.842 755.157 Q -239.281 755.319 -240.924 756.094 Q -242.293 757.429 -245.037 767.338 Q -247.781 777.247 -247.698 790.824 Q -247.615 804.400 -245.693 817.740 Q -243.770 831.079 -242.178 839.528 Q -240.587 847.977 -239.807 852.060 Q -239.028 856.143 -237.810 863.060 Q -236.592 869.976 -234.501 880.091 Q -232.411 890.206 -231.157 895.442 Q -229.902 900.678 -229.062 904.403 Q -228.222 908.129 -226.435 915.948 Q -224.648 923.767 -223.430 927.937 Q -222.212 932.106 -220.349 936.594 Q -218.486 941.082 -216.686 944.088 Q -214.886 947.095 -213.303 949.225 Q -211.719 951.354 -207.788 955.575 Q -203.857 959.796 -203.483 960.177 Q -203.110 960.559 -197.362 965.464 Q -191.614 970.369 -182.805 976.778 Q -173.997 983.186 -171.007 984.817 Q -168.018 986.447 -165.951 987.454 Q -163.884 988.461 -152.565 991.774 Q -141.245 995.088 -132.882 996.661 Q -124.518 998.233 -118.874 999.250 Q -113.230 1000.266 -102.749 1001.277 Q -92.269 1002.289 -75.092 1002.565 Q -57.915 1002.842 -46.808 1003.271 Q -35.701 1003.701 -23.411 1004.728 Q -11.122 1005.755 -1.439 1008.014 Q 8.245 1010.274 13.199 1011.507 Q 18.154 1012.741 27.571 1013.808 Q 36.988 1014.874 42.685 1014.684 Q 48.382 1014.493 50.963 1014.133 Q 53.545 1013.772 58.867 1012.329 Q 64.188 1010.887 70.996 1007.787 Q 77.804 1004.688 80.963 1002.739 Q 84.123 1000.791 87.532 998.205 Q 90.941 995.619 93.137 993.680 Q 95.333 991.740 98.400 988.568 Q 101.467 985.396 106.500 978.354 Q 111.532 971.313 116.680 962.094 Q 121.828 952.875 125.284 945.609 Q 128.740 938.343 131.254 932.364 Q 133.767 926.384 135.811 920.814 Q 137.855 915.243 140.849 906.302 Q 143.843 897.361 146.479 889.012 Q 149.115 880.663 150.393 876.018 Q 151.671 871.373 153.513 864.186 Q 155.355 856.999 157.147 846.937 Q 158.940 836.875 159.586 823.432 Q 160.232 809.989 160.033 805.049 Q 159.834 800.109 159.131 789.316 Q 158.428 778.523 157.910 774.821 Q 157.392 771.120 149.879 756.512 Q 149.254 756.039 140.350 753.380 "></path>
    <path id="STROKE_a84fc70a-612d-4400-a286-79c1c77670fa" opacity="1.000" fill="none" stroke="#171612" stroke-width="20.400" stroke-opacity="1.000" stroke-linecap="round" stroke-linejoin="round" d="M 156.473 864.630 L 157.047 863.783 Q 157.698 862.550 160.014 856.980 Q 162.330 851.411 163.840 848.663 Q 165.349 845.915 169.790 841.097 Q 174.230 836.278 179.697 833.090 Q 185.165 829.901 191.236 828.405 Q 197.308 826.910 203.909 827.347 Q 210.510 827.783 213.592 828.636 Q 216.674 829.489 221.566 832.066 Q 226.458 834.642 231.142 839.997 Q 235.827 845.352 237.925 848.926 Q 240.023 852.500 241.864 856.573 Q 243.706 860.646 245.392 866.408 Q 247.078 872.170 247.444 880.438 Q 247.811 888.706 247.301 893.336 Q 246.791 897.966 245.337 902.705 Q 243.884 907.445 242.738 909.961 Q 241.593 912.476 240.878 913.821 Q 240.163 915.166 236.610 920.654 Q 233.057 926.143 225.633 933.167 Q 218.210 940.190 214.174 943.044 Q 210.139 945.898 204.650 948.766 Q 199.160 951.634 193.065 953.406 Q 186.969 955.179 182.105 955.575 Q 177.242 955.972 173.540 955.378 Q 169.839 954.784 167.931 954.134 Q 166.023 953.484 164.280 952.743 Q 162.536 952.002 159.456 950.209 Q 156.376 948.417 154.256 946.537 Q 152.135 944.657 150.601 942.241 Q 149.067 939.825 147.749 936.615 Q 146.431 933.405 145.228 929.420 Q 144.026 925.435 143.623 923.623 Q 143.221 921.811 142.720 918.854 "></path>
    <path id="STROKE_186e40b5-de69-49c7-bc33-06addebf9de0" opacity="1.000" fill="none" stroke="#171612" stroke-width="20.400" stroke-opacity="1.000" stroke-linecap="round" stroke-linejoin="round" d="M -81.615 519.611 Q -83.438 522.218 -85.687 526.058 Q -87.936 529.898 -89.093 532.827 Q -90.250 535.756 -91.093 540.708 Q -91.935 545.660 -91.982 548.498 Q -92.029 551.335 -90.239 559.106 Q -88.450 566.877 -85.310 575.294 Q -82.171 583.711 -80.661 587.933 Q -79.151 592.154 -77.856 596.438 Q -76.562 600.723 -75.362 606.414 Q -74.162 612.105 -73.747 618.626 Q -73.331 625.147 -73.694 628.450 Q -74.056 631.754 -75.963 636.231 Q -77.870 640.708 -80.473 643.855 Q -83.076 647.001 -91.343 654.341 "></path>
    <path id="STROKE_975b62b8-e5e2-4d47-8674-920506ab4c4f" opacity="1.000" fill="none" stroke="#171612" stroke-width="20.400" stroke-opacity="1.000" stroke-linecap="round" stroke-linejoin="round" d="M 34.781 535.139 L 34.024 535.409 Q 33.697 535.663 32.605 537.302 Q 31.512 538.940 29.851 545.168 Q 28.191 551.396 27.711 556.248 Q 27.232 561.100 27.150 564.214 Q 27.067 567.327 29.292 579.146 Q 31.516 590.966 33.331 597.139 Q 35.145 603.312 37.279 610.746 Q 39.412 618.179 40.586 624.627 Q 41.760 631.075 42.014 638.140 Q 42.268 645.206 41.431 649.640 Q 40.594 654.075 39.741 655.767 Q 38.888 657.459 33.279 662.993 "></path>
  </g>
</svg>