<?xml version="1.0" encoding="utf-8"?>
<svg viewBox="0 0 1136 640" xmlns="http://www.w3.org/2000/svg" xmlns:xlink="http://www.w3.org/1999/xlink">
  <!--Generated by AMDN-->
  <g id="Layer 1">
    <path id="Path" style="fill:none;opacity:1;stroke:#ff931d;stroke-linecap:round;stroke-linejoin:round;stroke-miterlimit:10;stroke-opacity:1;stroke-width:10;" d="M114.864,200.387 C190.594,195.337,266.816,196.291,342.71,195.377 C371.223,195.034,399.913,192.879,428.305,192.879"/>
    <path id="Path" style="fill:none;opacity:1;stroke:#ff931d;stroke-linecap:round;stroke-linejoin:round;stroke-miterlimit:10;stroke-opacity:1;stroke-width:10;" d="M254.38,118.429 C256.021,141.414,257.852,164.3,257.502,187.386 C257.219,206.098,253.564,224.751,252.546,243.441 C250.536,280.353,250.541,318.434,251.903,355.398 C253.26,392.242,254.93,429.081,256.278,465.938 C257.137,489.429,260.746,515.263,255.005,538.228"/>
    <path id="Path" style="fill:none;opacity:1;stroke:#ff931d;stroke-linecap:round;stroke-linejoin:round;stroke-miterlimit:10;stroke-opacity:1;stroke-width:10;" d="M160.535,141.577 C166.714,153.249,174.326,163.855,181.806,174.736"/>
    <path id="Path" style="fill:none;opacity:1;stroke:#ff931d;stroke-linecap:round;stroke-linejoin:round;stroke-miterlimit:10;stroke-opacity:1;stroke-width:10;" d="M196.196,133.444 C191.65,146.171,189.147,159.118,183.683,171.607"/>
    <path id="Path" style="fill:none;opacity:1;stroke:#ff931d;stroke-linecap:round;stroke-linejoin:round;stroke-miterlimit:10;stroke-opacity:1;stroke-width:10;" d="M312.563,133.444 C320.404,132.137,328.407,130.713,336.337,130.316 C333.437,130.316,328.659,129.484,326.704,132.242 C324.385,135.511,327.495,140.696,328.676,143.942 C330.581,149.178,330.081,155.161,330.081,160.627 C330.081,162.91,330.876,169.193,328.586,170.653 C326.392,172.051,320.765,170.982,318.194,170.982 C327.031,170.982,335.183,170.961,343.845,169.105"/>
    <path id="Path" style="fill:none;opacity:1;stroke:#ff931d;stroke-linecap:round;stroke-linejoin:round;stroke-miterlimit:10;stroke-opacity:1;stroke-width:10;" d="M166.165,233.545 C171.69,230.995,185.486,225.351,188.822,234.321 C190.845,239.759,186.043,244.244,181.649,246.449 C181.111,246.719,174.812,249.849,175.455,248.053 C176.251,245.826,182.346,246.43,183.871,247.269 C188.116,249.606,192.28,256.396,191.039,261.437 C188.364,272.299,169.846,267.055,163.663,264.201"/>
    <path id="Path" style="fill:none;opacity:1;stroke:#ff931d;stroke-linecap:round;stroke-linejoin:round;stroke-miterlimit:10;stroke-opacity:1;stroke-width:10;" d="M318.82,236.048 C316.108,236.59,311.072,236.622,309.027,238.595 C304.542,242.922,300.181,264.299,307.511,267.386 C317.773,271.707,329.237,259.525,328.144,249.757 C327.539,244.347,322.517,239.409,318.82,236.048 z"/>
    <path id="Path" style="fill:none;opacity:1;stroke:#ff931d;stroke-linecap:round;stroke-linejoin:round;stroke-miterlimit:10;stroke-opacity:1;stroke-width:10;" d="M371.373,232.294 C372.956,244.166,372.624,255.991,372.624,267.955"/>
    <path id="Path" style="fill:none;opacity:1;stroke:#ff931d;stroke-linecap:round;stroke-linejoin:round;stroke-miterlimit:10;stroke-opacity:1;stroke-width:10;" d="M346.348,260.447 C346.348,260.447,346.348,260.447,346.348,260.447 z"/>
    <path id="Path" style="fill:none;opacity:1;stroke:#ff931d;stroke-linecap:round;stroke-linejoin:round;stroke-miterlimit:10;stroke-opacity:1;stroke-width:10;" d="M348.224,258.57 C348.224,258.57,349.476,257.945,349.476,257.945"/>
    <path id="Path" style="fill:none;opacity:1;stroke:#ff931d;stroke-linecap:round;stroke-linejoin:round;stroke-miterlimit:10;stroke-opacity:1;stroke-width:10;" d="M181.181,319.257 C178.408,319.072,173.557,317.792,171.076,319.229 C158.43,326.557,155.475,353.356,171.292,358.607 C176.224,360.243,191.722,359.271,191.07,351.316 C190.018,338.497,175.334,344.494,168.668,347.41"/>
    <path id="Path" style="fill:none;opacity:1;stroke:#ff931d;stroke-linecap:round;stroke-linejoin:round;stroke-miterlimit:10;stroke-opacity:1;stroke-width:10;" d="M314.44,323.636 C312.168,323.182,307.251,321.195,305.1,322.177 C302.679,323.282,301.456,327.861,300.826,330.174 C298.859,337.395,297.389,351.15,307.228,353.407 C316.78,355.599,325.288,347.41,322.317,337.726 C320.733,332.559,317.987,327.479,314.44,323.636 z"/>
    <path id="Path" style="fill:none;opacity:1;stroke:#ff931d;stroke-linecap:round;stroke-linejoin:round;stroke-miterlimit:10;stroke-opacity:1;stroke-width:10;" d="M343.845,346.785 C343.845,346.785,345.096,348.661,345.096,348.661"/>
    <path id="Path" style="fill:none;opacity:1;stroke:#ff931d;stroke-linecap:round;stroke-linejoin:round;stroke-miterlimit:10;stroke-opacity:1;stroke-width:10;" d="M368.245,329.267 C369.423,326.321,370.473,320.883,373.098,318.939 C375.736,316.986,382.69,315.952,383.735,320.147 C385.763,328.292,377.822,336.065,372.868,341.502 C370.6,343.99,366.373,348.419,367.102,352.09 C367.658,354.891,371.165,354.292,373.284,354.292 C379.79,354.292,386.131,352.88,392.644,352.415"/>
    <path id="Path" style="fill:none;opacity:1;stroke:#ff931d;stroke-linecap:round;stroke-linejoin:round;stroke-miterlimit:10;stroke-opacity:1;stroke-width:10;" d="M188.063,404.968 C183.98,403.063,179.644,400.087,174.972,400.65 C167.488,401.552,158.199,412.839,163.075,420.201 C168.927,429.036,190.062,426.629,193.449,416.273 C194.611,412.719,191.466,408.022,189.939,404.968 C189.961,408.1,191.16,411.366,191.85,414.419 C194.493,426.12,200.441,453.768,182.173,453.768 C179.938,453.768,177.521,454.025,175.31,453.678 C172.029,453.164,168.536,450.786,165.54,449.388"/>
    <path id="Path" style="fill:none;opacity:1;stroke:#ff931d;stroke-linecap:round;stroke-linejoin:round;stroke-miterlimit:10;stroke-opacity:1;stroke-width:10;" d="M305.056,415.604 C307.247,415.761,312.115,415.193,313.815,416.683 C321.854,423.733,318.908,452.831,305.996,453.137 C293.04,453.444,291.572,432.633,295.816,423.784 C297.465,420.346,302.653,418.54,305.056,415.604 z"/>
    <path id="Path" style="fill:none;opacity:1;stroke:#ff931d;stroke-linecap:round;stroke-linejoin:round;stroke-miterlimit:10;stroke-opacity:1;stroke-width:10;" d="M342.594,445.009 C342.594,445.009,342.594,445.009,342.594,445.009 z"/>
    <path id="Path" style="fill:none;opacity:1;stroke:#ff931d;stroke-linecap:round;stroke-linejoin:round;stroke-miterlimit:10;stroke-opacity:1;stroke-width:10;" d="M341.968,448.137 C341.968,448.137,341.968,448.137,341.968,448.137 z"/>
    <path id="Path" style="fill:none;opacity:1;stroke:#ff931d;stroke-linecap:round;stroke-linejoin:round;stroke-miterlimit:10;stroke-opacity:1;stroke-width:10;" d="M346.348,443.132 C346.348,443.132,343.845,445.009,343.845,445.009"/>
    <path id="Path" style="fill:none;opacity:1;stroke:#ff931d;stroke-linecap:round;stroke-linejoin:round;stroke-miterlimit:10;stroke-opacity:1;stroke-width:10;" d="M383.26,409.973 C389.086,408.517,399.605,404.428,401.737,413.266 C403.44,420.323,393.429,432.351,385.762,429.368 C395.888,426.059,404.789,434.001,402.537,444.612 C399.969,456.714,386.325,457.392,377.004,455.645"/>
    <path id="Path" style="fill:none;opacity:1;stroke:#ff931d;stroke-linecap:round;stroke-linejoin:round;stroke-miterlimit:10;stroke-opacity:1;stroke-width:10;" d="M175.55,493.808 C175.55,493.808,176.801,496.936,176.801,496.936"/>
    <path id="Path" style="fill:none;opacity:1;stroke:#ff931d;stroke-linecap:round;stroke-linejoin:round;stroke-miterlimit:10;stroke-opacity:1;stroke-width:10;" d="M178.052,528.844 C178.052,528.844,177.427,530.095,177.427,530.095"/>
    <path id="Path" style="fill:none;opacity:1;stroke:#ff931d;stroke-linecap:round;stroke-linejoin:round;stroke-miterlimit:10;stroke-opacity:1;stroke-width:10;" d="M175.55,565.756 C175.55,565.756,175.55,567.633,175.55,567.633"/>
    <path id="Path" style="fill:none;opacity:1;stroke:#ff931d;stroke-linecap:round;stroke-linejoin:round;stroke-miterlimit:10;stroke-opacity:1;stroke-width:10;" d="M340.717,496.311 C340.717,496.311,339.466,498.813,339.466,498.813"/>
    <path id="Path" style="fill:none;opacity:1;stroke:#ff931d;stroke-linecap:round;stroke-linejoin:round;stroke-miterlimit:10;stroke-opacity:1;stroke-width:10;" d="M337.589,528.844 C337.589,528.844,338.214,531.346,338.214,531.346"/>
    <path id="Path" style="fill:none;opacity:1;stroke:#ff931d;stroke-linecap:round;stroke-linejoin:round;stroke-miterlimit:10;stroke-opacity:1;stroke-width:10;" d="M336.337,558.874 C336.337,558.874,336.337,558.874,336.337,558.874 z"/>
    <path id="Path" style="fill:none;opacity:1;stroke:#ff931d;stroke-linecap:round;stroke-linejoin:round;stroke-miterlimit:10;stroke-opacity:1;stroke-width:10;" d="M335.086,563.879 C335.086,563.879,336.337,568.884,336.337,568.884"/>
    <path id="Path" style="fill:none;opacity:1;stroke:#0070ba;stroke-linecap:round;stroke-linejoin:round;stroke-miterlimit:10;stroke-opacity:1;stroke-width:10;" d="M658.538,115.926 C660.038,139.923,659.946,163.977,661.724,187.925 C662.646,200.351,665.475,212.726,666.02,225.173 C667.059,248.872,666.292,272.609,667.322,296.338 C669.031,335.676,671.099,374.911,673.504,414.223 C675.755,451.014,673.339,487.932,678.558,524.464"/>
    <path id="Path" style="fill:none;opacity:1;stroke:#0070ba;stroke-linecap:round;stroke-linejoin:round;stroke-miterlimit:10;stroke-opacity:1;stroke-width:10;" d="M621,501.316 C684.85,493.801,749.428,496.649,813.564,493.777 C833.341,492.891,853,490.436,872.813,490.062 C916.781,489.231,960.845,490.054,1004.82,490.054 C1028.86,490.054,1053.08,487.203,1077.09,488.803"/>
    <path id="Path" style="fill:none;opacity:1;stroke:#0070ba;stroke-linecap:round;stroke-linejoin:round;stroke-miterlimit:10;stroke-opacity:1;stroke-width:10;" d="M1060.82,475.039 C1068.51,479.431,1076.14,484.056,1083.97,488.177 C1078.13,494.012,1071.34,498.507,1064.57,503.193"/>
    <path id="Path" style="fill:none;opacity:1;stroke:#0070ba;stroke-linecap:round;stroke-linejoin:round;stroke-miterlimit:10;stroke-opacity:1;stroke-width:10;" d="M657.912,114.675 C651.746,120.281,647.783,126.878,642.272,132.818 C646.517,128.566,650.595,115.186,657.844,114.88 C659.585,114.807,661.262,117.534,662.548,118.481 C668.138,122.602,672.995,128.506,677.933,133.444"/>
    <path id="Path" style="fill:none;opacity:1;stroke:#0070ba;stroke-linecap:round;stroke-linejoin:round;stroke-miterlimit:10;stroke-opacity:1;stroke-width:10;" d="M823.705,526.341 C830.191,532.828,833.77,540.329,839.17,547.576 C840.51,549.376,842.68,554.046,845.572,553.655 C847.618,553.379,849.983,546.684,850.738,544.935 C854.148,537.026,859.711,529.939,864.997,523.213"/>
    <path id="Path" style="fill:none;opacity:1;stroke:#0070ba;stroke-linecap:round;stroke-linejoin:round;stroke-miterlimit:10;stroke-opacity:1;stroke-width:10;" d="M592.221,292.98 C600.288,291.082,608.759,289.957,616.621,287.349 C613.776,287.351,605.75,287.685,604.046,290.391 C602.684,292.555,606.841,297.675,607.168,299.97 C608,305.808,609.769,326.58,605.066,330.448 C603.103,332.062,597.812,330.518,595.349,330.518 C603.092,330.518,610.989,327.905,618.498,326.139"/>
    <path id="Path" style="fill:none;opacity:1;stroke:#0070ba;stroke-linecap:round;stroke-linejoin:round;stroke-miterlimit:10;stroke-opacity:1;stroke-width:10;" d="M679.81,493.182 C711.638,464.243,741.002,432.816,772.567,403.599 C818.192,361.365,867.273,323.328,913.757,282.28 C928.727,269.061,942.086,254,956.533,240.252 C962.587,234.491,969.86,230.156,975.969,224.517 C992.157,209.577,1007.72,193.833,1023.91,179.115"/>
    <path id="Path" style="fill:none;opacity:1;stroke:#0070ba;stroke-linecap:round;stroke-linejoin:round;stroke-miterlimit:10;stroke-opacity:1;stroke-width:10;" d="M1003.26,180.992 C1008.36,179.4,1013.48,178.109,1018.6,176.669 C1019.96,176.289,1022.99,174.573,1024.34,175.205 C1025.84,175.907,1025.16,180.154,1025.16,181.487 C1025.16,187.946,1024.08,194.584,1023.28,201.012"/>
    <path id="Path" style="fill:none;opacity:1;stroke:#0070ba;stroke-linecap:round;stroke-linejoin:round;stroke-miterlimit:10;stroke-opacity:1;stroke-width:10;" d="M719.224,428.742 C719.224,428.742,719.224,428.742,719.224,428.742 z"/>
    <path id="Path" style="fill:none;opacity:1;stroke:#0070ba;stroke-linecap:round;stroke-linejoin:round;stroke-miterlimit:10;stroke-opacity:1;stroke-width:10;" d="M713.594,428.117 C713.594,428.117,714.219,428.117,714.219,428.117"/>
    <path id="Path" style="fill:none;opacity:1;stroke:#0070ba;stroke-linecap:round;stroke-linejoin:round;stroke-miterlimit:10;stroke-opacity:1;stroke-width:10;" d="M817.449,398.712 C817.449,398.712,817.449,398.712,817.449,398.712 z"/>
    <path id="Path" style="fill:none;opacity:1;stroke:#0070ba;stroke-linecap:round;stroke-linejoin:round;stroke-miterlimit:10;stroke-opacity:1;stroke-width:10;" d="M817.449,396.209 C817.449,396.209,820.577,391.204,820.577,391.204"/>
    <path id="Path" style="fill:none;opacity:1;stroke:#0070ba;stroke-linecap:round;stroke-linejoin:round;stroke-miterlimit:10;stroke-opacity:1;stroke-width:10;" d="M839.971,302.99 C839.971,302.99,839.971,302.99,839.971,302.99 z"/>
    <path id="Path" style="fill:none;opacity:1;stroke:#0070ba;stroke-linecap:round;stroke-linejoin:round;stroke-miterlimit:10;stroke-opacity:1;stroke-width:10;" d="M846.853,304.867 C846.853,304.867,846.853,302.99,846.853,302.99"/>
    <path id="Path" style="fill:none;opacity:1;stroke:#0070ba;stroke-linecap:round;stroke-linejoin:round;stroke-miterlimit:10;stroke-opacity:1;stroke-width:10;" d="M945.703,280.467 C945.703,280.467,945.703,280.467,945.703,280.467 z"/>
    <path id="Path" style="fill:none;opacity:1;stroke:#0070ba;stroke-linecap:round;stroke-linejoin:round;stroke-miterlimit:10;stroke-opacity:1;stroke-width:10;" d="M954.462,267.329 C954.462,267.329,956.339,266.704,956.339,266.704"/>
    <path id="Path" style="fill:none;opacity:1;stroke:#0070ba;stroke-linecap:round;stroke-linejoin:round;stroke-miterlimit:10;stroke-opacity:1;stroke-width:10;" d="M962.595,199.135 C962.595,199.135,964.472,202.263,964.472,202.263"/>
  </g>
</svg>
