<?xml version="1.0" encoding="utf-8"?>
<svg viewBox="0 0 1136 640" xmlns="http://www.w3.org/2000/svg" xmlns:xlink="http://www.w3.org/1999/xlink">
  <!--Generated by AMDN-->
  <g id="Layer 2">
    <path id="Path" style="fill:none;opacity:1;stroke:#ff1c24;stroke-linecap:round;stroke-linejoin:round;stroke-miterlimit:10;stroke-opacity:1;stroke-width:10;" d="M533.825,289.485 C530.639,287.892,526.743,284.991,523.09,285.038 C510.949,285.194,497.289,300.675,491.657,310.062 C477.964,332.886,488.469,369.09,514.958,375.912 C531.941,380.286,560.215,376.438,571.991,362.09 C577.191,355.755,578.624,346.686,579.089,338.767 C579.451,332.596,581.439,326.046,580.177,319.832 C576.783,303.13,548.678,293.446,533.825,289.485 z"/>
    <path id="Path" style="fill:none;opacity:1;stroke:#ff1c24;stroke-linecap:round;stroke-linejoin:round;stroke-miterlimit:10;stroke-opacity:1;stroke-width:10;" d="M519.806,334.728 C529.641,333.571,539.339,331.811,549.119,330.267"/>
    <path id="Path" style="fill:none;opacity:1;stroke:#ff1c24;stroke-linecap:round;stroke-linejoin:round;stroke-miterlimit:10;stroke-opacity:1;stroke-width:10;" d="M537.649,319.435 C535.757,330.153,535.737,340.43,535.737,351.296"/>
    <path id="Path" style="fill:none;opacity:1;stroke:#ff1c24;stroke-linecap:round;stroke-linejoin:round;stroke-miterlimit:10;stroke-opacity:1;stroke-width:10;" d="M591.813,290.122 C638.372,256.861,686.494,225.908,735.152,195.785 C756.647,182.477,777.299,168.028,799.041,155.081 C807.09,150.289,815.96,147.258,824.036,142.469 C839.795,133.123,854.284,121.971,870.279,112.974"/>
    <path id="Path" style="fill:none;opacity:1;stroke:#ff1c24;stroke-linecap:round;stroke-linejoin:round;stroke-miterlimit:10;stroke-opacity:1;stroke-width:10;" d="M600.097,328.993 C640.385,331.87,681.619,327.021,721.951,325.828 C758.877,324.736,795.853,325.457,832.784,324.518 C868.871,323.6,904.929,320.709,941.011,320.709"/>
    <path id="Path" style="fill:none;opacity:1;stroke:#ff1c24;stroke-linecap:round;stroke-linejoin:round;stroke-miterlimit:10;stroke-opacity:1;stroke-width:10;" d="M594.362,378.059 C604.94,391.524,617.873,399.681,632.067,409.144 C653.274,423.281,675.438,435.935,696.715,449.941 C729.121,471.272,758.449,496.162,789.673,519.094 C819.061,540.677,850.508,559.191,879.837,580.696"/>
    <path id="Path" style="fill:none;opacity:1;stroke:#ff1c24;stroke-linecap:round;stroke-linejoin:round;stroke-miterlimit:10;stroke-opacity:1;stroke-width:10;" d="M555.491,407.371 C560.6,432.915,569.796,457.339,577.036,482.279 C587.124,517.03,597.18,551.692,607.106,586.431"/>
    <path id="Path" style="fill:none;opacity:1;stroke:#ff1c24;stroke-linecap:round;stroke-linejoin:round;stroke-miterlimit:10;stroke-opacity:1;stroke-width:10;" d="M503.876,403.548 C488.289,445.108,476.573,487.562,464.367,530.17 C459.563,546.936,452.501,562.926,449.075,580.059"/>
    <path id="Path" style="fill:none;opacity:1;stroke:#ff1c24;stroke-linecap:round;stroke-linejoin:round;stroke-miterlimit:10;stroke-opacity:1;stroke-width:10;" d="M451.624,373.599 C429.363,385.583,407.793,398.983,385.391,410.843 C319.979,445.473,260.644,474.87,199.921,518.248"/>
    <path id="Path" style="fill:none;opacity:1;stroke:#ff1c24;stroke-linecap:round;stroke-linejoin:round;stroke-miterlimit:10;stroke-opacity:1;stroke-width:10;" d="M457.359,326.444 C427.461,321.724,397.894,315.574,367.977,311.151 C319.455,303.978,270.781,297.859,222.241,290.831 C201.044,287.762,179.962,283.592,158.878,279.841 C146.175,277.581,135.285,274.192,122.179,274.192"/>
    <path id="Path" style="fill:none;opacity:1;stroke:#ff1c24;stroke-linecap:round;stroke-linejoin:round;stroke-miterlimit:10;stroke-opacity:1;stroke-width:10;" d="M470.74,276.103 C446.482,259.933,422.196,243.56,397.357,228.299 C372.062,212.758,345.707,198.715,321.398,181.614 C302.295,168.174,283.457,154.385,264.531,140.709 C247.421,128.346,231.644,116.539,211.391,109.788"/>
    <path id="Path" style="fill:none;opacity:1;stroke:#ff1c24;stroke-linecap:round;stroke-linejoin:round;stroke-miterlimit:10;stroke-opacity:1;stroke-width:10;" d="M526.816,256.987 C511.222,221.345,485.565,190.16,466.616,156.196 C444.624,116.777,427.158,73.2475,396.185,39.6938"/>
    <path id="Path" style="fill:none;opacity:1;stroke:#ff1c24;stroke-linecap:round;stroke-linejoin:round;stroke-miterlimit:10;stroke-opacity:1;stroke-width:10;" d="M562.5,257.624 C581.231,227.183,599.919,196.773,619.901,167.135 C625.941,158.177,633.198,150.001,639.285,141.099 C662.148,107.66,684.103,71.6611,712.885,42.8799"/>
    <path id="Path" style="fill:none;opacity:1;stroke:#ff1c24;stroke-linecap:round;stroke-linejoin:round;stroke-miterlimit:10;stroke-opacity:1;stroke-width:10;" d="M839.055,112.974 C852.557,114.662,865.625,111.7,879.2,111.7 C874.073,121.189,866.122,130.042,860.083,139.101"/>
    <path id="Path" style="fill:none;opacity:1;stroke:#ff1c24;stroke-linecap:round;stroke-linejoin:round;stroke-miterlimit:10;stroke-opacity:1;stroke-width:10;" d="M920.62,306.053 C928.702,309.084,935.541,313.047,943.148,317.005 C944.596,317.759,949.882,320.297,949.423,322.411 C949.044,324.155,945.175,326.031,943.83,327.038 C938.663,330.904,933.471,334.734,928.266,338.551"/>
    <path id="Path" style="fill:none;opacity:1;stroke:#ff1c24;stroke-linecap:round;stroke-linejoin:round;stroke-miterlimit:10;stroke-opacity:1;stroke-width:10;" d="M876.651,559.668 C877.567,566.542,878.355,573.977,880.325,580.619 C880.821,582.291,883.175,586.58,881.959,588.217 C880.936,589.595,877.503,588.98,876.021,588.98 C870.849,588.98,865.847,589.614,860.721,590.254"/>
    <path id="Path" style="fill:none;opacity:1;stroke:#ff1c24;stroke-linecap:round;stroke-linejoin:round;stroke-miterlimit:10;stroke-opacity:1;stroke-width:10;" d="M584.803,575.598 C588.988,581.876,592.786,585.899,599.333,589.726 C600.786,590.576,604.58,592.758,606.25,591.81 C608.411,590.584,609.003,586.082,609.947,583.984 C612.534,578.234,615.719,573.193,619.213,567.951"/>
    <path id="Path" style="fill:none;opacity:1;stroke:#ff1c24;stroke-linecap:round;stroke-linejoin:round;stroke-miterlimit:10;stroke-opacity:1;stroke-width:10;" d="M440.154,560.942 C441.542,568.349,442.972,575.759,444.604,583.117 C444.976,584.793,444.755,589.23,446.745,589.831 C449.177,590.565,452.179,586.436,453.679,585.038 C459.259,579.838,465.379,575.213,471.378,570.5"/>
    <path id="Path" style="fill:none;opacity:1;stroke:#ff1c24;stroke-linecap:round;stroke-linejoin:round;stroke-miterlimit:10;stroke-opacity:1;stroke-width:10;" d="M206.293,495.945 C201.749,501.728,197.111,507.346,193.564,513.821 C192.737,515.33,190.154,519.641,191.427,521.313 C192.648,522.917,197.494,522.071,199.284,522.071 C206.767,522.071,213.607,523.243,220.949,524.62"/>
    <path id="Path" style="fill:none;opacity:1;stroke:#ff1c24;stroke-linecap:round;stroke-linejoin:round;stroke-miterlimit:10;stroke-opacity:1;stroke-width:10;" d="M147.031,264.633 C137.926,266.909,119.414,276.015,111.984,276.103 C116.24,276.343,118.491,281.038,120.235,284.322 C124.409,292.182,129.341,299.909,134.287,307.327"/>
    <path id="Path" style="fill:none;opacity:1;stroke:#ff1c24;stroke-linecap:round;stroke-linejoin:round;stroke-miterlimit:10;stroke-opacity:1;stroke-width:10;" d="M215.851,111.7 C215.851,120.238,219.009,128.269,219.037,136.552 C218.977,127.979,208.742,118.892,211.531,109.842 C212.233,107.565,218.371,108.383,220.176,108.683 C229.993,110.315,239.443,108.086,248.987,105.965"/>
    <path id="Path" style="fill:none;opacity:1;stroke:#ff1c24;stroke-linecap:round;stroke-linejoin:round;stroke-miterlimit:10;stroke-opacity:1;stroke-width:10;" d="M428.046,45.4288 C416.004,42.8482,404.655,38.5505,394.274,37.1449 C392.134,46.2395,390.371,55.3844,388.539,64.5455"/>
    <path id="Path" style="fill:none;opacity:1;stroke:#ff1c24;stroke-linecap:round;stroke-linejoin:round;stroke-miterlimit:10;stroke-opacity:1;stroke-width:10;" d="M688.671,49.2521 C697.565,44.2485,706.99,41.6853,716.071,37.1449 C716.071,46.4025,715.454,55.3339,714.797,64.5455"/>
  </g>
</svg>
