<?xml version="1.0" encoding="UTF-8" standalone="yes"?>
<svg xmlns="http://www.w3.org/2000/svg" xmlns:xlink="http://www.w3.org/1999/xlink" width="1080.000px" height="1080.000px" version="1.1" viewBox="-270.000 498.000 540.000 540.000">
  <!--
	Exported with Concepts: Smarter Sketching
	Version: 4569 on iOS 26.2
	https://concepts.app/
	-->
  <title>88A1E3B2-5B5F-4DEA-A7B5-00315E573DDE</title>
  <desc>Drawing exported from Concepts: Smarter Sketching</desc>
  <defs></defs>
  <g id="New_Layer_1" opacity="1.000">
    <path id="STROKE_5fbc8c93-d949-4371-92a5-3066302d3628" opacity="1.000" fill="#ffe15c" stroke="#ffe15c" stroke-width="0.500" stroke-opacity="1.000" stroke-linecap="round" stroke-linejoin="round" d="M -108.718 399.954 Q -109.033 399.902 -110.089 399.583 Q -111.146 399.264 -113.722 398.686 Q -116.299 398.108 -118.258 397.868 Q -120.217 397.628 -121.620 397.529 Q -123.023 397.431 -124.794 397.391 Q -126.565 397.351 -134.326 397.596 Q -142.087 397.841 -146.897 397.953 Q -151.708 398.066 -166.928 398.223 Q -182.148 398.380 -189.844 398.454 Q -197.541 398.528 -201.583 398.621 Q -205.625 398.714 -222.016 399.369 Q -238.406 400.024 -246.978 400.392 Q -255.549 400.760 -259.947 400.939 Q -264.345 401.117 -271.670 401.428 Q -278.996 401.740 -300.055 402.809 Q -321.115 403.879 -331.924 404.435 Q -342.734 404.992 -349.282 405.297 Q -355.831 405.603 -358.989 405.722 Q -362.146 405.842 -375.329 406.593 Q -388.511 407.345 -395.346 407.874 Q -402.180 408.403 -406.044 409.112 Q -409.907 409.822 -412.501 410.814 Q -415.095 411.806 -416.927 413.003 Q -418.759 414.199 -420.650 416.285 Q -422.540 418.371 -424.172 423.250 Q -425.803 428.129 -426.118 434.536 Q -426.433 440.943 -426.025 454.232 Q -425.616 467.520 -425.540 474.476 Q -425.463 481.432 -425.464 484.299 Q -425.466 487.165 -425.457 494.739 Q -425.449 502.313 -425.415 507.281 Q -425.381 512.248 -425.812 525.920 Q -426.244 539.591 -426.626 546.706 Q -427.008 553.821 -427.884 572.139 Q -428.761 590.457 -429.114 607.256 Q -429.468 624.055 -429.474 633.876 Q -429.480 643.698 -429.484 648.310 Q -429.488 652.923 -429.489 655.346 Q -429.490 657.769 -429.513 661.586 Q -429.537 665.402 -429.396 679.473 Q -429.255 693.543 -428.749 717.699 Q -428.242 741.856 -428.189 753.817 Q -428.136 765.778 -428.125 771.203 Q -428.113 776.628 -428.077 780.441 Q -428.040 784.255 -427.989 786.757 Q -427.938 789.260 -427.699 800.870 Q -427.460 812.481 -427.412 819.202 Q -427.363 825.924 -427.354 835.610 Q -427.346 845.296 -427.329 850.094 Q -427.311 854.892 -427.340 869.407 Q -427.369 883.922 -427.431 891.417 Q -427.493 898.913 -427.595 903.793 Q -427.697 908.673 -427.820 914.596 Q -427.943 920.518 -428.667 942.594 Q -429.391 964.669 -429.882 976.638 Q -430.374 988.607 -430.616 997.388 Q -430.859 1006.168 -431.051 1014.406 Q -431.244 1022.644 -431.479 1029.142 Q -431.714 1035.640 -431.943 1040.930 Q -432.172 1046.220 -432.814 1056.328 Q -433.456 1066.435 -433.982 1075.238 Q -434.508 1084.040 -434.333 1088.297 Q -434.157 1092.554 -433.638 1095.175 Q -433.119 1097.796 -432.189 1099.828 Q -431.259 1101.860 -430.159 1103.233 Q -429.060 1104.606 -428.109 1105.462 Q -427.159 1106.318 -424.382 1107.768 Q -421.604 1109.217 -413.376 1110.165 Q -405.148 1111.114 -399.616 1111.141 Q -394.084 1111.168 -389.126 1111.126 Q -384.167 1111.084 -371.514 1110.934 Q -358.860 1110.785 -351.214 1110.937 Q -343.568 1111.088 -334.271 1111.614 Q -324.975 1112.139 -298.487 1112.737 Q -271.999 1113.335 -258.478 1113.553 Q -244.958 1113.771 -238.856 1113.980 Q -232.755 1114.190 -228.405 1114.412 Q -224.055 1114.633 -213.766 1115.149 Q -203.476 1115.664 -196.507 1115.890 Q -189.538 1116.115 -170.570 1116.639 Q -151.602 1117.162 -141.921 1117.430 Q -132.240 1117.697 -127.985 1117.818 Q -123.730 1117.938 -112.510 1118.367 Q -101.290 1118.795 -89.094 1119.356 Q -76.898 1119.916 -71.455 1120.160 Q -66.012 1120.404 -44.991 1121.268 Q -23.970 1122.133 -10.318 1122.708 Q 3.333 1123.282 12.583 1123.705 Q 21.833 1124.127 34.028 1124.721 Q 46.222 1125.315 59.081 1125.955 Q 71.940 1126.594 80.361 1127.030 Q 88.783 1127.466 95.741 1127.838 Q 102.699 1128.211 113.824 1128.837 Q 124.948 1129.463 139.269 1130.360 Q 153.589 1131.257 170.336 1132.314 Q 187.083 1133.371 205.434 1134.370 Q 223.785 1135.370 232.577 1135.806 Q 241.370 1136.243 245.409 1136.433 Q 249.449 1136.623 251.234 1136.703 Q 253.020 1136.782 260.302 1137.109 Q 267.583 1137.435 281.373 1137.983 Q 295.163 1138.531 308.675 1139.120 Q 322.187 1139.710 334.226 1140.317 Q 346.266 1140.924 351.898 1141.215 Q 357.529 1141.505 372.802 1142.489 Q 388.074 1143.472 398.368 1144.232 Q 408.662 1144.992 413.956 1145.435 Q 419.250 1145.878 421.673 1146.107 Q 424.095 1146.336 433.908 1147.154 Q 443.721 1147.972 449.951 1148.111 Q 456.180 1148.250 459.355 1147.916 Q 462.530 1147.581 464.425 1147.054 Q 466.320 1146.527 467.684 1145.768 Q 469.048 1145.009 470.341 1143.743 Q 471.634 1142.476 472.540 1139.689 Q 473.446 1136.902 473.175 1133.098 Q 472.904 1129.293 470.395 1121.234 Q 467.887 1113.176 466.182 1107.971 Q 464.477 1102.766 462.957 1097.833 Q 461.436 1092.900 460.541 1089.884 Q 459.646 1086.867 457.275 1077.522 Q 454.905 1068.177 453.460 1060.234 Q 452.015 1052.290 451.282 1047.193 Q 450.549 1042.095 449.942 1037.700 Q 449.336 1033.306 447.979 1018.936 Q 446.623 1004.567 446.033 996.609 Q 445.443 988.650 445.075 983.419 Q 444.708 978.188 444.424 973.807 Q 444.141 969.427 443.378 955.240 Q 442.615 941.054 442.141 933.082 Q 441.668 925.111 441.173 915.489 Q 440.679 905.867 440.497 900.169 Q 440.315 894.470 440.129 878.520 Q 439.944 862.570 439.910 852.025 Q 439.875 841.481 439.858 836.469 Q 439.840 831.458 439.797 828.417 Q 439.755 825.375 440.319 802.426 Q 440.883 779.477 441.354 767.478 Q 441.825 755.479 441.995 749.883 Q 442.166 744.288 442.265 741.501 Q 442.364 738.714 442.569 733.029 Q 442.774 727.343 442.893 724.154 Q 443.011 720.965 443.367 712.866 Q 443.724 704.767 444.217 692.845 Q 444.709 680.924 444.936 674.307 Q 445.163 667.691 445.273 664.594 Q 445.383 661.496 445.669 643.036 Q 445.954 624.577 445.995 615.030 Q 446.035 605.483 446.047 601.084 Q 446.059 596.686 445.989 586.597 Q 445.919 576.508 445.622 568.318 Q 445.325 560.129 445.076 555.016 Q 444.826 549.902 444.210 539.933 Q 443.594 529.964 443.146 523.793 Q 442.698 517.622 442.459 514.452 Q 442.221 511.282 440.288 495.340 Q 438.355 479.399 436.816 469.524 Q 435.277 459.649 434.406 453.390 Q 433.535 447.131 433.064 443.074 Q 432.592 439.017 431.881 432.179 Q 431.170 425.340 430.322 421.446 Q 429.474 417.552 428.723 415.643 Q 427.973 413.734 427.070 412.212 Q 426.167 410.689 423.724 408.294 Q 421.281 405.899 414.884 402.572 Q 408.486 399.244 403.527 397.585 Q 398.568 395.926 394.736 395.148 Q 390.905 394.370 386.235 393.901 Q 381.565 393.431 366.854 393.099 Q 352.142 392.766 344.494 392.574 Q 336.845 392.381 322.110 391.482 Q 307.376 390.583 297.399 389.898 Q 287.422 389.214 282.845 388.946 Q 278.269 388.678 271.860 388.367 Q 265.451 388.057 261.655 387.904 Q 257.859 387.752 251.131 387.444 Q 244.404 387.136 218.268 386.872 Q 192.132 386.608 178.840 386.608 Q 165.549 386.607 158.816 386.643 Q 152.083 386.678 136.050 387.395 Q 120.017 388.112 111.775 388.606 Q 103.532 389.100 94.625 389.844 Q 85.717 390.589 81.067 391.015 Q 76.416 391.441 64.156 392.713 Q 51.895 393.986 38.409 395.508 Q 24.923 397.031 17.522 397.851 Q 10.122 398.672 -2.290 400.020 "></path>
  </g>
  <g id="fills" opacity="1.000">
    <path id="STROKE_2615eb2b-74b5-4814-8f58-50646a585fec" opacity="1.000" fill="#ff0000" stroke="#ff0000" stroke-width="0.500" stroke-opacity="1.000" stroke-linecap="round" stroke-linejoin="round" d="M -178.651 751.697 Q -178.269 751.622 -177.260 751.632 Q -176.251 751.642 -175.277 751.739 Q -174.303 751.837 -173.910 751.906 Q -173.518 751.975 -169.491 752.789 Q -165.464 753.604 -161.799 754.360 Q -158.134 755.117 -154.839 755.801 Q -151.545 756.485 -148.642 757.194 Q -145.740 757.904 -144.400 758.206 Q -143.061 758.508 -139.538 759.152 Q -136.015 759.796 -134.390 760.037 Q -132.765 760.278 -129.067 760.901 Q -125.370 761.525 -122.729 762.069 Q -120.088 762.613 -118.218 763.000 Q -116.348 763.387 -112.197 764.080 Q -108.045 764.773 -104.388 765.282 Q -100.730 765.792 -95.391 766.566 Q -90.053 767.341 -87.218 767.724 Q -84.382 768.107 -82.370 768.338 Q -80.357 768.568 -76.821 769.016 Q -73.285 769.463 -70.386 769.906 Q -67.487 770.349 -65.822 770.662 Q -64.157 770.975 -57.237 771.887 Q -50.317 772.798 -44.077 773.334 Q -37.837 773.871 -32.222 774.391 Q -26.606 774.910 -23.360 775.171 Q -20.113 775.432 -16.738 775.544 Q -13.363 775.656 -8.479 775.850 Q -3.595 776.044 -0.149 776.157 Q 3.298 776.270 6.885 776.282 Q 10.473 776.294 15.293 776.542 Q 20.113 776.789 22.959 777.036 Q 25.805 777.283 27.152 777.393 Q 28.499 777.502 31.787 777.719 Q 35.075 777.936 40.284 778.167 Q 45.492 778.397 48.375 778.464 Q 51.258 778.531 54.145 778.542 Q 57.032 778.553 59.298 778.519 Q 61.564 778.486 64.501 778.224 Q 67.437 777.963 70.607 777.282 Q 73.777 776.600 76.600 775.787 Q 79.422 774.974 81.022 774.372 Q 82.623 773.769 83.756 773.156 Q 84.888 772.543 86.445 771.524 Q 88.003 770.505 89.167 769.768 Q 90.331 769.031 92.039 768.059 Q 93.748 767.088 94.862 766.531 Q 95.975 765.974 97.018 765.565 Q 98.061 765.155 98.813 764.904 Q 99.564 764.653 101.066 764.200 Q 102.567 763.748 104.629 763.067 Q 106.690 762.387 107.684 761.997 Q 108.677 761.608 109.169 761.387 Q 109.660 761.165 110.473 760.764 Q 111.285 760.362 112.007 760.002 Q 112.729 759.642 113.856 759.302 Q 114.983 758.963 115.630 758.918 Q 116.276 758.873 116.643 758.924 Q 117.010 758.976 117.384 759.109 Q 117.758 759.243 118.420 759.737 Q 119.081 760.230 119.544 760.859 Q 120.007 761.488 120.409 762.615 Q 120.810 763.741 120.991 764.818 Q 121.172 765.896 121.362 769.896 Q 121.552 773.897 121.805 780.124 Q 122.058 786.350 122.170 789.401 Q 122.282 792.451 122.104 794.750 Q 121.926 797.048 121.588 798.816 Q 121.249 800.584 120.989 801.862 Q 120.729 803.141 120.289 805.270 Q 119.849 807.399 119.588 808.543 Q 119.327 809.687 118.179 813.645 Q 117.032 817.603 116.223 819.944 Q 115.414 822.285 114.502 824.372 Q 113.590 826.458 113.107 827.554 Q 112.624 828.650 111.838 831.128 Q 111.051 833.606 110.576 835.934 Q 110.100 838.262 109.779 840.777 Q 109.458 843.292 108.816 847.803 Q 108.175 852.314 107.841 854.487 Q 107.507 856.660 107.282 858.499 Q 107.058 860.339 106.661 862.632 Q 106.265 864.925 106.003 866.181 Q 105.742 867.437 105.215 869.701 Q 104.689 871.965 104.055 873.840 Q 103.421 875.715 102.880 876.897 Q 102.339 878.080 100.970 880.283 Q 99.601 882.486 98.256 884.305 Q 96.911 886.124 94.884 888.795 Q 92.858 891.467 91.284 894.015 Q 89.710 896.563 88.909 897.925 Q 88.107 899.287 87.629 900.077 Q 87.150 900.868 86.300 902.382 Q 85.450 903.897 84.766 905.081 Q 84.082 906.266 83.265 907.588 Q 82.448 908.909 81.564 910.345 Q 80.680 911.780 79.150 913.927 Q 77.620 916.073 76.600 917.486 Q 75.581 918.899 74.578 920.317 Q 73.575 921.734 72.511 923.089 Q 71.448 924.444 69.904 926.215 Q 68.360 927.986 66.448 929.867 Q 64.537 931.749 63.606 932.597 Q 62.674 933.446 61.430 934.499 Q 60.185 935.552 58.575 936.555 Q 56.964 937.559 54.882 938.360 Q 52.800 939.161 47.348 940.142 Q 41.897 941.123 38.987 941.493 Q 36.077 941.862 31.778 941.961 Q 27.479 942.059 25.268 941.952 Q 23.056 941.845 17.440 941.360 Q 11.823 940.876 8.208 940.423 Q 4.593 939.970 2.060 939.564 Q -0.472 939.157 -1.830 938.943 Q -3.188 938.728 -5.769 938.318 Q -8.349 937.908 -14.922 937.201 Q -21.495 936.493 -24.858 936.292 Q -28.221 936.091 -30.356 935.998 Q -32.491 935.906 -38.604 935.605 Q -44.717 935.304 -48.006 935.079 Q -51.295 934.854 -53.099 934.756 Q -54.903 934.658 -56.982 934.586 Q -59.062 934.514 -63.534 934.304 Q -68.006 934.094 -71.190 933.760 Q -74.373 933.426 -77.979 932.763 Q -81.584 932.101 -83.414 931.665 Q -85.243 931.229 -87.104 930.784 Q -88.966 930.339 -92.047 929.671 Q -95.128 929.004 -97.498 928.488 Q -99.868 927.972 -103.461 927.122 Q -107.055 926.271 -109.274 925.722 Q -111.492 925.172 -113.829 924.518 Q -116.166 923.865 -120.660 922.451 Q -125.154 921.037 -128.136 919.983 Q -131.118 918.928 -135.781 916.702 Q -140.443 914.475 -142.857 913.200 Q -145.270 911.925 -148.021 910.149 Q -150.771 908.372 -153.191 906.380 Q -155.612 904.389 -158.035 901.847 Q -160.459 899.305 -161.849 897.421 Q -163.238 895.537 -164.122 894.044 Q -165.006 892.552 -165.470 891.701 Q -165.934 890.849 -167.302 887.696 Q -168.671 884.544 -169.206 883.008 Q -169.741 881.471 -171.206 876.434 Q -172.670 871.397 -173.867 867.808 Q -175.064 864.220 -176.476 860.457 Q -177.888 856.694 -178.849 853.400 Q -179.810 850.106 -180.541 846.092 Q -181.272 842.078 -181.777 839.454 Q -182.282 836.830 -182.792 834.287 Q -183.303 831.744 -183.738 828.764 Q -184.173 825.783 -184.494 822.847 Q -184.814 819.910 -184.949 817.635 Q -185.083 815.359 -185.181 813.187 Q -185.279 811.015 -185.366 809.710 Q -185.452 808.405 -185.576 807.052 Q -185.700 805.700 -185.865 801.337 Q -186.031 796.973 -185.959 794.023 Q -185.886 791.072 -185.611 788.656 Q -185.336 786.240 -185.168 785.049 Q -185.001 783.858 -184.923 783.284 Q -184.845 782.710 -184.607 780.709 Q -184.369 778.708 -184.213 776.413 Q -184.057 774.117 -184.055 770.151 Q -184.053 766.186 -184.063 765.534 Q -184.073 764.882 -184.097 764.205 Q -184.121 763.528 -184.112 762.434 Q -184.103 761.339 -183.953 760.528 Q -183.802 759.718 -183.726 759.418 Q -183.650 759.118 -183.392 758.676 Q -183.134 758.234 -180.852 756.170 "></path>
    <path id="STROKE_4f5b9225-1cff-478a-ae4c-66ece959f4b2" opacity="1.000" fill="#6dc1b3" stroke="#6dc1b3" stroke-width="0.500" stroke-opacity="1.000" stroke-linecap="round" stroke-linejoin="round" d="M -161.881 752.426 Q -162.453 752.247 -162.826 752.120 Q -163.198 751.992 -164.187 751.555 Q -165.175 751.118 -165.581 750.940 Q -165.986 750.761 -166.300 750.630 Q -166.614 750.500 -167.940 749.839 Q -169.266 749.178 -170.216 748.567 Q -171.167 747.956 -171.832 747.383 Q -172.496 746.811 -172.925 746.315 Q -173.353 745.820 -173.773 745.119 Q -174.194 744.417 -174.439 743.655 Q -174.683 742.893 -174.713 742.403 Q -174.744 741.914 -174.687 741.549 Q -174.631 741.184 -174.516 740.890 Q -174.402 740.596 -173.576 739.703 Q -172.750 738.810 -170.706 737.836 Q -168.662 736.862 -166.279 736.408 Q -163.896 735.954 -161.969 735.839 Q -160.042 735.724 -155.551 735.710 Q -151.060 735.695 -145.538 736.243 Q -140.015 736.792 -137.359 737.241 Q -134.704 737.690 -133.326 737.962 Q -131.948 738.234 -128.165 738.964 Q -124.381 739.695 -121.598 740.196 Q -118.815 740.696 -115.773 741.303 Q -112.731 741.910 -108.784 742.476 Q -104.837 743.042 -101.507 743.310 Q -98.178 743.578 -93.482 743.681 Q -88.786 743.783 -84.580 743.629 Q -80.374 743.475 -75.381 743.041 Q -70.387 742.607 -67.777 742.379 Q -65.168 742.151 -62.800 741.985 Q -60.432 741.819 -56.304 741.670 Q -52.177 741.520 -49.831 741.518 Q -47.484 741.516 -46.379 741.521 Q -45.274 741.527 -42.234 741.690 Q -39.194 741.854 -33.368 742.606 Q -27.541 743.359 -24.595 743.738 Q -21.648 744.118 -19.908 744.323 Q -18.168 744.527 -12.850 745.256 Q -7.531 745.984 -2.756 746.352 Q 2.019 746.719 4.962 746.708 Q 7.905 746.696 9.407 746.624 Q 10.909 746.553 16.493 745.845 Q 22.077 745.138 26.610 744.663 Q 31.142 744.187 33.483 744.047 Q 35.823 743.906 38.696 743.853 Q 41.569 743.800 48.609 744.691 Q 55.649 745.582 59.116 746.079 Q 62.582 746.575 64.159 746.738 Q 65.736 746.901 69.821 746.880 Q 73.905 746.858 77.968 746.638 Q 82.031 746.417 84.246 746.375 Q 86.462 746.333 90.503 746.408 Q 94.545 746.484 97.924 746.451 Q 101.303 746.419 103.155 746.487 Q 105.007 746.556 106.215 746.760 Q 107.424 746.964 108.464 747.382 Q 109.505 747.799 110.130 748.214 Q 110.755 748.629 111.298 749.221 Q 111.841 749.813 112.292 750.707 Q 112.742 751.601 112.827 752.232 Q 112.911 752.864 112.824 753.419 Q 112.737 753.973 112.651 754.241 Q 112.566 754.509 111.758 755.778 Q 110.950 757.047 109.827 758.061 Q 108.703 759.075 106.937 760.089 Q 105.171 761.103 100.128 762.679 Q 95.084 764.255 90.688 765.319 Q 86.293 766.383 83.087 767.103 Q 79.881 767.822 75.487 768.820 Q 71.094 769.817 67.924 770.432 Q 64.754 771.048 59.477 771.616 Q 54.200 772.184 47.586 772.746 Q 40.971 773.308 37.857 773.585 Q 34.743 773.861 29.215 774.028 Q 23.688 774.195 18.021 774.443 Q 12.354 774.691 9.283 774.860 Q 6.212 775.029 4.784 775.080 Q 3.355 775.130 1.088 775.213 Q -1.179 775.295 -5.360 775.336 Q -9.541 775.377 -12.743 775.271 Q -15.945 775.164 -17.394 775.069 Q -18.842 774.973 -21.074 774.872 Q -23.306 774.772 -29.105 774.062 Q -34.905 773.352 -37.908 772.860 Q -40.912 772.369 -44.229 771.928 Q -47.545 771.487 -52.204 770.771 Q -56.863 770.054 -60.887 769.399 Q -64.911 768.744 -70.733 767.747 Q -76.554 766.751 -83.599 765.267 Q -90.644 763.783 -94.104 763.061 Q -97.563 762.339 -99.635 761.883 Q -101.706 761.427 -105.207 760.563 Q -108.708 759.699 -110.925 759.240 Q -113.142 758.781 -116.472 758.036 Q -119.801 757.292 -121.829 756.758 Q -123.857 756.224 -124.979 755.866 Q -126.102 755.508 -131.519 754.138 Q -136.937 752.769 -139.864 752.083 Q -142.792 751.397 -144.700 750.845 Q -146.609 750.293 -148.123 749.878 Q -149.638 749.462 -150.425 749.251 Q -151.212 749.039 -154.065 748.726 Q -156.918 748.413 -159.804 748.547 Q -162.690 748.682 -170.846 750.007 "></path>
    <path id="STROKE_4e73a382-8e31-4c9c-9e65-adbefe9e33f9" opacity="1.000" fill="#ffffff" stroke="#ffffff" stroke-width="0.500" stroke-opacity="1.000" stroke-linecap="round" stroke-linejoin="round" d="M -175.210 738.391 Q -175.379 737.960 -175.440 737.789 Q -175.501 737.617 -175.561 737.300 Q -175.620 736.982 -175.656 736.301 Q -175.693 735.621 -175.674 735.206 Q -175.655 734.792 -175.647 734.426 Q -175.640 734.060 -175.204 732.786 Q -174.769 731.513 -174.336 730.793 Q -173.903 730.073 -172.867 729.000 Q -171.832 727.928 -171.050 727.371 Q -170.268 726.815 -168.186 725.752 Q -166.105 724.688 -158.838 722.940 Q -151.571 721.191 -146.976 720.403 Q -142.380 719.614 -135.268 718.847 Q -128.155 718.079 -121.046 717.618 Q -113.938 717.157 -110.348 717.032 Q -106.759 716.907 -105.197 716.884 Q -103.635 716.861 -94.755 716.857 Q -85.875 716.853 -80.960 716.829 Q -76.046 716.804 -68.949 717.002 Q -61.852 717.201 -57.413 717.515 Q -52.974 717.830 -50.067 718.069 Q -47.159 718.308 -44.954 718.465 Q -42.748 718.621 -38.492 718.829 Q -34.236 719.037 -28.219 719.608 Q -22.202 720.179 -19.215 720.610 Q -16.229 721.040 -12.959 721.607 Q -9.690 722.174 -1.698 723.276 Q 6.293 724.378 20.230 726.220 Q 34.167 728.062 41.105 728.904 Q 48.043 729.746 51.064 730.129 Q 54.085 730.512 57.167 731.052 Q 60.248 731.592 64.487 732.513 Q 68.726 733.434 71.071 733.918 Q 73.416 734.401 75.989 734.858 Q 78.562 735.314 82.758 736.277 Q 86.953 737.241 89.292 737.878 Q 91.630 738.516 93.503 739.100 Q 95.377 739.684 97.812 740.528 Q 100.248 741.373 103.050 742.530 Q 105.851 743.687 107.006 744.434 Q 108.161 745.181 108.590 745.602 Q 109.018 746.023 109.284 746.465 Q 109.550 746.907 109.653 747.429 Q 109.755 747.952 109.712 748.266 Q 109.669 748.581 109.477 748.963 Q 109.285 749.345 108.720 749.863 Q 108.155 750.380 106.928 750.882 Q 105.701 751.385 103.006 751.277 Q 100.311 751.169 98.790 750.851 Q 97.268 750.532 94.272 749.958 Q 91.277 749.384 87.800 749.032 Q 84.324 748.680 80.189 748.269 Q 76.055 747.857 72.112 747.404 Q 68.170 746.950 65.148 746.572 Q 62.125 746.193 58.616 745.746 Q 55.106 745.299 50.734 744.899 Q 46.361 744.500 42.878 744.509 Q 39.394 744.517 37.718 744.667 Q 36.043 744.817 34.100 745.232 Q 32.157 745.646 30.991 746.000 Q 29.825 746.353 29.026 746.619 Q 28.226 746.885 26.445 747.377 Q 24.664 747.868 19.558 748.277 Q 14.452 748.685 11.144 748.836 Q 7.835 748.986 6.354 749.111 Q 4.873 749.235 -1.205 749.663 Q -7.284 750.092 -11.734 750.309 Q -16.183 750.527 -20.906 750.712 Q -25.630 750.898 -28.057 750.982 Q -30.484 751.066 -32.607 751.044 Q -34.731 751.023 -37.558 750.887 Q -40.385 750.751 -43.665 750.455 Q -46.945 750.160 -50.052 749.667 Q -53.160 749.175 -54.988 748.801 Q -56.815 748.428 -59.826 747.851 Q -62.838 747.273 -67.733 746.735 Q -72.628 746.198 -75.619 745.970 Q -78.609 745.742 -80.895 745.608 Q -83.182 745.474 -87.771 745.341 Q -92.360 745.209 -94.516 745.229 Q -96.672 745.250 -97.989 745.302 Q -99.306 745.355 -102.433 745.556 Q -105.560 745.757 -107.537 745.876 Q -109.515 745.996 -113.946 745.814 Q -118.378 745.632 -122.438 745.258 Q -126.498 744.884 -130.256 744.484 Q -134.014 744.085 -138.037 743.660 Q -142.060 743.236 -146.727 742.678 Q -151.393 742.121 -153.766 741.764 Q -156.138 741.406 -158.346 740.986 Q -160.555 740.566 -161.861 740.339 Q -163.167 740.112 -165.110 739.820 Q -167.053 739.527 -168.355 739.286 Q -169.656 739.045 -169.856 739.007 Q -170.055 738.970 -170.444 738.864 Q -170.832 738.758 -171.074 738.666 Q -171.317 738.574 -171.700 738.369 Q -172.083 738.163 -172.384 737.972 Q -172.685 737.780 -173.259 737.585 "></path>
  </g>
  <g id="Pen" opacity="1.000">
    <path id="STROKE_1c0915c9-718a-4d43-ae50-6d80e23d3ff9" opacity="1.000" fill="none" stroke="#171612" stroke-width="20.400" stroke-opacity="1.000" stroke-linecap="round" stroke-linejoin="round" d="M -177.538 749.394 L -177.250 749.374 Q -173.528 750.142 -171.726 750.663 Q -169.924 751.184 -163.679 752.820 Q -157.435 754.456 -145.541 757.078 Q -133.646 759.700 -125.297 761.287 Q -116.947 762.875 -98.568 766.194 Q -80.190 769.514 -65.582 771.761 Q -50.975 774.009 -33.712 775.082 Q -16.450 776.154 -15.330 776.228 Q -14.210 776.302 -2.729 776.966 Q 8.753 777.631 14.221 777.880 Q 19.689 778.129 26.178 777.956 Q 32.668 777.783 37.392 777.283 Q 42.115 776.784 46.705 776.204 Q 51.295 775.624 58.095 774.565 Q 64.896 773.507 68.576 772.831 Q 72.256 772.155 77.392 770.896 Q 82.527 769.637 85.211 768.830 Q 87.895 768.022 91.733 766.663 Q 95.571 765.304 101.681 762.450 Q 107.791 759.596 109.789 758.106 Q 111.787 756.615 113.108 754.854 Q 114.429 753.094 114.855 750.723 L 114.665 749.236 Q 113.203 746.479 112.074 745.390 Q 110.945 744.300 107.344 742.569 Q 103.743 740.838 100.692 740.059 Q 97.642 739.280 93.339 738.493 Q 89.036 737.705 82.197 736.563 Q 75.358 735.422 73.238 735.053 Q 71.118 734.685 64.057 733.509 Q 56.996 732.332 52.429 731.603 Q 47.861 730.874 43.261 730.070 Q 38.661 729.266 32.993 728.211 Q 27.324 727.156 27.054 727.096 Q 26.783 727.036 19.158 725.862 Q 11.534 724.688 4.447 723.788 Q -2.639 722.888 -16.980 720.719 Q -31.320 718.550 -40.466 717.374 Q -49.611 716.197 -54.176 715.755 Q -58.740 715.313 -70.287 714.759 Q -81.835 714.205 -95.326 715.066 Q -108.817 715.926 -116.324 716.389 Q -123.831 716.852 -131.122 717.068 Q -138.414 717.284 -141.809 717.554 Q -145.204 717.824 -148.610 718.328 Q -152.015 718.831 -155.846 719.739 Q -159.678 720.647 -163.389 722.008 Q -167.100 723.369 -168.971 724.334 Q -170.841 725.299 -172.242 726.208 Q -173.643 727.117 -175.911 729.102 Q -178.178 731.088 -179.289 732.602 Q -180.399 734.116 -180.737 734.852 Q -181.075 735.588 -181.426 737.218 Q -181.360 738.740 -181.155 739.215 Q -180.950 739.691 -180.444 740.317 Q -179.939 740.944 -179.188 741.341 Q -178.438 741.738 -173.054 742.826 "></path>
    <path id="STROKE_fde57933-b109-4146-950d-775a16a52f6d" opacity="1.000" fill="none" stroke="#171612" stroke-width="20.400" stroke-opacity="1.000" stroke-linecap="round" stroke-linejoin="round" d="M -175.020 751.651 Q -178.848 751.264 -179.946 751.385 Q -181.044 751.505 -182.298 752.079 Q -183.343 753.068 -185.437 760.411 Q -187.531 767.753 -187.468 777.814 Q -187.405 787.874 -185.937 797.758 Q -184.470 807.643 -183.255 813.904 Q -182.040 820.164 -181.446 823.190 Q -180.851 826.216 -179.921 831.340 Q -178.991 836.465 -177.396 843.961 Q -175.800 851.456 -174.843 855.336 Q -173.886 859.216 -173.245 861.976 Q -172.603 864.737 -171.240 870.531 Q -169.876 876.325 -168.946 879.415 Q -168.017 882.504 -166.595 885.830 Q -165.173 889.155 -163.799 891.383 Q -162.426 893.611 -161.217 895.189 Q -160.009 896.767 -157.008 899.895 Q -154.008 903.022 -153.723 903.305 Q -153.438 903.587 -149.051 907.222 Q -144.664 910.857 -137.941 915.606 Q -131.219 920.355 -128.937 921.563 Q -126.656 922.771 -125.078 923.517 Q -123.501 924.263 -114.862 926.718 Q -106.223 929.174 -99.840 930.339 Q -93.457 931.505 -89.149 932.257 Q -84.841 933.010 -76.842 933.760 Q -68.844 934.509 -55.734 934.714 Q -42.625 934.919 -34.148 935.238 Q -25.671 935.556 -16.292 936.317 Q -6.912 937.078 0.478 938.752 Q 7.868 940.426 11.649 941.341 Q 15.431 942.255 22.618 943.045 Q 29.805 943.836 34.153 943.694 Q 38.501 943.553 40.471 943.286 Q 42.442 943.019 46.503 941.950 Q 50.565 940.881 55.760 938.584 Q 60.956 936.287 63.367 934.843 Q 65.778 933.400 68.380 931.484 Q 70.982 929.568 72.658 928.130 Q 74.334 926.693 76.675 924.342 Q 79.016 921.992 82.856 916.774 Q 86.697 911.557 90.626 904.725 Q 94.555 897.894 97.193 892.510 Q 99.831 887.126 101.749 882.695 Q 103.667 878.264 105.227 874.136 Q 106.787 870.009 109.072 863.383 Q 111.357 856.758 113.369 850.572 Q 115.380 844.385 116.356 840.943 Q 117.332 837.500 118.737 832.175 Q 120.143 826.849 121.511 819.394 Q 122.879 811.938 123.372 801.977 Q 123.865 792.015 123.713 788.354 Q 123.562 784.694 123.025 776.696 Q 122.489 768.699 122.093 765.956 Q 121.697 763.213 115.964 752.389 Q 115.487 752.038 108.691 750.068 "></path>
    <path id="STROKE_a84fc70a-612d-4400-a286-79c1c77670fa" opacity="1.000" fill="none" stroke="#171612" stroke-width="20.400" stroke-opacity="1.000" stroke-linecap="round" stroke-linejoin="round" d="M 120.996 832.505 L 121.434 831.876 Q 121.931 830.963 123.699 826.836 Q 125.467 822.709 126.619 820.673 Q 127.771 818.637 131.159 815.066 Q 134.548 811.496 138.721 809.133 Q 142.894 806.770 147.528 805.662 Q 152.161 804.554 157.200 804.877 Q 162.238 805.201 164.590 805.833 Q 166.942 806.465 170.675 808.374 Q 174.409 810.283 177.984 814.251 Q 181.559 818.219 183.160 820.867 Q 184.761 823.516 186.167 826.534 Q 187.573 829.552 188.859 833.822 Q 190.146 838.091 190.426 844.218 Q 190.705 850.345 190.316 853.776 Q 189.927 857.206 188.818 860.718 Q 187.709 864.230 186.834 866.094 Q 185.960 867.958 185.414 868.955 Q 184.869 869.951 182.157 874.019 Q 179.445 878.086 173.779 883.290 Q 168.114 888.494 165.034 890.609 Q 161.954 892.724 157.765 894.849 Q 153.575 896.974 148.923 898.287 Q 144.271 899.601 140.559 899.895 Q 136.847 900.189 134.022 899.748 Q 131.197 899.308 129.741 898.827 Q 128.285 898.345 126.954 897.796 Q 125.624 897.247 123.273 895.919 Q 120.922 894.591 119.304 893.197 Q 117.686 891.804 116.515 890.014 Q 115.344 888.224 114.338 885.845 Q 113.332 883.466 112.414 880.514 Q 111.497 877.561 111.190 876.218 Q 110.882 874.876 110.500 872.684 "></path>
    <path id="STROKE_186e40b5-de69-49c7-bc33-06addebf9de0" opacity="1.000" fill="none" stroke="#171612" stroke-width="20.400" stroke-opacity="1.000" stroke-linecap="round" stroke-linejoin="round" d="M -60.713 576.844 Q -62.104 578.776 -63.821 581.621 Q -65.537 584.467 -66.420 586.637 Q -67.304 588.808 -67.947 592.477 Q -68.589 596.147 -68.625 598.249 Q -68.661 600.352 -67.295 606.110 Q -65.929 611.868 -63.533 618.105 Q -61.137 624.343 -59.985 627.471 Q -58.832 630.599 -57.844 633.774 Q -56.857 636.948 -55.941 641.166 Q -55.025 645.383 -54.708 650.215 Q -54.391 655.047 -54.667 657.495 Q -54.944 659.942 -56.399 663.260 Q -57.855 666.578 -59.841 668.909 Q -61.828 671.241 -68.137 676.680 "></path>
    <path id="STROKE_975b62b8-e5e2-4d47-8674-920506ab4c4f" opacity="1.000" fill="none" stroke="#171612" stroke-width="20.400" stroke-opacity="1.000" stroke-linecap="round" stroke-linejoin="round" d="M 28.121 588.351 L 27.543 588.551 Q 27.293 588.739 26.460 589.953 Q 25.626 591.168 24.358 595.782 Q 23.091 600.397 22.725 603.993 Q 22.359 607.588 22.296 609.895 Q 22.234 612.202 23.931 620.960 Q 25.629 629.718 27.014 634.293 Q 28.399 638.867 30.027 644.375 Q 31.655 649.884 32.551 654.661 Q 33.447 659.439 33.641 664.675 Q 33.834 669.911 33.196 673.197 Q 32.557 676.482 31.906 677.736 Q 31.255 678.990 26.974 683.091 "></path>
  </g>
</svg>