<?xml version="1.0" encoding="utf-8"?>
<svg viewBox="0 0 1024 1024" xmlns="http://www.w3.org/2000/svg" xmlns:xlink="http://www.w3.org/1999/xlink">
  <!--Generated by AMDN-->
  <g id="design">
    <path id="Path" style="fill:none;opacity:1;stroke:#000000;stroke-linecap:round;stroke-linejoin:miter;stroke-miterlimit:10;stroke-opacity:1;stroke-width:50;" d="M758.283,709.72 C770.966,614.59,901.542,563.126,926.116,665.954 C941.714,731.225,892.576,830.358,820.293,832.475 C802.422,832.998,794.081,825.192,779.27,817.324 C716.967,784.228,746.515,756.773,758.283,709.72 z"/>
    <path id="Path-1" style="fill:#ff1c24;fill-opacity:1;fill-rule:nonzero;opacity:1;stroke:#000000;stroke-linecap:round;stroke-linejoin:miter;stroke-miterlimit:10;stroke-opacity:1;stroke-width:50;" d="M761.325,491.622 C642.455,557.709,638.689,535.447,496.707,542.641 C479.297,543.523,391.779,539.566,333.895,527.353 C265.664,512.957,119.492,469.359,117.879,470.029 C111.673,472.603,100.62,512.489,99.3552,548.706 C96.9101,618.72,124.642,761.595,157.713,822.263 C170.819,846.307,190.396,856.435,213.257,868.249 C284.15,904.887,332.544,917.185,414.034,910.247 C479.3,904.691,570.536,939.029,630.516,919.926 C690.37,900.863,711.247,822.586,732.234,763.965 C746.697,723.564,768.996,637.9,775.098,591.273 C777.194,575.262,777.147,538.748,773.849,522.9 C769.904,503.95,774.868,517.264,761.325,491.622 z"/>
    <path id="Path-2" style="fill:#feffff;fill-opacity:1;fill-rule:nonzero;opacity:1;stroke:none;" d="M141.528,471.759 C133.477,468.539,129.982,466.451,130.602,457.156 C133.239,417.603,196.787,416.248,229.012,414.918 C342.501,410.234,508.021,406.326,618.048,432.348 C635.844,436.557,756.933,455.274,752.632,478.212 C750.313,490.578,627.669,486.434,604.661,484.683 C447.549,472.726,295.75,515.769,141.528,471.759 z"/>
    <path id="Path-3" style="fill:#00fba4;fill-opacity:1;fill-rule:nonzero;opacity:1;stroke:none;" d="M119.327,468.683 C128.346,458.577,166.755,466.602,202.579,474.534 C299.706,496.041,410.597,494.788,507.141,484.94 C569.933,478.536,638.27,476.992,701.395,480.084 C709.178,480.465,758.057,476.79,756.147,486.672 C751.225,512.149,626.775,534.663,603.155,536.161 C478.357,544.073,343.592,545.043,222.567,510.725 C194.215,502.685,135.927,491.013,119.327,468.683 z"/>
    <path id="Path-4" style="fill:none;opacity:1;stroke:#000000;stroke-linecap:round;stroke-linejoin:miter;stroke-miterlimit:10;stroke-opacity:1;stroke-width:50;" d="M133.798,477.524 C104.664,422.898,207.035,413.728,241.339,411.162 C369.564,401.572,504.437,422.532,630.84,442.749 C653.412,446.359,772.185,470.383,770.673,493.481 C769.255,515.136,633.468,546.169,609.761,546.206 C540.257,546.315,467.633,549.924,398.447,543.965 C368.332,541.372,167.749,499.187,148.292,487.382 C140.669,482.757,140.526,483.641,133.798,477.524 z"/>
    <path id="Path-5" style="fill:none;opacity:1;stroke:#9e9e9e;stroke-linecap:round;stroke-linejoin:miter;stroke-miterlimit:10;stroke-opacity:1;stroke-width:50;" d="M359.369,82.5578 C320.367,173.561,397.659,230.266,364.432,305.932 C356.333,324.376,341.132,336.799,330.231,353.125"/>
    <path id="Path-6" style="fill:none;opacity:1;stroke:#9e9e9e;stroke-linecap:round;stroke-linejoin:miter;stroke-miterlimit:10;stroke-opacity:1;stroke-width:50;" d="M554.317,76.3139 C504.576,142.635,565.742,227.878,551.411,300.048 C547.842,318.02,537.161,333.153,528.648,348.963"/>
  </g>
</svg>
