<?xml version="1.0" encoding="UTF-8" standalone="yes"?>
<svg xmlns="http://www.w3.org/2000/svg" xmlns:xlink="http://www.w3.org/1999/xlink" width="1080.000px" height="1080.000px" version="1.1" viewBox="-270.000 498.000 540.000 540.000">
  <!--
	Exported with Concepts: Smarter Sketching
	Version: 4569 on iOS 26.2
	https://concepts.app/
	-->
  <title>6C8A2BC8-69CC-4743-8122-821CBB72E639</title>
  <desc>Drawing exported from Concepts: Smarter Sketching</desc>
  <defs></defs>
  <g id="New_Layer_1" opacity="1.000">
    <path id="STROKE_5fbc8c93-d949-4371-92a5-3066302d3628" opacity="1.000" fill="#ffe15c" stroke="#ffe15c" stroke-width="0.500" stroke-opacity="1.000" stroke-linecap="round" stroke-linejoin="round" d="M -78.451 469.502 Q -78.702 469.459 -79.546 469.198 Q -80.389 468.938 -82.446 468.466 Q -84.503 467.994 -86.068 467.798 Q -87.632 467.602 -88.752 467.521 Q -89.873 467.441 -91.287 467.408 Q -92.701 467.376 -98.897 467.576 Q -105.094 467.776 -108.935 467.868 Q -112.776 467.960 -124.928 468.088 Q -137.081 468.216 -143.226 468.276 Q -149.371 468.337 -152.598 468.413 Q -155.826 468.489 -168.913 469.024 Q -182.000 469.559 -188.844 469.859 Q -195.687 470.160 -199.199 470.306 Q -202.711 470.451 -208.560 470.706 Q -214.409 470.960 -231.223 471.833 Q -248.038 472.707 -256.669 473.161 Q -265.300 473.616 -270.529 473.865 Q -275.758 474.114 -278.279 474.212 Q -280.800 474.310 -291.325 474.923 Q -301.851 475.537 -307.308 475.969 Q -312.765 476.401 -315.850 476.981 Q -318.934 477.560 -321.006 478.370 Q -323.077 479.181 -324.540 480.158 Q -326.002 481.135 -327.512 482.838 Q -329.021 484.541 -330.324 488.526 Q -331.626 492.510 -331.878 497.743 Q -332.129 502.976 -331.803 513.827 Q -331.477 524.679 -331.416 530.360 Q -331.355 536.041 -331.356 538.382 Q -331.357 540.723 -331.350 546.908 Q -331.344 553.093 -331.316 557.150 Q -331.289 561.207 -331.634 572.372 Q -331.978 583.536 -332.284 589.347 Q -332.589 595.157 -333.288 610.117 Q -333.988 625.076 -334.270 638.795 Q -334.553 652.514 -334.557 660.535 Q -334.562 668.555 -334.566 672.322 Q -334.569 676.089 -334.570 678.068 Q -334.570 680.047 -334.589 683.163 Q -334.607 686.280 -334.495 697.771 Q -334.383 709.262 -333.978 728.989 Q -333.574 748.716 -333.532 758.484 Q -333.490 768.252 -333.480 772.682 Q -333.471 777.113 -333.442 780.227 Q -333.413 783.341 -333.372 785.385 Q -333.331 787.429 -333.141 796.911 Q -332.950 806.392 -332.911 811.881 Q -332.872 817.371 -332.865 825.281 Q -332.858 833.191 -332.845 837.109 Q -332.831 841.028 -332.854 852.881 Q -332.877 864.734 -332.926 870.856 Q -332.976 876.977 -333.057 880.963 Q -333.139 884.948 -333.237 889.784 Q -333.335 894.621 -333.913 912.649 Q -334.491 930.677 -334.883 940.452 Q -335.276 950.226 -335.470 957.397 Q -335.663 964.567 -335.817 971.295 Q -335.971 978.023 -336.158 983.329 Q -336.346 988.636 -336.529 992.956 Q -336.712 997.276 -337.225 1005.530 Q -337.737 1013.785 -338.157 1020.973 Q -338.577 1028.161 -338.437 1031.638 Q -338.297 1035.114 -337.882 1037.255 Q -337.468 1039.396 -336.725 1041.055 Q -335.983 1042.714 -335.105 1043.835 Q -334.227 1044.957 -333.468 1045.656 Q -332.709 1046.355 -330.492 1047.539 Q -328.274 1048.722 -321.704 1049.497 Q -315.134 1050.272 -310.717 1050.294 Q -306.300 1050.316 -302.342 1050.281 Q -298.383 1050.247 -288.279 1050.125 Q -278.176 1050.003 -272.071 1050.126 Q -265.966 1050.250 -258.543 1050.679 Q -251.121 1051.108 -229.971 1051.597 Q -208.822 1052.085 -198.026 1052.263 Q -187.231 1052.441 -182.359 1052.612 Q -177.488 1052.784 -174.015 1052.965 Q -170.542 1053.146 -162.326 1053.567 Q -154.110 1053.987 -148.546 1054.172 Q -142.981 1054.356 -127.837 1054.783 Q -112.692 1055.211 -104.962 1055.429 Q -97.232 1055.648 -93.834 1055.746 Q -90.437 1055.845 -81.478 1056.195 Q -72.520 1056.544 -62.782 1057.002 Q -53.044 1057.460 -48.698 1057.659 Q -44.352 1057.858 -27.568 1058.564 Q -10.784 1059.270 0.116 1059.740 Q 11.016 1060.209 18.402 1060.554 Q 25.788 1060.899 35.524 1061.384 Q 45.261 1061.869 55.528 1062.391 Q 65.795 1062.913 72.519 1063.269 Q 79.244 1063.625 84.799 1063.929 Q 90.354 1064.234 99.237 1064.745 Q 108.119 1065.256 119.554 1065.989 Q 130.988 1066.721 144.359 1067.584 Q 157.731 1068.448 172.383 1069.264 Q 187.035 1070.080 194.055 1070.437 Q 201.076 1070.793 204.301 1070.948 Q 207.526 1071.103 208.952 1071.168 Q 210.378 1071.234 216.192 1071.500 Q 222.006 1071.767 233.017 1072.214 Q 244.027 1072.662 254.816 1073.143 Q 265.604 1073.624 275.217 1074.120 Q 284.830 1074.616 289.326 1074.853 Q 293.823 1075.091 306.017 1075.894 Q 318.212 1076.697 326.431 1077.317 Q 334.650 1077.938 338.877 1078.300 Q 343.104 1078.662 345.038 1078.849 Q 346.972 1079.036 354.808 1079.704 Q 362.643 1080.372 367.617 1080.485 Q 372.591 1080.599 375.126 1080.325 Q 377.661 1080.052 379.174 1079.622 Q 380.687 1079.191 381.776 1078.572 Q 382.865 1077.952 383.897 1076.918 Q 384.930 1075.884 385.653 1073.608 Q 386.377 1071.332 386.160 1068.224 Q 385.943 1065.117 383.940 1058.536 Q 381.938 1051.956 380.576 1047.705 Q 379.215 1043.454 378.001 1039.426 Q 376.788 1035.397 376.073 1032.934 Q 375.358 1030.470 373.465 1022.839 Q 371.572 1015.207 370.419 1008.720 Q 369.265 1002.233 368.680 998.070 Q 368.094 993.907 367.610 990.318 Q 367.126 986.729 366.043 974.995 Q 364.960 963.260 364.489 956.761 Q 364.018 950.261 363.724 945.989 Q 363.431 941.717 363.204 938.140 Q 362.978 934.562 362.369 922.977 Q 361.759 911.392 361.381 904.882 Q 361.003 898.372 360.608 890.514 Q 360.214 882.657 360.068 878.003 Q 359.923 873.349 359.775 860.323 Q 359.627 847.297 359.599 838.686 Q 359.572 830.075 359.558 825.983 Q 359.544 821.890 359.510 819.406 Q 359.476 816.923 359.926 798.181 Q 360.377 779.440 360.753 769.641 Q 361.129 759.842 361.265 755.272 Q 361.401 750.703 361.480 748.427 Q 361.559 746.151 361.723 741.508 Q 361.887 736.865 361.981 734.260 Q 362.076 731.656 362.360 725.042 Q 362.645 718.427 363.038 708.692 Q 363.432 698.956 363.613 693.553 Q 363.794 688.149 363.882 685.620 Q 363.970 683.090 364.198 668.015 Q 364.426 652.940 364.458 645.144 Q 364.491 637.347 364.500 633.755 Q 364.510 630.163 364.454 621.924 Q 364.398 613.685 364.161 606.997 Q 363.923 600.309 363.724 596.133 Q 363.525 591.957 363.033 583.816 Q 362.541 575.674 362.183 570.635 Q 361.826 565.595 361.635 563.006 Q 361.445 560.418 359.901 547.399 Q 358.358 534.380 357.129 526.316 Q 355.900 518.252 355.205 513.140 Q 354.510 508.028 354.133 504.716 Q 353.757 501.403 353.189 495.818 Q 352.621 490.233 351.944 487.053 Q 351.267 483.873 350.668 482.314 Q 350.068 480.755 349.348 479.512 Q 348.627 478.268 346.677 476.312 Q 344.726 474.357 339.618 471.639 Q 334.510 468.922 330.550 467.567 Q 326.590 466.212 323.531 465.577 Q 320.472 464.942 316.743 464.558 Q 313.014 464.175 301.268 463.903 Q 289.522 463.632 283.415 463.474 Q 277.308 463.317 265.543 462.583 Q 253.778 461.849 245.812 461.290 Q 237.846 460.731 234.192 460.512 Q 230.538 460.293 225.421 460.039 Q 220.304 459.786 217.273 459.661 Q 214.242 459.537 208.870 459.285 Q 203.498 459.034 182.630 458.818 Q 161.762 458.603 151.149 458.602 Q 140.537 458.602 135.161 458.631 Q 129.785 458.660 116.984 459.245 Q 104.183 459.831 97.601 460.234 Q 91.020 460.637 83.908 461.245 Q 76.796 461.853 73.082 462.201 Q 69.369 462.549 59.580 463.588 Q 49.791 464.628 39.022 465.871 Q 28.254 467.114 22.346 467.784 Q 16.437 468.454 6.527 469.556 "></path>
  </g>
  <g id="fills" opacity="1.000">
    <path id="STROKE_cd397093-3609-41f4-b66b-603fafeb2be6" opacity="1.000" fill="#ff0000" stroke="#ff0000" stroke-width="0.500" stroke-opacity="1.000" stroke-linecap="round" stroke-linejoin="round" d="M 21.462 664.611 Q 21.231 664.601 20.086 664.239 Q 19.618 664.221 17.262 664.866 Q 14.906 665.510 11.878 666.557 Q 8.850 667.605 6.886 668.156 Q 4.922 668.708 2.350 669.366 Q -0.221 670.025 -3.433 670.593 Q -6.644 671.161 -9.093 671.549 Q -11.542 671.936 -12.606 672.153 Q -13.669 672.371 -15.731 672.738 Q -17.793 673.106 -21.268 673.761 Q -24.743 674.417 -28.007 674.758 Q -31.270 675.099 -35.040 675.167 Q -38.810 675.235 -42.412 675.160 Q -46.014 675.084 -51.766 674.747 Q -57.519 674.409 -60.425 674.149 Q -63.331 673.889 -64.839 673.757 Q -66.347 673.625 -68.377 673.341 Q -70.408 673.058 -72.826 672.642 Q -75.244 672.226 -77.474 671.651 Q -79.705 671.077 -81.945 670.493 Q -84.185 669.909 -87.089 669.307 Q -89.992 668.706 -91.493 668.443 Q -92.994 668.179 -94.811 667.791 Q -96.627 667.403 -97.361 667.292 Q -98.095 667.181 -99.124 667.122 Q -100.153 667.064 -100.841 667.088 Q -101.528 667.113 -103.808 667.801 Q -104.159 668.218 -104.214 668.246 Q -104.270 668.274 -104.842 670.157 Q -105.413 672.041 -105.168 675.930 Q -104.923 679.818 -104.558 682.640 Q -104.193 685.461 -103.993 686.934 Q -103.792 688.407 -103.696 689.327 Q -103.600 690.246 -103.059 693.657 Q -102.519 697.068 -102.339 698.203 Q -102.160 699.338 -102.023 700.077 Q -101.885 700.816 -101.443 702.459 Q -101.001 704.102 -100.510 705.946 Q -100.018 707.790 -99.804 708.610 Q -99.590 709.429 -99.429 710.085 Q -99.269 710.740 -98.986 711.858 Q -98.703 712.976 -98.422 714.046 Q -98.142 715.116 -97.731 716.721 Q -97.320 718.325 -96.914 719.677 Q -96.507 721.029 -96.433 721.239 Q -96.358 721.450 -95.953 722.601 Q -95.547 723.752 -95.193 724.654 Q -94.839 725.556 -94.620 726.052 Q -94.401 726.548 -93.611 727.791 Q -92.821 729.033 -92.572 729.319 Q -92.322 729.605 -91.925 729.954 Q -91.528 730.303 -90.127 731.295 Q -88.725 732.287 -88.231 732.596 Q -87.736 732.905 -87.124 733.283 Q -86.511 733.660 -85.860 734.094 Q -85.208 734.528 -84.489 734.956 Q -83.769 735.384 -81.662 736.411 Q -79.555 737.437 -78.398 737.955 Q -77.240 738.472 -76.444 738.873 Q -75.648 739.274 -73.404 740.002 Q -71.161 740.729 -69.972 741.004 Q -68.784 741.278 -67.860 741.446 Q -66.936 741.615 -66.127 741.760 Q -65.318 741.904 -62.721 742.276 Q -60.123 742.647 -58.004 742.950 Q -55.884 743.253 -52.781 743.455 Q -49.678 743.657 -48.077 743.687 Q -46.476 743.718 -45.644 743.730 Q -44.811 743.742 -41.353 743.761 Q -37.895 743.781 -35.920 743.802 Q -33.946 743.824 -29.831 743.895 Q -25.717 743.965 -24.203 744.033 Q -22.690 744.101 -20.753 744.292 Q -18.815 744.483 -16.685 744.707 Q -14.554 744.932 -11.945 745.185 Q -9.336 745.437 -8.853 745.453 Q -8.370 745.469 -4.908 745.367 Q -1.446 745.266 -0.926 745.195 Q -0.407 745.124 -0.274 745.091 Q -0.142 745.059 1.096 744.754 Q 2.334 744.450 3.411 743.982 Q 4.487 743.513 4.947 743.236 Q 5.406 742.959 6.108 742.389 Q 6.809 741.820 7.376 741.202 Q 7.943 740.584 8.932 739.122 Q 9.922 737.660 10.602 736.473 Q 11.283 735.285 12.569 732.932 Q 13.855 730.579 14.877 728.554 Q 15.900 726.529 16.326 725.618 Q 16.752 724.708 17.291 723.588 Q 17.831 722.468 18.376 721.098 Q 18.921 719.728 19.532 718.105 Q 20.143 716.482 20.872 713.681 Q 21.600 710.880 21.896 709.341 Q 22.191 707.802 22.293 707.196 Q 22.395 706.589 22.721 704.576 Q 23.048 702.564 23.176 701.726 Q 23.303 700.888 23.577 698.611 Q 23.851 696.333 23.947 695.110 Q 24.043 693.887 24.167 690.256 Q 24.292 686.626 24.246 684.514 Q 24.200 682.403 23.883 679.394 Q 23.567 676.386 23.307 672.285 "></path>
    <path id="STROKE_c36be7dc-5235-466c-9a01-13f86f34fb90" opacity="1.000" fill="#6dc1b3" stroke="#6dc1b3" stroke-width="0.500" stroke-opacity="1.000" stroke-linecap="round" stroke-linejoin="round" d="M -103.778 661.391 Q -103.719 661.398 -103.355 661.250 L -103.036 661.222 Q -102.806 661.229 -98.568 660.991 Q -94.330 660.752 -91.854 660.612 Q -89.377 660.471 -87.534 660.330 Q -85.691 660.189 -84.816 660.124 Q -83.942 660.058 -82.133 660.007 Q -80.324 659.955 -72.615 659.925 Q -64.906 659.895 -63.916 659.864 Q -62.926 659.833 -58.351 659.806 Q -53.775 659.779 -51.420 659.813 Q -49.065 659.846 -46.680 659.932 Q -44.294 660.017 -40.856 660.049 Q -37.418 660.081 -35.043 660.070 Q -32.667 660.060 -28.504 660.082 Q -24.341 660.104 -21.506 660.191 Q -18.670 660.278 -17.045 660.312 Q -15.419 660.347 -14.484 660.353 Q -13.549 660.360 -10.508 660.440 Q -7.468 660.520 -6.008 660.578 Q -4.548 660.636 -2.800 660.677 Q -1.052 660.718 0.613 660.740 Q 2.279 660.761 5.455 660.802 Q 8.631 660.843 10.283 660.855 Q 11.936 660.867 13.149 660.900 Q 14.363 660.932 15.565 661.051 Q 16.767 661.171 17.056 661.235 Q 17.345 661.299 17.630 661.408 Q 17.915 661.518 17.950 661.522 Q 17.985 661.527 18.768 662.168 L 18.808 662.383 L 18.792 662.555 Q 18.825 662.666 18.181 663.416 Q 17.537 664.166 16.688 664.729 Q 15.839 665.291 15.210 665.658 Q 14.582 666.025 13.342 666.626 Q 12.101 667.227 10.431 667.874 Q 8.761 668.521 7.676 668.866 Q 6.592 669.212 5.238 669.562 Q 3.885 669.912 2.144 670.234 Q 0.404 670.556 -3.574 670.888 Q -7.552 671.220 -11.801 671.471 Q -16.050 671.723 -18.661 671.853 Q -21.272 671.983 -23.082 671.997 Q -24.893 672.012 -26.392 672.013 Q -27.890 672.014 -29.195 672.000 Q -30.499 671.986 -36.190 671.812 Q -41.881 671.639 -44.365 671.686 Q -46.849 671.732 -48.362 671.809 Q -49.874 671.885 -50.595 671.939 Q -51.316 671.992 -54.078 672.108 Q -56.840 672.224 -58.537 672.198 Q -60.234 672.173 -61.854 672.053 Q -63.474 671.933 -64.253 671.846 Q -65.033 671.758 -66.434 671.567 Q -67.836 671.375 -71.859 670.705 Q -75.881 670.035 -77.791 669.679 Q -79.701 669.323 -81.976 668.888 Q -84.251 668.453 -86.658 668.008 Q -89.066 667.563 -90.472 667.307 Q -91.877 667.051 -92.366 666.962 Q -92.854 666.872 -94.355 666.519 Q -95.855 666.166 -96.627 665.933 Q -97.398 665.700 -99.274 665.164 L -99.756 664.905 "></path>
    <path id="STROKE_6ce457a8-9501-49e8-92c4-db5972acfdb9" opacity="1.000" fill="#ffffff" stroke="#ffffff" stroke-width="0.500" stroke-opacity="1.000" stroke-linecap="round" stroke-linejoin="round" d="M -1.785 940.049 L -1.258 939.865 Q -1.182 939.854 0.261 939.783 Q 1.705 939.712 3.543 939.850 Q 5.381 939.988 6.692 940.214 Q 8.002 940.440 8.955 940.708 Q 9.907 940.976 12.268 941.558 Q 14.629 942.141 16.229 942.533 Q 17.829 942.926 19.257 943.328 Q 20.685 943.730 24.165 944.705 Q 27.644 945.679 31.553 946.543 Q 35.463 947.408 40.064 948.325 Q 44.666 949.242 46.771 949.681 Q 48.876 950.120 51.816 950.681 Q 54.756 951.241 56.935 951.675 Q 59.115 952.110 60.233 952.333 Q 61.352 952.557 64.841 953.325 Q 68.330 954.094 70.297 954.529 Q 72.263 954.964 75.183 955.548 Q 78.103 956.131 81.955 956.914 Q 85.807 957.698 87.852 958.084 Q 89.898 958.471 91.514 958.782 Q 93.131 959.092 96.205 959.535 Q 99.279 959.978 101.648 960.156 Q 104.017 960.333 106.078 960.402 Q 108.140 960.470 109.507 960.570 Q 110.874 960.669 111.563 960.757 Q 112.252 960.844 113.109 961.060 Q 113.966 961.276 115.205 961.920 L 115.449 962.198 L 115.569 962.412 Q 115.767 962.998 115.784 963.022 Q 115.802 963.045 115.823 963.656 Q 115.844 964.267 115.633 965.224 Q 115.422 966.182 115.209 966.689 Q 114.997 967.196 114.773 967.628 Q 114.550 968.061 113.385 969.949 Q 112.221 971.837 111.205 973.267 Q 110.189 974.698 109.619 975.539 Q 109.049 976.380 108.402 977.315 Q 107.756 978.249 107.221 979.005 Q 106.687 979.761 106.281 980.347 Q 105.876 980.934 105.246 981.815 Q 104.616 982.696 103.952 983.638 Q 103.287 984.581 103.103 984.843 Q 102.918 985.106 102.007 986.585 Q 101.096 988.064 100.689 988.790 Q 100.282 989.516 100.113 989.841 Q 99.943 990.166 99.405 991.138 Q 98.867 992.111 98.527 992.721 Q 98.187 993.332 97.301 995.007 Q 96.416 996.682 95.422 998.574 Q 94.428 1000.467 93.395 1002.491 Q 92.362 1004.516 91.910 1005.456 Q 91.458 1006.396 90.974 1007.420 Q 90.490 1008.443 89.696 1010.470 Q 88.902 1012.497 88.413 1013.777 Q 87.924 1015.057 87.479 1016.177 Q 87.034 1017.296 86.532 1018.570 Q 86.029 1019.843 85.400 1021.287 Q 84.771 1022.731 84.383 1023.622 Q 83.995 1024.514 83.755 1025.090 Q 83.515 1025.667 82.999 1026.744 Q 82.483 1027.821 82.166 1028.432 Q 81.849 1029.043 81.473 1029.740 Q 81.097 1030.436 80.877 1030.879 Q 80.657 1031.321 80.283 1031.962 Q 79.909 1032.604 79.354 1033.518 Q 78.798 1034.433 78.429 1034.927 Q 78.061 1035.421 77.956 1035.551 Q 77.851 1035.681 77.475 1036.064 Q 76.196 1036.710 75.035 1037.036 Q 73.874 1037.362 70.951 1037.571 Q 68.028 1037.780 65.641 1037.933 Q 63.255 1038.085 61.785 1038.269 Q 60.316 1038.452 59.296 1038.576 Q 58.276 1038.699 57.750 1038.769 Q 57.224 1038.838 53.338 1039.216 Q 49.452 1039.593 47.286 1039.713 Q 45.120 1039.833 43.407 1039.819 Q 41.694 1039.805 39.049 1039.689 Q 36.403 1039.572 32.656 1039.469 Q 28.908 1039.366 26.278 1039.327 Q 23.647 1039.287 21.843 1039.273 Q 20.040 1039.259 17.348 1039.155 Q 14.656 1039.051 13.192 1038.961 Q 11.728 1038.870 8.788 1038.669 Q 5.848 1038.468 3.013 1038.356 Q 0.177 1038.244 -3.983 1038.200 Q -8.144 1038.156 -10.178 1038.174 Q -12.212 1038.191 -13.335 1038.203 Q -14.458 1038.215 -17.790 1038.224 Q -21.122 1038.233 -23.132 1037.921 Q -25.142 1037.610 -26.103 1037.004 Q -26.218 1036.377 -26.136 1035.728 Q -26.053 1035.080 -25.524 1033.449 Q -24.995 1031.819 -24.300 1030.018 Q -23.605 1028.217 -23.135 1026.816 Q -22.665 1025.415 -22.138 1023.805 Q -21.611 1022.194 -20.874 1020.143 Q -20.137 1018.091 -19.787 1017.007 Q -19.437 1015.922 -19.262 1015.399 Q -19.086 1014.875 -18.871 1014.210 Q -18.656 1013.544 -18.478 1012.968 Q -18.300 1012.393 -18.008 1011.438 Q -17.717 1010.483 -17.448 1009.593 Q -17.180 1008.703 -17.038 1008.190 Q -16.895 1007.676 -16.374 1005.510 Q -15.854 1003.343 -15.413 1001.485 Q -14.972 999.627 -14.685 998.216 Q -14.398 996.806 -13.751 993.829 Q -13.104 990.852 -12.779 989.476 Q -12.454 988.100 -12.106 986.523 Q -11.759 984.945 -11.342 983.504 Q -10.925 982.063 -10.288 980.387 Q -9.652 978.711 -9.099 977.137 Q -8.545 975.562 -8.079 973.939 Q -7.612 972.315 -7.316 971.125 Q -7.019 969.935 -6.802 968.935 Q -6.585 967.936 -6.536 967.710 Q -6.487 967.483 -6.222 965.972 Q -5.957 964.460 -5.699 962.463 Q -5.441 960.466 -5.260 959.273 Q -5.079 958.081 -4.880 957.058 Q -4.681 956.036 -4.443 954.857 Q -4.206 953.678 -3.866 951.423 Q -3.527 949.168 -3.372 947.944 Q -3.217 946.721 -3.176 946.357 Q -3.135 945.994 -3.036 945.376 Q -2.938 944.758 -2.643 943.833 Q -2.348 942.907 -2.246 942.859 Q -2.145 942.811 -1.473 942.457 "></path>
    <path id="STROKE_4192c0b3-4185-4a88-9361-df47c3c44529" opacity="1.000" fill="#dd70a2" stroke="#dd70a2" stroke-width="0.500" stroke-opacity="1.000" stroke-linecap="round" stroke-linejoin="round" d="M -20.388 1018.086 Q -20.071 1017.516 -19.877 1017.253 Q -19.682 1016.990 -19.067 1016.358 Q -18.451 1015.725 -17.326 1014.880 Q -16.202 1014.034 -15.031 1013.602 Q -13.860 1013.170 -12.958 1013.064 Q -12.056 1012.958 -10.988 1012.946 Q -9.920 1012.933 -8.075 1013.372 Q -6.230 1013.810 -5.078 1014.288 Q -3.926 1014.767 -3.416 1015.034 Q -2.905 1015.301 -1.724 1016.155 Q -0.542 1017.009 0.576 1017.902 Q 1.695 1018.796 2.810 1019.895 Q 3.925 1020.994 4.815 1022.009 Q 5.704 1023.025 6.124 1023.572 Q 6.544 1024.119 7.292 1025.954 Q 8.039 1027.789 8.213 1028.774 Q 8.387 1029.759 8.374 1030.950 Q 8.361 1032.141 8.111 1033.194 Q 7.862 1034.246 7.655 1034.630 Q 7.447 1035.014 7.239 1035.270 Q 7.031 1035.525 6.700 1035.831 Q 6.369 1036.136 5.549 1036.621 Q 4.730 1037.106 3.970 1037.350 Q 3.210 1037.593 0.936 1037.870 Q -1.338 1038.147 -3.286 1038.201 Q -5.234 1038.255 -8.219 1038.260 Q -11.204 1038.265 -15.224 1038.242 Q -19.245 1038.219 -21.089 1038.151 Q -22.932 1038.084 -23.688 1038.003 Q -24.444 1037.923 -24.769 1037.848 Q -25.094 1037.774 -25.384 1037.712 Q -25.675 1037.649 -26.167 1037.354 "></path>
    <path id="STROKE_cdbfc173-b7b5-472b-9ee0-9f53f2db3171" opacity="1.000" fill="#ffe15c" stroke="#ffe15c" stroke-width="0.500" stroke-opacity="1.000" stroke-linecap="round" stroke-linejoin="round" d="M 69.066 986.046 Q 67.911 985.091 67.544 984.804 Q 67.176 984.518 66.162 983.820 Q 65.149 983.123 62.978 982.046 Q 60.807 980.969 59.921 980.684 Q 59.034 980.399 57.279 980.230 Q 55.524 980.061 54.767 980.116 Q 54.010 980.170 52.299 980.505 Q 50.589 980.840 48.517 981.891 Q 46.445 982.942 45.267 983.855 Q 44.090 984.767 43.213 985.759 Q 42.336 986.752 41.835 987.525 Q 41.334 988.299 40.703 989.645 Q 40.072 990.991 39.550 992.599 Q 39.029 994.207 38.834 996.292 Q 38.639 998.378 38.745 999.452 Q 38.851 1000.526 39.022 1001.151 Q 39.192 1001.776 39.643 1002.656 Q 40.094 1003.537 40.627 1004.251 Q 41.160 1004.965 41.752 1005.565 Q 42.344 1006.165 42.856 1006.547 Q 43.369 1006.930 43.646 1007.107 Q 43.924 1007.285 44.504 1007.612 Q 45.084 1007.939 46.852 1008.805 Q 48.621 1009.672 49.300 1009.949 Q 49.980 1010.226 50.088 1010.271 Q 50.196 1010.316 52.039 1010.757 Q 53.881 1011.198 54.889 1011.316 Q 55.898 1011.435 57.571 1011.408 Q 59.243 1011.382 60.539 1011.087 Q 61.836 1010.793 62.582 1010.478 Q 63.328 1010.164 64.167 1009.698 Q 65.005 1009.231 65.846 1008.663 Q 66.688 1008.095 67.876 1007.023 Q 69.065 1005.952 69.717 1005.145 Q 70.369 1004.338 70.894 1003.547 Q 71.419 1002.757 71.951 1001.442 Q 72.484 1000.127 72.680 999.117 Q 72.875 998.107 72.890 997.867 Q 72.905 997.627 72.891 997.232 Q 72.877 996.838 72.776 996.349 Q 72.675 995.860 72.437 995.052 Q 72.198 994.245 71.916 993.647 Q 71.634 993.049 71.219 992.458 Q 70.804 991.867 69.989 990.724 "></path>
    <path id="STROKE_c645042b-c485-4e05-bec6-1aa5b035c7ac" opacity="1.000" fill="#1c7aa2" stroke="#1c7aa2" stroke-width="0.500" stroke-opacity="1.000" stroke-linecap="round" stroke-linejoin="round" d="M 31.818 953.764 Q 31.817 953.627 31.840 953.565 Q 31.863 953.503 31.751 953.399 Q 31.658 953.382 31.288 954.226 Q 30.918 955.071 30.188 956.433 Q 29.458 957.794 28.768 958.840 Q 28.078 959.885 26.991 961.153 Q 25.904 962.420 23.873 964.071 Q 21.842 965.722 20.105 966.816 Q 18.367 967.910 17.360 968.432 Q 16.353 968.955 15.080 969.522 Q 13.807 970.089 13.095 970.338 Q 12.383 970.588 11.940 970.709 Q 11.497 970.830 11.334 970.865 Q 11.171 970.901 10.388 971.057 Q 9.605 971.214 7.326 971.229 Q 5.047 971.244 3.583 971.007 Q 2.118 970.770 0.671 970.348 Q -0.776 969.926 -1.275 969.648 Q -1.773 969.370 -2.183 968.950 Q -2.594 968.530 -2.816 968.283 Q -3.039 968.036 -3.174 967.878 Q -3.310 967.719 -3.536 967.334 Q -3.762 966.948 -3.933 966.445 Q -4.105 965.942 -4.304 963.898 Q -4.503 961.854 -4.334 960.402 Q -4.165 958.950 -4.082 958.486 Q -3.999 958.023 -3.805 956.945 Q -3.611 955.867 -3.288 953.411 Q -2.966 950.956 -2.760 949.319 Q -2.554 947.682 -2.432 946.922 Q -2.309 946.163 -1.980 945.072 Q -1.651 943.981 -1.487 943.643 Q -1.323 943.305 -1.132 943.046 Q -0.942 942.787 -0.664 942.603 Q -0.387 942.419 0.201 942.172 Q 0.788 941.924 2.007 941.760 Q 3.226 941.597 3.646 941.594 Q 4.067 941.591 4.519 941.637 Q 4.971 941.682 6.614 942.062 Q 8.257 942.442 10.544 943.126 Q 12.831 943.810 14.888 944.550 Q 16.944 945.290 17.853 945.622 Q 18.762 945.954 19.840 946.382 Q 20.918 946.810 21.539 947.052 Q 22.160 947.295 22.889 947.561 Q 23.618 947.828 24.679 948.204 Q 25.740 948.581 26.226 948.774 Q 26.712 948.967 27.160 949.169 Q 27.608 949.370 28.117 949.597 Q 28.626 949.824 28.955 949.989 Q 29.283 950.153 30.482 950.682 "></path>
    <path id="STROKE_23f8f2e5-32d0-41f5-84ed-9098f0f87d71" opacity="1.000" fill="#ffffff" stroke="#ffffff" stroke-width="0.500" stroke-opacity="1.000" stroke-linecap="round" stroke-linejoin="round" d="M 64.655 747.582 Q 64.422 746.994 64.393 746.817 Q 64.364 746.641 63.975 745.290 Q 63.586 743.939 63.070 742.435 Q 62.553 740.932 62.251 740.060 Q 61.948 739.187 61.545 738.117 Q 61.141 737.047 60.693 735.910 Q 60.245 734.772 59.721 733.570 Q 59.198 732.368 58.510 731.055 Q 57.822 729.743 57.137 728.484 Q 56.452 727.224 55.963 726.323 Q 55.474 725.421 55.034 724.637 Q 54.594 723.853 53.569 722.578 Q 52.545 721.304 51.685 720.566 Q 50.826 719.829 50.572 719.673 Q 50.319 719.517 49.299 718.961 Q 48.279 718.404 47.034 717.903 Q 45.789 717.403 45.194 717.218 Q 44.599 717.033 43.957 716.868 Q 43.315 716.702 43.085 716.660 Q 42.855 716.618 41.051 716.261 Q 39.247 715.905 38.169 715.786 Q 37.090 715.668 36.572 715.648 Q 36.054 715.629 35.399 715.649 Q 34.745 715.669 32.826 716.047 Q 30.907 716.424 29.884 716.854 Q 28.860 717.284 28.240 717.711 Q 27.621 718.138 26.559 719.209 Q 25.497 720.281 24.858 721.224 Q 24.219 722.167 23.518 723.822 Q 22.818 725.477 22.552 726.422 Q 22.286 727.367 22.159 728.122 Q 22.032 728.877 21.945 730.029 Q 21.858 731.182 21.839 732.411 Q 21.819 733.640 22.087 735.835 Q 22.354 738.029 22.612 739.061 Q 22.871 740.094 23.139 740.848 Q 23.406 741.603 23.900 742.682 Q 24.394 743.761 24.677 744.293 Q 24.961 744.824 25.001 744.909 Q 25.041 744.994 25.856 746.280 Q 26.671 747.566 28.054 749.184 Q 29.437 750.803 30.308 751.753 Q 31.179 752.704 31.659 753.182 Q 32.140 753.660 32.627 754.212 Q 33.114 754.764 33.391 755.116 Q 33.668 755.468 33.847 755.717 Q 34.025 755.967 34.195 756.200 Q 34.364 756.432 34.895 757.403 Q 35.425 758.373 35.881 759.386 Q 36.336 760.398 36.511 760.831 Q 36.685 761.264 37.095 762.672 Q 37.506 764.079 37.546 764.336 Q 37.585 764.592 37.638 765.272 Q 37.691 765.952 37.636 767.077 Q 37.581 768.202 37.461 769.447 Q 37.340 770.692 37.258 771.369 Q 37.176 772.045 36.961 773.759 Q 36.747 775.472 36.605 776.346 Q 36.463 777.219 35.967 779.516 Q 35.472 781.813 35.174 782.898 Q 34.876 783.984 34.495 785.199 Q 34.114 786.414 33.485 788.425 Q 32.856 790.436 32.246 792.401 Q 31.636 794.365 31.040 796.870 Q 30.443 799.374 30.007 801.586 Q 29.570 803.799 29.288 805.291 Q 29.006 806.783 28.912 807.439 Q 28.817 808.096 28.579 810.093 Q 28.341 812.090 28.090 814.482 Q 27.839 816.875 27.696 818.740 Q 27.553 820.605 27.460 821.734 Q 27.368 822.862 27.149 825.457 Q 26.931 828.052 26.830 829.276 Q 26.728 830.500 26.631 832.390 Q 26.533 834.279 26.511 835.407 Q 26.489 836.535 26.482 838.332 Q 26.476 840.130 26.531 842.810 Q 26.587 845.489 26.595 847.997 Q 26.603 850.504 26.546 852.321 Q 26.489 854.138 26.431 854.964 Q 26.373 855.790 26.279 856.594 Q 26.185 857.399 26.010 858.534 Q 25.836 859.669 25.352 862.149 Q 24.869 864.629 23.606 869.247 Q 22.343 873.864 21.271 877.156 Q 20.199 880.448 19.342 883.054 Q 18.485 885.661 18.166 886.720 Q 17.846 887.780 17.556 888.794 Q 17.266 889.807 17.192 890.090 Q 17.118 890.372 17.007 890.715 Q 16.896 891.058 16.292 893.434 Q 15.689 895.810 15.386 897.346 Q 15.083 898.882 14.673 901.132 Q 14.264 903.381 13.904 905.416 Q 13.544 907.451 13.049 910.527 Q 12.553 913.603 12.305 915.138 Q 12.057 916.674 11.426 920.104 Q 10.795 923.534 10.651 924.354 Q 10.507 925.173 10.355 926.168 Q 10.202 927.162 9.896 929.435 Q 9.591 931.707 9.550 932.409 Q 9.509 933.111 9.610 934.493 Q 9.711 935.874 9.789 936.228 Q 9.868 936.582 10.035 937.037 Q 10.202 937.491 10.263 937.664 Q 10.323 937.836 10.537 938.210 Q 10.751 938.584 11.130 938.998 Q 11.510 939.412 12.131 939.859 Q 12.752 940.306 13.039 940.460 Q 13.327 940.614 14.620 941.182 Q 15.913 941.750 17.809 942.335 Q 19.704 942.920 20.604 943.168 Q 21.503 943.417 22.454 943.719 Q 23.404 944.021 23.803 944.123 Q 24.202 944.225 24.454 944.296 Q 24.705 944.366 25.438 944.584 Q 26.171 944.802 26.837 944.973 Q 27.502 945.144 27.948 945.237 Q 28.394 945.329 29.703 945.563 Q 31.012 945.796 32.194 946.074 Q 33.377 946.352 34.568 946.680 Q 35.759 947.008 36.973 947.274 Q 38.187 947.540 39.818 948.001 Q 41.450 948.463 43.040 948.838 Q 44.631 949.213 45.418 949.411 Q 46.206 949.608 47.589 949.884 Q 48.973 950.160 49.657 950.240 Q 50.342 950.320 51.086 950.425 Q 51.830 950.530 52.636 950.568 Q 53.442 950.605 55.909 950.267 Q 58.375 949.928 58.690 949.793 Q 59.005 949.658 59.224 949.491 Q 59.444 949.323 59.660 949.092 Q 59.877 948.860 59.987 948.696 Q 60.097 948.532 60.164 948.479 Q 60.230 948.427 60.746 946.147 Q 61.261 943.868 61.291 941.691 Q 61.321 939.515 61.338 938.177 Q 61.355 936.839 61.377 936.303 Q 61.399 935.768 61.509 934.623 Q 61.619 933.479 61.835 931.977 Q 62.051 930.475 62.143 929.923 Q 62.235 929.371 62.750 926.906 Q 63.266 924.441 63.599 923.138 Q 63.931 921.835 64.282 920.774 Q 64.633 919.713 64.994 918.942 Q 65.355 918.170 65.488 917.960 Q 65.620 917.750 65.670 917.653 Q 65.719 917.556 66.050 917.170 Q 66.381 916.784 67.326 916.088 L 67.675 915.944 Q 69.345 915.661 69.979 915.721 Q 70.612 915.781 71.251 915.962 Q 71.890 916.142 72.317 916.309 Q 72.744 916.476 73.405 916.800 Q 74.065 917.124 74.484 917.357 Q 74.904 917.590 74.977 917.639 Q 75.050 917.688 76.627 918.485 Q 78.204 919.282 79.416 919.693 Q 80.629 920.104 81.342 920.253 Q 82.056 920.403 84.204 920.594 Q 86.351 920.784 89.574 920.779 Q 92.797 920.774 95.136 920.614 Q 97.476 920.453 98.541 920.293 Q 99.605 920.133 100.325 919.969 Q 101.045 919.806 102.137 919.473 Q 103.229 919.140 103.957 918.850 Q 104.685 918.561 105.568 918.127 Q 106.452 917.692 107.358 917.148 Q 108.265 916.603 109.052 915.936 Q 109.839 915.269 110.564 914.496 Q 111.289 913.723 111.688 913.193 Q 112.087 912.664 112.486 912.027 Q 112.884 911.390 113.270 910.623 Q 113.655 909.856 114.209 908.303 Q 114.764 906.749 115.147 904.223 Q 115.531 901.697 115.411 899.207 Q 115.291 896.717 115.067 895.354 Q 114.843 893.992 114.642 893.274 Q 114.441 892.557 113.610 889.821 Q 112.779 887.086 112.180 885.376 Q 111.582 883.666 111.371 883.087 Q 111.160 882.508 110.769 881.374 Q 110.378 880.240 110.129 879.576 Q 109.880 878.912 109.416 877.622 Q 108.952 876.332 108.880 876.120 Q 108.809 875.907 108.368 874.607 Q 107.928 873.307 107.753 872.776 Q 107.578 872.246 107.077 870.423 Q 106.577 868.599 106.280 867.188 Q 105.982 865.777 105.576 863.133 Q 105.171 860.490 104.808 857.318 Q 104.446 854.146 104.354 849.535 Q 104.262 844.925 104.322 842.639 Q 104.382 840.352 104.438 839.373 Q 104.494 838.394 104.571 837.291 Q 104.649 836.188 104.862 834.438 Q 105.075 832.688 105.301 831.411 Q 105.528 830.133 105.739 829.204 Q 105.949 828.275 106.647 826.072 Q 107.344 823.869 107.734 822.960 Q 108.123 822.051 108.874 820.701 Q 109.625 819.352 110.532 818.100 Q 111.439 816.849 112.274 815.837 Q 113.109 814.826 113.159 814.773 Q 113.208 814.719 115.683 812.004 Q 118.157 809.290 119.569 807.792 Q 120.980 806.294 121.759 805.480 Q 122.539 804.666 122.890 804.270 Q 123.241 803.874 123.548 803.520 Q 123.855 803.166 124.139 802.792 Q 124.424 802.418 124.798 801.856 Q 125.172 801.294 125.642 800.317 Q 126.113 799.340 126.309 798.684 Q 126.504 798.027 126.584 797.628 Q 126.663 797.228 126.614 795.135 Q 126.564 793.042 126.339 792.381 Q 126.113 791.721 125.801 791.182 Q 125.489 790.643 125.015 790.088 Q 124.541 789.532 123.694 788.858 Q 122.847 788.184 122.783 788.127 Q 122.718 788.070 121.913 787.615 Q 121.107 787.160 120.444 786.918 Q 119.781 786.676 119.437 786.579 Q 119.093 786.482 118.640 786.364 Q 118.187 786.247 118.102 786.214 Q 118.018 786.181 116.512 785.938 Q 115.006 785.696 113.635 785.516 Q 112.263 785.336 111.684 785.230 Q 111.106 785.123 110.222 784.782 Q 109.338 784.441 109.218 784.337 Q 109.097 784.233 109.026 784.090 Q 108.955 783.946 108.950 783.807 Q 108.945 783.667 109.016 783.465 Q 109.087 783.262 109.750 782.542 Q 110.413 781.822 111.177 781.191 Q 111.940 780.560 112.835 779.723 Q 113.730 778.886 114.495 778.022 Q 115.259 777.157 115.830 776.334 Q 116.400 775.512 116.490 775.329 Q 116.579 775.146 116.744 774.836 Q 116.908 774.525 117.083 774.208 Q 117.257 773.892 117.555 773.148 Q 117.853 772.405 118.032 771.532 Q 118.212 770.660 118.232 770.483 Q 118.252 770.306 118.215 769.120 Q 118.178 767.935 117.925 767.068 Q 117.672 766.200 117.398 765.790 Q 117.124 765.379 116.870 765.129 Q 116.615 764.878 115.589 764.261 Q 114.563 763.645 113.959 763.451 Q 113.355 763.258 112.907 763.163 Q 112.458 763.068 111.771 762.950 Q 111.084 762.833 110.296 762.728 Q 109.508 762.623 109.222 762.591 Q 108.936 762.558 108.089 762.373 Q 107.241 762.188 105.597 761.449 L 105.374 761.211 Q 105.171 761.053 104.813 760.049 Q 104.455 759.046 104.246 758.015 Q 104.038 756.983 103.872 756.174 Q 103.706 755.365 103.270 753.929 Q 102.835 752.493 102.419 751.464 Q 102.004 750.434 101.842 750.106 Q 101.679 749.778 101.349 749.266 Q 101.019 748.754 100.761 748.423 Q 100.503 748.092 100.032 747.562 Q 99.562 747.032 99.256 746.808 Q 98.950 746.584 98.501 746.328 Q 98.052 746.071 97.683 745.904 Q 97.313 745.736 96.516 745.538 Q 95.719 745.339 95.201 745.331 Q 94.684 745.323 94.383 745.362 Q 94.082 745.400 93.372 745.641 Q 92.662 745.881 92.599 745.898 Q 92.536 745.914 91.330 746.557 Q 90.124 747.201 89.366 747.662 Q 88.608 748.124 88.028 748.479 Q 87.448 748.834 87.232 748.967 Q 87.017 749.101 85.987 749.625 Q 84.957 750.148 84.248 750.424 Q 84.199 750.184 84.210 749.967 Q 84.222 749.750 84.429 748.851 Q 84.637 747.953 84.848 747.061 Q 85.059 746.169 85.178 745.497 Q 85.298 744.825 85.340 743.721 Q 85.382 742.617 85.235 741.497 Q 85.088 740.377 84.961 739.724 Q 84.835 739.072 84.569 737.680 Q 84.304 736.287 84.167 735.651 Q 84.029 735.014 83.833 734.176 Q 83.637 733.338 83.430 732.646 Q 83.222 731.955 83.005 731.372 Q 82.787 730.789 82.537 730.225 Q 82.287 729.662 81.489 728.344 Q 80.691 727.026 79.938 726.024 Q 79.184 725.023 78.122 724.016 Q 77.061 723.009 76.386 722.437 Q 75.710 721.865 75.367 721.583 Q 75.025 721.302 74.060 720.683 Q 73.096 720.063 72.534 719.743 Q 71.972 719.424 71.426 719.117 Q 70.881 718.810 70.778 718.759 Q 70.675 718.707 70.039 718.444 Q 69.404 718.182 69.001 718.076 Q 68.598 717.970 67.517 717.759 Q 66.436 717.549 65.108 717.531 Q 63.781 717.514 63.084 717.615 Q 62.387 717.717 62.004 717.821 Q 61.620 717.925 61.180 718.105 Q 60.740 718.285 60.113 718.622 Q 59.486 718.958 59.306 719.063 Q 59.126 719.167 58.537 719.547 Q 57.948 719.927 57.556 720.324 Q 57.165 720.720 56.818 721.284 Q 56.472 721.849 56.407 722.140 Q 56.342 722.432 56.348 722.625 Q 56.354 722.819 56.434 723.237 Q 56.514 723.656 56.760 724.346 Q 57.006 725.037 57.429 725.951 Q 57.853 726.866 58.119 727.394 Q 58.386 727.923 58.729 728.664 Q 59.073 729.405 59.205 729.711 Q 59.337 730.016 60.107 731.746 Q 60.877 733.475 61.343 735.091 Q 61.809 736.707 62.116 738.957 Q 62.423 741.206 62.461 742.223 Q 62.499 743.240 62.493 744.581 Q 62.486 745.922 62.412 746.592 Q 62.338 747.261 62.212 747.815 Q 61.922 748.261 61.675 748.521 Q 61.428 748.780 61.357 748.835 Q 61.285 748.891 60.891 749.124 L 60.550 749.149 L 60.236 749.321 "></path>
    <path id="STROKE_d34e02ac-9098-43d0-a001-5f45fecefcbc" opacity="1.000" fill="#ffffff" stroke="#ffffff" stroke-width="0.500" stroke-opacity="1.000" stroke-linecap="round" stroke-linejoin="round" d="M -101.789 661.286 Q -101.725 661.113 -101.765 660.688 Q -101.806 660.262 -101.806 659.998 Q -101.806 659.733 -101.729 659.248 Q -101.652 658.762 -101.518 658.353 Q -101.385 657.944 -100.696 656.983 Q -100.007 656.023 -99.054 655.358 Q -98.100 654.693 -97.294 654.279 Q -96.488 653.865 -94.171 653.152 Q -91.853 652.438 -88.337 651.896 Q -84.822 651.353 -82.920 651.112 Q -81.019 650.870 -80.127 650.763 Q -79.236 650.656 -77.006 650.457 Q -74.777 650.257 -70.517 649.984 Q -66.258 649.710 -60.646 649.440 Q -55.035 649.169 -52.136 649.096 Q -49.236 649.024 -46.951 649.007 Q -44.666 648.990 -43.450 648.975 Q -42.234 648.961 -37.945 648.974 Q -33.656 648.987 -29.425 649.294 Q -25.194 649.601 -20.429 650.333 Q -15.663 651.065 -13.112 651.498 Q -10.561 651.931 -8.063 652.365 Q -5.564 652.798 -3.272 653.299 Q -0.980 653.799 0.768 654.198 Q 2.515 654.598 4.723 655.176 Q 6.930 655.754 8.825 656.210 Q 10.719 656.667 11.642 656.896 Q 12.565 657.125 13.375 657.383 Q 14.184 657.641 14.665 657.844 Q 15.145 658.047 15.760 658.418 Q 16.374 658.788 16.662 659.066 Q 16.949 659.343 17.158 659.696 Q 17.366 660.048 17.423 660.414 Q 17.481 660.779 17.437 661.041 Q 17.394 661.303 17.370 661.391 Q 17.346 661.479 17.239 661.626 Q 17.133 661.773 16.993 661.866 Q 16.852 661.959 16.370 662.130 Q 15.888 662.300 14.791 662.351 Q 13.695 662.402 12.855 662.356 Q 12.015 662.309 11.613 662.274 Q 11.211 662.238 10.148 662.160 Q 9.084 662.082 8.787 662.066 Q 8.489 662.050 6.073 662.025 Q 3.657 661.999 1.944 662.077 Q 0.232 662.155 -0.592 662.162 Q -1.416 662.169 -2.599 662.129 Q -3.782 662.089 -5.700 661.841 Q -7.617 661.593 -8.904 661.473 Q -10.191 661.353 -11.061 661.350 Q -11.931 661.347 -12.390 661.355 Q -12.849 661.362 -13.910 661.531 Q -14.971 661.700 -15.855 661.846 Q -16.740 661.993 -17.444 662.068 Q -18.148 662.144 -20.491 662.235 Q -22.835 662.326 -25.398 662.172 Q -27.961 662.018 -29.234 661.938 Q -30.507 661.859 -32.036 661.875 Q -33.566 661.892 -37.050 662.201 Q -40.534 662.510 -42.232 662.622 Q -43.929 662.734 -44.589 662.775 Q -45.248 662.815 -45.537 662.826 Q -45.826 662.837 -45.906 662.829 Q -45.987 662.820 -46.388 662.795 Q -46.789 662.769 -47.177 662.781 Q -47.566 662.792 -47.704 662.784 Q -47.842 662.775 -49.928 663.006 Q -52.015 663.236 -53.692 663.385 Q -55.370 663.533 -56.405 663.561 Q -57.441 663.590 -58.703 663.542 Q -59.966 663.494 -61.803 663.258 Q -63.640 663.021 -64.117 662.971 Q -64.594 662.921 -66.467 662.873 Q -68.340 662.824 -70.388 663.049 Q -72.436 663.275 -73.679 663.422 Q -74.922 663.569 -76.198 663.583 Q -77.475 663.597 -78.958 663.418 Q -80.441 663.239 -81.300 663.081 Q -82.159 662.924 -82.569 662.849 Q -82.980 662.774 -83.024 662.759 Q -83.068 662.744 -83.646 662.635 Q -84.224 662.527 -85.551 662.343 Q -86.877 662.158 -88.105 661.952 Q -89.332 661.746 -89.895 661.654 Q -90.458 661.561 -91.037 661.459 Q -91.617 661.358 -93.313 661.211 Q -95.010 661.065 -96.547 661.097 Q -98.084 661.129 -100.817 661.358 L -100.954 661.402 L -101.956 661.556 "></path>
  </g>
  <g id="Pen" opacity="1.000">
    <path id="STROKE_c97da316-1def-475e-ae31-39b7b6d6b640" opacity="1.000" fill="none" stroke="#171612" stroke-width="8.466" stroke-opacity="1.000" stroke-linecap="round" stroke-linejoin="round" d="M -112.213 1036.198 Q -110.817 1036.177 -103.226 1036.179 Q -95.635 1036.181 -86.754 1036.700 Q -77.874 1037.219 -73.012 1037.616 Q -68.150 1038.014 -64.496 1038.465 Q -60.842 1038.916 -54.384 1039.121 Q -47.926 1039.327 -43.535 1039.332 Q -39.143 1039.336 -35.560 1039.359 Q -31.977 1039.382 -21.847 1039.434 "></path>
    <path id="STROKE_caf1bdeb-7f8c-4957-9385-1c7fb5781d18" opacity="1.000" fill="none" stroke="#171612" stroke-width="8.466" stroke-opacity="1.000" stroke-linecap="round" stroke-linejoin="round" d="M -19.121 1039.448 Q -13.872 1039.464 -8.286 1039.410 Q -2.699 1039.357 3.979 1038.901 Q 10.657 1038.444 15.284 1038.247 Q 19.911 1038.049 25.032 1038.191 Q 30.154 1038.332 36.607 1038.967 Q 43.060 1039.602 46.562 1039.813 Q 50.063 1040.024 58.080 1040.271 Q 66.097 1040.518 70.772 1040.474 Q 75.448 1040.429 77.964 1040.291 Q 80.481 1040.153 86.611 1039.724 Q 92.742 1039.295 108.666 1039.211 L 108.824 1038.625 "></path>
    <path id="STROKE_1c0915c9-718a-4d43-ae50-6d80e23d3ff9" opacity="1.000" fill="none" stroke="#171612" stroke-width="8.466" stroke-opacity="1.000" stroke-linecap="round" stroke-linejoin="round" d="M -103.462 665.800 L -103.340 665.785 Q -101.738 666.034 -100.960 666.220 Q -100.181 666.405 -97.486 666.974 Q -94.792 667.543 -89.671 668.413 Q -84.550 669.283 -80.960 669.785 Q -77.371 670.286 -69.475 671.314 Q -61.578 672.342 -55.311 672.990 Q -49.043 673.638 -41.672 673.719 Q -34.301 673.800 -33.823 673.807 Q -33.345 673.814 -28.444 673.847 Q -23.542 673.879 -21.210 673.866 Q -18.877 673.852 -16.119 673.633 Q -13.361 673.414 -11.362 673.093 Q -9.363 672.772 -7.423 672.420 Q -5.483 672.067 -2.612 671.458 Q 0.258 670.849 1.809 670.475 Q 3.360 670.101 5.517 669.443 Q 7.674 668.784 8.798 668.375 Q 9.922 667.966 11.525 667.293 Q 13.128 666.620 15.664 665.250 Q 18.200 663.880 19.017 663.191 Q 19.833 662.502 20.356 661.711 Q 20.878 660.919 21.006 659.884 L 20.891 659.246 Q 20.207 658.085 19.702 657.639 Q 19.197 657.193 17.625 656.524 Q 16.054 655.855 14.738 655.586 Q 13.422 655.317 11.573 655.071 Q 9.724 654.826 6.788 654.484 Q 3.851 654.142 2.941 654.030 Q 2.031 653.917 -1.001 653.565 Q -4.033 653.213 -5.993 652.999 Q -7.953 652.785 -9.929 652.540 Q -11.905 652.294 -14.341 651.963 Q -16.777 651.633 -16.894 651.613 Q -17.011 651.593 -20.282 651.254 Q -23.553 650.916 -26.589 650.684 Q -29.626 650.451 -35.778 649.832 Q -41.930 649.212 -45.848 648.906 Q -49.767 648.600 -51.720 648.510 Q -53.672 648.420 -58.599 648.437 Q -63.526 648.453 -69.248 649.125 Q -74.970 649.797 -78.155 650.163 Q -81.339 650.530 -84.437 650.786 Q -87.536 651.041 -88.975 651.233 Q -90.413 651.425 -91.851 651.719 Q -93.289 652.012 -94.899 652.490 Q -96.509 652.968 -98.058 653.639 Q -99.607 654.310 -100.381 654.769 Q -101.155 655.228 -101.731 655.652 Q -102.307 656.076 -103.227 656.986 Q -104.147 657.895 -104.586 658.574 Q -105.024 659.254 -105.151 659.580 Q -105.279 659.906 -105.391 660.619 Q -105.329 661.276 -105.231 661.477 Q -105.133 661.678 -104.903 661.938 Q -104.674 662.197 -104.346 662.353 Q -104.018 662.508 -101.702 662.859 "></path>
    <path id="STROKE_fde57933-b109-4146-950d-775a16a52f6d" opacity="1.000" fill="none" stroke="#171612" stroke-width="8.466" stroke-opacity="1.000" stroke-linecap="round" stroke-linejoin="round" d="M -102.339 666.720 Q -103.977 666.638 -104.442 666.714 Q -104.906 666.790 -105.427 667.067 Q -105.849 667.518 -106.575 670.740 Q -107.300 673.963 -107.047 678.314 Q -106.793 682.664 -105.945 686.908 Q -105.098 691.151 -104.439 693.832 Q -103.781 696.513 -103.460 697.809 Q -103.138 699.105 -102.627 701.301 Q -102.116 703.497 -101.268 706.704 Q -100.420 709.911 -99.925 711.568 Q -99.430 713.225 -99.095 714.405 Q -98.759 715.585 -98.048 718.061 Q -97.337 720.537 -96.872 721.853 Q -96.407 723.169 -95.726 724.576 Q -95.046 725.983 -94.411 726.917 Q -93.776 727.850 -93.226 728.506 Q -92.677 729.162 -91.329 730.448 Q -89.982 731.734 -89.854 731.850 Q -89.726 731.966 -87.777 733.441 Q -85.828 734.916 -82.860 736.821 Q -79.892 738.726 -78.893 739.198 Q -77.895 739.670 -77.207 739.958 Q -76.519 740.245 -72.787 741.116 Q -69.055 741.986 -66.312 742.349 Q -63.569 742.711 -61.719 742.941 Q -59.869 743.171 -56.448 743.318 Q -53.027 743.465 -47.443 743.262 Q -41.859 743.060 -38.244 743.010 Q -34.629 742.959 -30.621 743.080 Q -26.612 743.201 -23.429 743.761 Q -20.246 744.322 -18.616 744.633 Q -16.986 744.945 -13.909 745.127 Q -10.833 745.309 -8.986 745.152 Q -7.139 744.994 -6.306 744.835 Q -5.473 744.676 -3.769 744.123 Q -2.065 743.570 0.095 742.462 Q 2.254 741.353 3.248 740.675 Q 4.241 739.997 5.305 739.110 Q 6.370 738.223 7.050 737.564 Q 7.731 736.905 8.674 735.837 Q 9.618 734.768 11.134 732.426 Q 12.651 730.083 14.169 727.041 Q 15.687 723.999 16.688 721.611 Q 17.689 719.224 18.406 717.264 Q 19.122 715.305 19.693 713.485 Q 20.264 711.665 21.087 708.748 Q 21.910 705.831 22.626 703.110 Q 23.343 700.389 23.680 698.879 Q 24.018 697.368 24.496 695.033 Q 24.974 692.698 25.388 689.443 Q 25.802 686.187 25.787 681.867 Q 25.772 677.547 25.625 675.967 Q 25.478 674.386 25.069 670.939 Q 24.660 667.491 24.430 666.313 Q 24.200 665.136 21.515 660.581 Q 21.304 660.439 18.368 659.738 "></path>
    <path id="STROKE_7a9d1602-24a4-4e8d-9583-28318c8c0f31" opacity="1.000" fill="none" stroke="#171612" stroke-width="8.466" stroke-opacity="1.000" stroke-linecap="round" stroke-linejoin="round" d="M 39.668 758.904 Q 39.445 758.780 38.485 758.167 Q 37.525 757.554 36.459 756.817 Q 35.393 756.080 33.452 754.546 Q 31.511 753.012 29.874 751.318 Q 28.236 749.623 27.167 748.080 Q 26.099 746.537 25.564 745.570 Q 25.028 744.603 24.173 742.606 Q 23.318 740.609 22.960 739.193 Q 22.602 737.777 22.395 734.280 Q 22.188 730.783 22.426 728.505 Q 22.664 726.226 22.716 725.986 Q 22.769 725.745 23.096 724.732 Q 23.422 723.719 24.275 722.062 Q 25.127 720.406 25.399 720.000 Q 25.671 719.594 26.427 718.767 Q 27.183 717.940 27.836 717.419 Q 28.489 716.898 29.270 716.444 Q 30.051 715.990 30.964 715.623 Q 31.877 715.256 32.996 714.997 Q 34.114 714.737 35.265 714.602 Q 36.415 714.466 38.086 714.533 Q 39.758 714.599 40.778 714.796 Q 41.797 714.993 42.951 715.401 Q 44.104 715.810 46.538 717.054 Q 48.972 718.299 50.238 719.249 Q 51.504 720.198 53.032 721.825 Q 54.560 723.453 55.361 724.572 Q 56.161 725.692 58.154 729.570 Q 60.147 733.448 60.778 734.990 Q 61.410 736.532 61.737 737.512 Q 62.064 738.493 62.295 739.351 Q 62.527 740.208 62.561 740.308 Q 62.596 740.408 63.922 746.320 L 63.973 746.361 L 64.590 746.381 "></path>
    <path id="STROKE_116b0b68-687d-4e56-9037-0e45f37ff9f4" opacity="1.000" fill="none" stroke="#171612" stroke-width="8.466" stroke-opacity="1.000" stroke-linecap="round" stroke-linejoin="round" d="M 57.116 721.514 L 56.997 720.998 Q 56.854 720.058 57.031 719.643 Q 57.208 719.227 57.483 718.947 Q 57.758 718.666 58.459 718.229 Q 59.159 717.792 60.017 717.491 Q 60.875 717.190 61.626 717.035 Q 62.377 716.881 64.355 716.757 Q 66.332 716.632 67.692 716.755 Q 69.052 716.877 70.066 717.083 Q 71.080 717.289 72.345 717.805 Q 73.610 718.321 74.195 718.682 Q 74.781 719.044 77.890 721.699 Q 80.999 724.355 81.690 725.165 Q 82.381 725.976 83.080 727.054 Q 83.778 728.132 84.289 729.170 Q 84.800 730.208 85.336 731.672 Q 85.871 733.136 86.274 736.068 Q 86.677 739.000 86.398 741.986 Q 86.119 744.971 85.622 746.694 Q 85.126 748.417 84.688 749.549 Q 84.251 750.682 83.572 752.099 Q 82.893 753.516 82.828 753.783 "></path>
    <path id="STROKE_438187c5-136e-4b43-bbb7-42014b7e155e" opacity="1.000" fill="none" stroke="#171612" stroke-width="8.466" stroke-opacity="1.000" stroke-linecap="round" stroke-linejoin="round" d="M 86.119 746.721 Q 87.458 746.511 89.799 746.403 Q 92.140 746.296 93.882 746.615 Q 95.624 746.934 96.924 747.675 Q 98.224 748.415 99.458 749.959 Q 100.692 751.503 101.477 754.193 Q 102.262 756.883 102.314 758.326 Q 102.366 759.770 102.311 760.484 Q 102.256 761.198 102.233 761.480 Q 102.209 761.763 102.209 762.015 Q 102.209 762.266 102.231 762.376 Q 102.254 762.487 102.980 762.425 "></path>
    <path id="STROKE_639bb6a0-d8e3-485d-b399-f3c34e6ab6e0" opacity="1.000" fill="none" stroke="#171612" stroke-width="8.466" stroke-opacity="1.000" stroke-linecap="round" stroke-linejoin="round" d="M 103.950 762.945 Q 104.144 762.872 107.261 762.562 Q 110.377 762.253 112.144 762.426 Q 113.911 762.599 115.037 762.979 Q 116.163 763.359 117.301 764.146 Q 118.438 764.933 119.039 765.598 Q 119.640 766.262 120.016 766.892 Q 120.393 767.521 120.595 768.014 Q 120.796 768.507 120.999 769.340 Q 121.202 770.173 121.195 771.465 Q 121.188 772.757 120.899 773.755 Q 120.610 774.753 120.454 775.057 Q 120.299 775.360 120.236 775.513 Q 120.174 775.667 117.424 778.267 Q 114.675 780.867 112.617 781.975 Q 110.558 783.083 108.341 783.785 L 107.087 783.451 "></path>
    <path id="STROKE_34094984-edc7-4c44-a0dc-cdc655f4b02f" opacity="1.000" fill="none" stroke="#171612" stroke-width="8.466" stroke-opacity="1.000" stroke-linecap="round" stroke-linejoin="round" d="M 110.633 784.111 L 110.817 784.063 Q 114.304 784.006 116.313 784.435 Q 118.322 784.864 119.987 785.663 Q 121.653 786.462 122.491 787.044 Q 123.330 787.627 124.182 788.429 Q 125.034 789.231 125.841 790.355 Q 126.647 791.479 127.094 792.452 Q 127.541 793.426 127.668 793.869 Q 127.795 794.312 127.899 794.888 Q 128.003 795.464 128.017 796.516 Q 128.030 797.569 127.947 798.092 Q 127.864 798.615 127.745 799.005 Q 127.627 799.395 127.589 799.595 Q 127.551 799.796 126.116 801.846 Q 124.681 803.896 123.398 805.027 Q 122.116 806.158 121.323 806.777 Q 120.529 807.397 118.943 808.608 Q 117.356 809.819 116.180 810.875 Q 115.003 811.930 114.350 812.638 Q 113.696 813.347 112.844 814.533 Q 111.992 815.718 111.403 816.848 Q 110.814 817.977 110.468 818.850 Q 110.122 819.724 109.619 821.790 Q 109.117 823.856 108.928 825.378 Q 108.738 826.901 108.286 832.867 Q 107.834 838.834 107.538 842.364 Q 107.241 845.894 107.171 849.039 Q 107.101 852.183 107.085 855.480 Q 107.068 858.777 107.065 861.143 Q 107.063 863.510 107.227 867.191 Q 107.392 870.873 107.605 872.630 Q 107.818 874.386 108.056 875.758 Q 108.294 877.130 109.559 882.256 Q 110.825 887.382 111.389 888.935 Q 111.953 890.488 112.789 893.031 Q 113.625 895.574 114.091 897.805 Q 114.557 900.036 114.646 900.893 Q 114.734 901.751 114.682 904.088 Q 114.630 906.424 114.295 907.909 Q 113.960 909.393 113.421 910.597 Q 112.881 911.801 112.504 912.406 Q 112.127 913.010 111.568 913.701 Q 111.009 914.392 110.757 914.659 Q 110.506 914.926 108.538 916.460 Q 106.571 917.993 105.652 918.482 Q 104.734 918.970 103.451 919.474 Q 102.169 919.979 101.395 920.203 Q 100.622 920.427 99.503 920.666 Q 98.384 920.904 94.629 921.356 Q 90.874 921.808 88.681 921.750 Q 86.488 921.692 85.574 921.538 Q 84.660 921.384 83.561 921.046 Q 82.463 920.708 81.548 920.336 Q 80.633 919.964 78.430 918.784 Q 76.227 917.604 75.228 917.033 Q 74.229 916.463 72.317 915.439 Q 71.860 915.155 65.151 913.104 "></path>
    <path id="STROKE_02058d1f-fac6-4fbf-930d-d41fa334ea42" opacity="1.000" fill="none" stroke="#171612" stroke-width="8.466" stroke-opacity="1.000" stroke-linecap="round" stroke-linejoin="round" d="M 66.681 913.364 Q 66.382 914.306 65.189 918.817 Q 63.995 923.328 63.210 929.073 Q 62.425 934.818 61.959 938.131 Q 61.493 941.444 61.029 944.570 Q 60.565 947.696 60.093 954.633 "></path>
    <path id="STROKE_55eccb7a-f759-4b1f-a942-62512bae7df7" opacity="1.000" fill="none" stroke="#171612" stroke-width="8.466" stroke-opacity="1.000" stroke-linecap="round" stroke-linejoin="round" d="M 38.698 759.484 Q 38.871 759.845 38.199 764.091 Q 37.526 768.337 36.479 772.287 Q 35.433 776.238 34.690 778.948 Q 33.947 781.657 33.373 784.198 Q 32.798 786.739 32.226 789.680 Q 31.654 792.621 30.515 799.497 Q 29.377 806.374 28.782 810.510 Q 28.188 814.645 27.990 817.329 Q 27.791 820.013 27.703 822.396 Q 27.615 824.779 27.103 830.598 Q 26.591 836.418 26.343 841.172 Q 26.095 845.925 25.975 848.614 Q 25.855 851.302 25.183 856.038 Q 24.511 860.774 23.752 864.193 Q 22.994 867.612 20.346 876.677 Q 17.699 885.741 16.145 891.093 Q 14.591 896.444 13.910 899.289 Q 13.228 902.134 12.782 903.881 Q 12.337 905.628 11.892 907.393 Q 11.448 909.157 9.902 917.724 Q 8.356 926.290 5.968 940.944 "></path>
    <path id="STROKE_075c6a4f-71aa-4863-8602-328c97691012" opacity="1.000" fill="none" stroke="#171612" stroke-width="8.466" stroke-opacity="1.000" stroke-linecap="round" stroke-linejoin="round" d="M -22.329 1039.275 L -22.140 1039.578 "></path>
    <path id="STROKE_0a83b1a5-98a2-4e16-9a0a-74fbeec59245" opacity="1.000" fill="none" stroke="#171612" stroke-width="8.466" stroke-opacity="1.000" stroke-linecap="round" stroke-linejoin="round" d="M 26.556 708.311 Q 26.441 707.385 26.871 703.862 Q 27.301 700.340 28.031 698.166 Q 28.762 695.991 29.393 694.829 Q 30.025 693.667 30.567 692.907 Q 31.108 692.147 32.322 690.877 Q 33.536 689.606 34.585 688.837 Q 35.634 688.067 36.357 687.654 Q 37.080 687.241 39.078 686.444 Q 41.077 685.648 41.491 685.559 Q 41.905 685.470 42.859 685.369 Q 43.812 685.268 44.957 685.394 Q 46.102 685.519 46.797 685.751 Q 47.491 685.984 47.910 686.209 Q 48.330 686.435 49.626 687.714 Q 50.922 688.992 51.545 690.162 Q 52.169 691.331 52.473 692.275 Q 52.777 693.219 53.081 694.560 Q 53.386 695.901 53.626 697.393 Q 53.866 698.886 54.157 701.557 Q 54.447 704.229 54.379 706.510 Q 54.311 708.792 54.180 709.555 Q 54.050 710.317 53.889 710.948 Q 53.728 711.578 52.778 714.289 Q 52.511 714.936 52.192 715.973 "></path>
    <path id="STROKE_24f6350a-c50e-4ce5-936f-3c2a0164067e" opacity="1.000" fill="none" stroke="#171612" stroke-width="8.466" stroke-opacity="1.000" stroke-linecap="round" stroke-linejoin="round" d="M 26.480 709.071 L 26.137 710.046 L 25.991 710.815 Q 25.856 711.784 25.856 712.706 Q 25.855 713.628 26.888 718.233 "></path>
    <path id="STROKE_4de459ec-3550-4270-ac43-2675bc14b79e" opacity="1.000" fill="none" stroke="#171612" stroke-width="8.466" stroke-opacity="1.000" stroke-linecap="round" stroke-linejoin="round" d="M 24.873 712.432 Q 24.504 713.540 24.434 714.306 Q 24.363 715.072 24.530 715.793 Q 24.726 715.845 25.608 715.711 Q 25.858 715.697 27.219 715.713 "></path>
    <path id="STROKE_6e98f1a6-6e9a-4599-9c64-861ad7f5a48b" opacity="1.000" fill="none" stroke="#171612" stroke-width="8.466" stroke-opacity="1.000" stroke-linecap="round" stroke-linejoin="round" d="M -76.372 543.448 Q -75.236 543.405 -74.504 543.445 Q -73.771 543.485 -73.009 543.649 Q -72.246 543.814 -71.441 544.181 Q -70.636 544.548 -69.645 545.432 Q -68.655 546.315 -68.178 546.957 Q -67.702 547.599 -67.063 548.942 Q -66.425 550.285 -66.112 551.512 Q -65.799 552.739 -65.703 553.560 Q -65.607 554.382 -65.641 556.050 Q -65.676 557.718 -66.787 561.232 Q -67.899 564.746 -68.766 566.493 Q -69.633 568.241 -70.268 569.338 Q -70.903 570.434 -71.939 572.166 Q -72.976 573.897 -73.566 575.014 Q -74.156 576.130 -74.565 577.096 Q -74.974 578.062 -75.200 578.755 Q -75.426 579.449 -75.600 580.125 Q -75.775 580.801 -75.944 581.786 Q -76.114 582.771 -76.206 583.861 Q -76.299 584.951 -76.194 587.397 Q -76.090 589.844 -74.193 596.493 Q -72.295 603.142 -71.655 606.107 Q -71.016 609.072 -70.755 611.844 Q -70.495 614.615 -70.600 616.302 Q -70.705 617.988 -71.000 619.188 Q -71.295 620.387 -72.015 621.853 Q -72.735 623.318 -73.816 624.982 Q -74.896 626.647 -75.469 627.623 Q -76.042 628.599 -76.472 629.659 Q -76.901 630.719 -77.749 633.031 "></path>
    <path id="STROKE_a39b946f-bf5e-4611-8b79-c9d46864f3b1" opacity="1.000" fill="none" stroke="#171612" stroke-width="8.466" stroke-opacity="1.000" stroke-linecap="round" stroke-linejoin="round" d="M -26.885 543.608 Q -24.740 544.208 -23.537 544.741 Q -22.334 545.274 -21.891 545.589 Q -21.447 545.905 -20.800 546.493 Q -20.152 547.081 -19.688 547.642 Q -19.224 548.203 -18.841 548.778 Q -18.459 549.352 -17.877 550.559 Q -17.296 551.766 -17.188 552.060 Q -17.079 552.353 -16.763 553.518 Q -16.447 554.683 -16.226 556.649 Q -16.005 558.615 -16.358 561.246 Q -16.712 563.877 -18.113 567.053 Q -19.513 570.230 -20.990 573.531 Q -22.467 576.832 -22.903 578.308 Q -23.339 579.784 -23.641 582.186 Q -23.943 584.587 -24.004 586.163 Q -24.066 587.738 -24.074 591.341 Q -24.081 594.945 -23.588 597.774 Q -23.095 600.603 -22.643 601.956 Q -22.191 603.309 -21.797 604.353 Q -21.404 605.397 -21.227 605.857 Q -21.051 606.317 -20.730 607.814 Q -20.409 609.311 -20.402 610.382 Q -20.395 611.453 -20.596 612.833 Q -20.798 614.213 -20.980 615.177 Q -21.161 616.141 -21.257 616.861 Q -21.353 617.582 -21.189 619.651 Q -21.161 619.688 -20.048 620.328 "></path>
    <path id="STROKE_1e9a4020-b7bc-4eb4-b098-55ecf8d2659b" opacity="1.000" fill="none" stroke="#171612" stroke-width="8.466" stroke-opacity="1.000" stroke-linecap="round" stroke-linejoin="round" d="M -2.739 938.285 Q -2.099 938.493 0.740 939.361 Q 3.580 940.229 6.683 941.207 Q 9.787 942.185 11.038 942.603 Q 12.289 943.022 13.971 943.620 Q 15.654 944.218 16.712 944.599 Q 17.770 944.980 23.514 946.607 Q 29.258 948.235 37.761 949.959 Q 46.264 951.683 49.024 952.295 Q 51.785 952.907 57.917 954.084 Q 64.050 955.261 67.799 956.026 Q 71.549 956.792 75.121 957.486 Q 78.693 958.180 82.161 958.799 Q 85.630 959.419 89.039 959.937 Q 92.447 960.456 94.481 960.679 Q 96.515 960.902 96.852 960.884 "></path>
    <path id="STROKE_e0f6a45a-1ce3-4823-ab76-0b9780fcdd6b" opacity="1.000" fill="none" stroke="#171612" stroke-width="8.466" stroke-opacity="1.000" stroke-linecap="round" stroke-linejoin="round" d="M -1.738 938.989 Q -1.813 939.104 -2.972 939.990 Q -3.165 940.193 -4.059 944.823 Q -4.953 949.454 -5.313 954.216 Q -5.674 958.978 -6.113 963.161 Q -6.553 967.343 -7.269 970.372 Q -7.986 973.402 -8.705 975.684 Q -9.425 977.965 -11.315 984.476 Q -13.205 990.986 -15.362 998.418 Q -17.518 1005.850 -18.727 1009.764 Q -19.935 1013.678 -20.687 1016.102 Q -21.439 1018.526 -22.333 1021.475 Q -23.227 1024.424 -23.845 1026.107 Q -24.463 1027.791 -24.996 1029.097 Q -25.529 1030.403 -26.057 1031.703 Q -26.584 1033.004 -26.751 1033.374 Q -26.918 1033.744 -27.238 1033.813 "></path>
    <path id="STROKE_12ab3c75-ea85-4c92-9d44-e4eb2eb7dd5d" opacity="1.000" fill="none" stroke="#171612" stroke-width="8.466" stroke-opacity="1.000" stroke-linecap="round" stroke-linejoin="round" d="M 98.720 960.636 Q 103.025 960.663 105.041 960.750 Q 107.056 960.838 108.687 961.047 Q 110.317 961.256 111.576 961.593 Q 112.835 961.930 112.882 961.940 Q 112.928 961.950 115.164 963.538 Q 115.515 964.254 115.553 964.475 Q 115.590 964.696 115.299 966.256 Q 115.009 967.815 114.432 969.034 Q 113.855 970.253 113.077 971.618 Q 112.299 972.983 111.712 973.933 Q 111.124 974.883 109.187 977.863 Q 107.249 980.843 105.662 983.277 Q 104.075 985.711 101.391 990.284 Q 98.706 994.856 97.372 997.271 Q 96.037 999.686 94.569 1002.472 Q 93.100 1005.258 92.202 1007.043 Q 91.303 1008.828 89.492 1012.446 Q 87.681 1016.064 86.629 1018.267 Q 85.578 1020.471 84.957 1021.868 Q 84.336 1023.264 83.695 1024.758 Q 83.055 1026.251 82.377 1027.802 Q 81.698 1029.354 81.132 1030.652 Q 80.565 1031.949 79.800 1033.645 Q 79.035 1035.340 78.461 1036.586 L 78.011 1037.124 "></path>
    <path id="STROKE_333a706a-e720-431f-9a5b-30298b9e9225" opacity="1.000" fill="none" stroke="#171612" stroke-width="8.466" stroke-opacity="1.000" stroke-linecap="round" stroke-linejoin="round" d="M 97.442 960.207 Q 97.195 960.254 96.540 960.413 L 96.462 960.437 L 94.955 960.559 L 89.310 960.354 "></path>
    <path id="STROKE_be2ff9ee-e089-49fd-8de6-063eb1e58c17" opacity="1.000" fill="none" stroke="#171612" stroke-width="8.466" stroke-opacity="1.000" stroke-linecap="round" stroke-linejoin="round" d="M -27.497 1036.714 L -27.543 1036.762 Q -27.618 1036.907 -27.816 1037.267 Q -28.015 1037.628 -28.260 1038.013 Q -28.505 1038.399 -28.563 1038.461 Q -28.620 1038.524 -28.670 1038.041 Q -28.783 1038.026 -28.956 1038.036 Q -28.971 1038.021 -28.970 1037.849 Q -29.174 1037.853 -29.080 1037.358 Q -29.061 1037.369 -29.375 1037.706 Q -29.690 1038.044 -29.710 1038.060 Q -29.731 1038.077 -31.095 1039.286 L -31.371 1039.482 "></path>
    <path id="STROKE_d0fddb1e-73ed-4134-8b40-c3077321b42a" opacity="1.000" fill="none" stroke="#171612" stroke-width="8.466" stroke-opacity="1.000" stroke-linecap="round" stroke-linejoin="round" d="M 97.826 961.318 Q 97.872 961.318 98.620 961.376 Q 99.367 961.433 99.877 961.479 Q 100.387 961.525 101.879 961.642 Q 103.370 961.760 104.083 961.800 Q 104.796 961.839 108.190 961.854 Q 111.583 961.868 112.087 961.836 Q 112.592 961.803 112.889 961.746 Q 113.187 961.688 113.443 961.583 Q 113.700 961.478 113.863 961.343 Q 114.026 961.209 114.097 961.123 Q 114.168 961.038 114.243 960.895 Q 114.319 960.752 114.358 960.587 Q 114.397 960.423 114.367 960.096 Q 114.336 959.768 114.260 959.611 Q 114.183 959.453 113.620 958.994 Q 113.057 958.535 111.761 957.992 Q 110.465 957.449 110.089 957.292 Q 109.712 957.135 108.800 956.731 Q 107.888 956.328 107.350 956.095 Q 106.812 955.863 104.838 955.163 Q 102.864 954.463 101.601 954.035 Q 100.339 953.607 99.894 953.453 Q 99.450 953.299 98.384 952.928 Q 97.318 952.558 96.440 952.239 Q 95.562 951.920 93.769 951.256 Q 91.976 950.593 90.680 950.163 Q 89.384 949.734 87.665 949.165 Q 85.947 948.596 84.308 948.113 Q 82.670 947.629 81.768 947.367 Q 80.866 947.104 79.734 946.767 Q 78.603 946.430 76.968 945.972 Q 75.333 945.513 74.086 945.148 Q 72.839 944.784 72.028 944.564 Q 71.216 944.344 70.519 944.185 Q 69.822 944.026 69.136 943.893 Q 68.451 943.760 67.620 943.600 Q 66.790 943.441 65.906 943.272 Q 65.022 943.104 64.361 942.972 Q 63.699 942.841 63.471 942.804 "></path>
    <path id="STROKE_1a25051e-4d2c-4adc-8f86-1f6aaafd5621" opacity="1.000" fill="none" stroke="#171612" stroke-width="8.466" stroke-opacity="1.000" stroke-linecap="round" stroke-linejoin="round" d="M 113.566 959.961 Q 114.687 960.192 114.972 960.305 Q 115.256 960.418 115.498 960.566 Q 115.740 960.715 115.836 960.793 Q 115.933 960.870 116.099 961.060 Q 116.264 961.249 116.387 961.487 Q 116.510 961.726 116.582 962.099 Q 116.654 962.471 116.659 962.612 Q 116.664 962.752 116.645 962.981 Q 116.627 963.210 116.448 963.956 "></path>
    <path id="STROKE_27023c04-c7b8-422d-b6c7-e7f54d145df5" opacity="1.000" fill="none" stroke="#171612" stroke-width="8.466" stroke-opacity="1.000" stroke-linecap="round" stroke-linejoin="round" d="M -16.397 1013.113 L -16.146 1012.926 Q -15.131 1012.639 -13.363 1012.410 Q -11.594 1012.181 -9.269 1012.391 Q -6.943 1012.602 -5.627 1013.035 Q -4.311 1013.469 -3.289 1013.974 Q -2.266 1014.480 -1.356 1015.071 Q -0.445 1015.662 0.635 1016.540 Q 1.715 1017.417 2.566 1018.390 Q 3.418 1019.362 4.157 1020.542 Q 4.897 1021.721 5.487 1022.934 Q 6.078 1024.147 6.734 1025.981 Q 7.389 1027.815 7.645 1028.774 Q 7.902 1029.733 8.125 1030.774 Q 8.349 1031.814 8.638 1033.337 Q 8.926 1034.860 9.162 1035.687 L 9.699 1035.997 "></path>
    <path id="STROKE_039b5fdb-e5e3-44ce-832a-c21ed836bee1" opacity="1.000" fill="none" stroke="#171612" stroke-width="8.466" stroke-opacity="1.000" stroke-linecap="round" stroke-linejoin="round" d="M 63.415 982.314 Q 62.533 981.522 61.769 980.824 L 61.052 980.299 Q 59.996 979.753 59.424 979.539 Q 58.852 979.324 56.436 979.158 Q 54.020 978.992 50.872 980.170 Q 47.724 981.349 46.065 982.524 Q 44.406 983.699 43.243 984.972 Q 42.079 986.245 40.587 988.884 Q 39.095 991.523 38.328 995.132 Q 37.562 998.740 38.062 1001.609 Q 38.563 1004.477 39.547 1005.936 Q 40.532 1007.396 41.774 1008.413 Q 43.016 1009.430 44.167 1010.084 Q 45.319 1010.737 46.887 1011.378 Q 48.455 1012.018 49.337 1012.257 Q 50.220 1012.497 53.664 1012.723 Q 57.108 1012.949 59.271 1012.537 Q 61.433 1012.124 62.828 1011.547 Q 64.222 1010.971 64.759 1010.663 Q 65.295 1010.355 65.894 1009.949 Q 66.492 1009.543 67.213 1008.945 Q 67.933 1008.346 68.343 1007.951 Q 68.753 1007.557 69.623 1006.520 Q 70.493 1005.484 70.854 1004.959 Q 71.215 1004.434 71.930 1003.022 Q 72.645 1001.610 72.932 1000.677 Q 73.219 999.745 73.351 998.953 Q 73.482 998.162 73.511 996.245 Q 73.539 994.327 73.212 992.865 Q 72.884 991.403 72.468 990.526 Q 72.052 989.650 71.324 988.654 Q 70.596 987.658 69.836 986.977 Q 69.077 986.295 68.453 985.899 Q 67.829 985.502 61.024 983.580 "></path>
    <path id="STROKE_14e5ee76-d933-4cc5-8321-fbf448837559" opacity="1.000" fill="none" stroke="#171612" stroke-width="8.466" stroke-opacity="1.000" stroke-linecap="round" stroke-linejoin="round" d="M -4.545 969.998 L -2.602 970.527 Q 0.448 971.505 2.353 972.015 Q 4.258 972.524 7.181 972.729 Q 10.103 972.933 12.717 972.293 Q 15.332 971.653 17.344 970.752 Q 19.357 969.852 21.538 968.383 Q 23.720 966.913 25.362 965.300 Q 27.004 963.686 27.826 962.566 Q 28.648 961.445 30.165 958.859 Q 30.678 957.735 30.914 957.111 Q 31.149 956.487 31.340 955.910 Q 31.530 955.333 32.197 952.255 L 32.204 951.956 L 32.615 950.591 "></path>
    <path id="STROKE_be77c1c4-f208-4d0c-891e-e46b54ffc9bc" opacity="1.000" fill="none" stroke="#171612" stroke-width="8.461" stroke-opacity="1.000" stroke-linecap="round" stroke-linejoin="round" d="M 109.070 1039.540 L 109.403 1039.755 Q 114.992 1040.086 117.037 1040.186 Q 119.081 1040.286 120.008 1040.322 Q 120.935 1040.357 121.695 1040.370 Q 122.454 1040.383 123.490 1040.399 Q 124.526 1040.416 127.691 1040.420 Q 130.856 1040.424 132.172 1040.433 Q 133.489 1040.442 136.354 1040.295 Q 139.220 1040.148 142.577 1039.970 Q 145.933 1039.793 151.991 1039.767 Q 158.049 1039.741 161.005 1039.715 Q 163.960 1039.689 165.879 1039.657 Q 167.798 1039.625 173.782 1039.483 Q 179.767 1039.342 184.993 1039.257 Q 190.220 1039.172 193.003 1039.148 Q 195.787 1039.125 199.512 1039.078 Q 203.237 1039.031 208.356 1038.954 Q 213.476 1038.878 217.223 1038.928 Q 220.969 1038.978 226.553 1038.911 Q 232.136 1038.843 234.845 1038.820 Q 237.555 1038.797 238.908 1038.639 Q 240.262 1038.480 241.694 1038.331 Q 243.125 1038.182 243.770 1038.143 Q 244.415 1038.104 249.092 1038.036 Q 253.769 1037.969 257.959 1037.823 Q 262.149 1037.678 263.838 1037.611 Q 265.527 1037.545 266.630 1037.531 Q 267.733 1037.518 268.417 1037.472 Q 269.100 1037.427 270.215 1037.203 L 269.267 1036.184 "></path>
    <path id="STROKE_1a4fac85-f8ad-4731-b6f6-f43493026765" opacity="1.000" fill="none" stroke="#171612" stroke-width="8.461" stroke-opacity="1.000" stroke-linecap="round" stroke-linejoin="round" d="M -110.282 1037.009 Q -110.354 1037.070 -110.803 1037.161 Q -111.251 1037.252 -111.306 1037.268 Q -111.361 1037.283 -114.044 1037.507 Q -116.728 1037.732 -118.325 1037.850 Q -119.922 1037.968 -124.514 1038.273 Q -129.107 1038.579 -132.343 1038.625 Q -135.579 1038.671 -138.245 1038.887 Q -140.911 1039.103 -142.727 1039.154 Q -144.543 1039.205 -149.440 1039.185 Q -154.337 1039.165 -157.075 1039.234 Q -159.813 1039.302 -165.016 1039.423 Q -170.219 1039.544 -179.051 1039.533 Q -187.882 1039.522 -193.283 1039.214 Q -198.685 1038.906 -202.663 1038.722 Q -206.641 1038.538 -208.571 1038.486 Q -210.501 1038.434 -217.860 1038.153 Q -225.218 1037.873 -232.865 1037.744 Q -240.512 1037.615 -244.355 1037.664 Q -248.198 1037.713 -249.703 1037.872 Q -251.207 1038.031 -253.540 1038.406 Q -255.873 1038.782 -258.735 1038.910 Q -261.597 1039.038 -263.007 1039.139 Q -264.418 1039.240 -268.698 1040.057 L -268.885 1039.645 "></path>
  </g>
</svg>