<svg xmlns="http://www.w3.org/2000/svg" width="1080" height="1080" viewBox="-270 498 540 540"><desc>Drawing exported from Concepts: Smarter Sketching</desc><path fill="#ffe15c" stroke="#ffe15c" stroke-linecap="round" stroke-linejoin="round" stroke-width=".5" d="M-78.451 469.502q-.251-.043-1.095-.304-.843-.26-2.9-.732t-3.622-.668q-1.564-.196-2.684-.277-1.121-.08-2.535-.113-1.414-.032-7.61.168t-10.038.292q-3.841.092-15.993.22t-18.298.188q-6.145.061-9.372.137t-16.315.611q-13.087.535-19.931.835-6.843.301-10.355.447-3.512.145-9.361.4-5.849.254-22.663 1.127-16.815.874-25.446 1.328t-13.86.704q-5.229.249-7.75.347t-13.046.711q-10.526.614-15.983 1.046t-8.542 1.012q-3.084.579-5.156 1.389-2.071.811-3.534 1.788t-2.972 2.68-2.812 5.688q-1.302 3.984-1.554 9.217-.251 5.233.075 16.084.326 10.852.387 16.533t.06 8.022.006 8.526.034 10.242-.318 15.222q-.344 11.164-.65 16.975-.305 5.81-1.004 20.77-.7 14.959-.982 28.678t-.287 21.74-.009 11.787l-.004 5.746q0 1.979-.019 5.095-.018 3.117.094 14.608t.517 31.218q.404 19.727.446 29.495t.052 14.198q.009 4.431.038 7.545t.07 5.158l.231 11.526q.191 9.481.23 14.97t.046 13.4.02 11.828q.014 3.919-.009 15.772t-.072 17.975q-.05 6.121-.131 10.107l-.18 8.821q-.098 4.837-.676 22.865t-.97 27.803-.587 16.945q-.193 7.17-.347 13.898t-.341 12.034-.371 9.627-.696 12.574q-.512 8.255-.932 15.443t-.28 10.665.555 5.617q.414 2.141 1.157 3.8.742 1.659 1.62 2.78.878 1.122 1.637 1.821t2.976 1.883q2.218 1.183 8.788 1.958t10.987.797 8.375-.013q3.959-.034 14.063-.156 10.103-.122 16.208.001 6.105.124 13.528.553 7.422.429 28.572.918 21.149.488 31.945.666t15.667.349 8.344.353 11.689.602 13.78.605 20.709.611l22.875.646q7.73.219 11.128.317 3.397.099 12.356.449 8.958.349 18.696.807t14.084.657 21.13.905 27.684 1.176 18.286.814 17.122.83q9.737.485 20.004 1.007t16.991.878 12.28.66 14.438.816 20.317 1.244q11.434.732 24.805 1.595 13.372.864 28.024 1.68t21.672 1.173q7.021.356 10.246.511t4.651.22l7.24.332q5.814.267 16.825.714 11.01.448 21.799.929t20.401.977q9.613.496 14.109.733 4.497.238 16.691 1.041 12.195.803 20.414 1.423 8.219.621 12.446.983t6.161.549 9.77.855q7.835.668 12.809.781 4.974.114 7.509-.16 2.535-.273 4.048-.703 1.513-.431 2.602-1.05 1.089-.62 2.121-1.654t1.756-3.31.507-5.384q-.217-3.107-2.22-9.688-2.002-6.58-3.364-10.831-1.361-4.251-2.575-8.279-1.213-4.029-1.928-6.492t-2.608-10.095-3.046-14.119q-1.154-6.487-1.739-10.65t-1.07-7.752q-.484-3.589-1.567-15.323t-1.554-18.234-.765-10.772-.52-7.849-.835-15.163q-.61-11.585-.988-18.095t-.773-14.368-.54-12.511-.293-17.68q-.148-13.026-.176-21.637l-.041-12.703q-.014-4.093-.048-6.577t.416-21.225q.451-18.741.827-28.54t.512-14.369.215-6.845l.243-6.919q.164-4.643.258-7.248.095-2.604.379-9.218.285-6.615.678-16.35t.575-15.139q.181-5.404.269-7.933t.316-17.605.26-22.871q.033-7.797.042-11.389t-.046-11.831q-.056-8.239-.293-14.927-.238-6.688-.437-10.864t-.691-12.317-.85-13.181q-.357-5.04-.548-7.629-.19-2.588-1.734-15.607-1.543-13.019-2.772-21.083t-1.924-13.176-1.072-8.424q-.376-3.313-.944-8.898t-1.245-8.765-1.276-4.739q-.6-1.559-1.32-2.802t-2.671-3.2q-1.951-1.955-7.059-4.673t-9.068-4.072q-3.96-1.355-7.019-1.99t-6.788-1.019q-3.729-.383-15.475-.655-11.746-.271-17.853-.429t-17.872-.891q-11.765-.734-19.731-1.293t-11.62-.778-8.771-.473q-5.117-.253-8.148-.378-3.031-.124-8.403-.376-5.372-.251-26.24-.467-20.868-.215-31.481-.216-10.612 0-15.988.029t-18.177.614-19.383.989-13.693 1.011-10.826.956q-3.713.348-13.502 1.387t-20.558 2.283-16.676 1.913q-5.909.67-15.819 1.772"/><g stroke-linecap="round" stroke-linejoin="round" stroke-width=".5"><path fill="red" stroke="red" d="M21.462 664.611q-.231-.01-1.376-.372-.468-.018-2.824.627-2.356.644-5.384 1.691t-4.992 1.599-4.536 1.21-5.783 1.227-5.66.956-3.513.604q-1.063.218-3.125.585-2.062.368-5.537 1.023-3.475.656-6.739.997t-7.033.409q-3.77.068-7.372-.007t-9.354-.413-8.659-.598-4.414-.392-3.538-.416-4.449-.699-4.648-.991q-2.231-.574-4.471-1.158t-5.144-1.186q-2.903-.601-4.404-.864-1.501-.264-3.318-.652-1.816-.388-2.55-.499t-1.763-.17q-1.029-.058-1.717-.034-.687.025-2.967.713-.351.417-.406.445t-.628 1.911q-.571 1.884-.326 5.773t.61 6.71.565 4.294.297 2.393q.096.919.637 4.33l.72 4.546q.179 1.135.316 1.874.138.739.58 2.382t.933 3.487q.492 1.844.706 2.664.214.819.375 1.475.16.655.443 1.773t.564 2.188q.28 1.07.691 2.675t.817 2.956q.407 1.352.481 1.562l.48 1.362q.406 1.151.76 2.053t.573 1.398 1.009 1.739q.79 1.242 1.039 1.528.25.286.647.635t1.798 1.341q1.402.992 1.896 1.301.495.309 1.107.687.613.377 1.264.811.652.434 1.371.862.72.428 2.827 1.455 2.107 1.026 3.264 1.544 1.158.517 1.954.918t3.04 1.129q2.243.727 3.432 1.002 1.188.274 2.112.442.924.169 1.733.314.809.144 3.406.516l4.717.674q2.12.303 5.223.505t4.704.232 2.433.043q.833.012 4.291.031 3.458.02 5.433.041t6.089.093q4.114.07 5.628.138 1.513.068 3.45.259t4.068.415q2.131.225 4.74.478 2.609.252 3.092.268t3.945-.086q3.462-.101 3.982-.172.519-.071.652-.104l1.37-.337q1.238-.304 2.315-.772t1.536-.746 1.161-.847 1.268-1.187 1.556-2.08 1.67-2.649q.681-1.188 1.967-3.541t2.308-4.378 1.449-2.936q.426-.91.965-2.03.54-1.12 1.085-2.49t1.156-2.993 1.34-4.424q.728-2.801 1.024-4.34.295-1.539.397-2.145t.428-2.62q.327-2.012.455-2.85.127-.838.401-3.115t.37-3.501.22-4.854.079-5.742-.363-5.12q-.316-3.008-.576-7.109"/><path fill="#6dc1b3" stroke="#6dc1b3" d="M-103.778 661.391q.059.007.423-.141l.319-.028q.23.007 4.468-.231l6.714-.379q2.477-.141 4.32-.282t2.718-.206q.874-.066 2.683-.117t9.518-.082 8.699-.061 5.565-.058q4.576-.027 6.931.007 2.355.033 4.74.119t5.824.117q3.438.032 5.813.021 2.376-.01 6.539.012t6.998.109 4.461.121q1.626.035 2.561.041.935.007 3.976.087t4.5.138q1.46.058 3.208.099t3.413.063l4.842.062q3.176.041 4.828.053t2.866.045 2.416.151q1.202.12 1.491.184t.574.173.32.114.818.646l.04.215-.016.172q.033.111-.611.861t-1.493 1.313-1.478.929-1.868.968q-1.241.601-2.911 1.248t-2.755.992q-1.084.346-2.438.696-1.353.35-3.094.672t-5.718.654q-3.978.332-8.227.583-4.249.252-6.86.382t-4.421.144q-1.811.015-3.31.016-1.498.001-2.803-.013t-6.995-.188q-5.691-.173-8.175-.126t-3.997.123-2.233.13q-.721.053-3.483.169t-4.459.09-3.317-.145-2.399-.207q-.78-.088-2.181-.279t-5.425-.862q-4.022-.67-5.932-1.026t-4.185-.791-4.682-.88q-2.408-.445-3.814-.701l-1.894-.345q-.488-.09-1.989-.443-1.5-.353-2.272-.586t-2.647-.769l-.482-.259"/><path fill="#fff" stroke="#fff" d="m-1.785 940.049.527-.184q.076-.011 1.519-.082 1.444-.071 3.282.067t3.149.364 2.263.494 3.313.85 3.961.975 3.028.795 4.908 1.377 7.388 1.838q3.91.865 8.511 1.782 4.602.917 6.707 1.356t5.045 1q2.94.56 5.119.994l3.298.658q1.119.224 4.608.992l5.456 1.204q1.966.435 4.886 1.019t6.772 1.366q3.852.784 5.897 1.17 2.046.387 3.662.698t4.691.753q3.074.443 5.443.621 2.369.177 4.43.246 2.062.068 3.429.168 1.367.099 2.056.187.689.087 1.546.303t2.096.86l.244.278.12.214q.198.586.215.61.018.023.039.634t-.19 1.568-.424 1.465q-.212.507-.436.939-.223.433-1.388 2.321t-2.18 3.318-1.586 2.272-1.217 1.776-1.181 1.69-.94 1.342-1.035 1.468-1.294 1.823l-.849 1.205q-.185.263-1.096 1.742t-1.318 2.205-.576 1.051q-.17.325-.708 1.297-.538.973-.878 1.583-.34.611-1.226 2.286t-1.879 3.567-2.027 3.917-1.485 2.965-.936 1.964-1.278 3.05-1.283 3.307-.934 2.4-.947 2.393-1.132 2.717l-1.017 2.335q-.388.892-.628 1.468-.24.577-.756 1.654t-.833 1.688-.693 1.308-.596 1.139-.594 1.083-.929 1.556-.925 1.409q-.368.494-.473.624t-.481.513q-1.279.646-2.44.972t-4.084.535-5.31.362q-2.386.152-3.856.336-1.469.183-2.489.307-1.02.123-1.546.193-.526.069-4.412.447-3.886.377-6.052.497t-3.879.106-4.358-.13q-2.646-.117-6.393-.22-3.748-.103-6.378-.142-2.631-.04-4.435-.054t-4.495-.118-4.156-.194-4.404-.292-5.775-.313-6.996-.156-6.195-.026q-2.034.017-3.157.029t-4.455.021-5.342-.303-2.971-.917q-.115-.627-.033-1.276.083-.648.612-2.279t1.224-3.431 1.165-3.202.997-3.011q.527-1.611 1.264-3.662t1.087-3.136.525-1.608q.176-.524.391-1.189.215-.666.393-1.242.178-.575.47-1.53.291-.955.56-1.845.268-.89.41-1.403.143-.514.664-2.68.52-2.167.961-4.025t.728-3.269q.287-1.41.934-4.387t.972-4.353.673-2.953q.347-1.578.764-3.019t1.054-3.117q.636-1.676 1.189-3.25.554-1.575 1.02-3.198.467-1.624.763-2.814.297-1.19.514-2.19l.266-1.225q.049-.227.314-1.738.265-1.512.523-3.509t.439-3.19.38-2.215.437-2.201.577-3.434.494-3.479.196-1.587.14-.981q.098-.618.393-1.543.295-.926.397-.974.101-.048.773-.402"/><path fill="#dd70a2" stroke="#dd70a2" d="M-20.388 1018.086q.317-.57.511-.833.195-.263.81-.895.616-.633 1.741-1.478 1.124-.846 2.295-1.278t2.073-.538 1.97-.118q1.068-.013 2.913.426 1.845.438 2.997.916t1.662.746 1.692 1.121 2.3 1.747 2.234 1.993 2.005 2.114 1.309 1.563 1.168 2.382q.747 1.835.921 2.82t.161 2.176-.263 2.244q-.249 1.052-.456 1.436t-.416.64-.539.561q-.331.305-1.151.79-.819.485-1.579.729-.76.243-3.034.52t-4.222.331-4.933.059-7.005-.018q-4.021-.023-5.865-.091-1.843-.067-2.599-.148t-1.081-.155-.615-.136-.783-.358"/><path fill="#ffe15c" stroke="#ffe15c" d="M69.066 986.046q-1.155-.955-1.522-1.242-.368-.286-1.382-.984-1.013-.697-3.184-1.774t-3.057-1.362-2.642-.454-2.512-.114-2.468.389q-1.71.335-3.782 1.386t-3.25 1.964q-1.177.912-2.054 1.904-.877.993-1.378 1.766-.501.774-1.132 2.12t-1.153 2.954q-.521 1.608-.716 3.693t-.089 3.16.277 1.699q.17.625.621 1.505.451.881.984 1.595t1.125 1.314 1.104.982q.513.383.79.56.278.178.858.505t2.348 1.193 2.448 1.144l.788.322q.108.045 1.951.486t2.85.559q1.009.119 2.682.092 1.672-.026 2.968-.321 1.297-.294 2.043-.609.746-.314 1.585-.78.838-.467 1.679-1.035t2.03-1.64 1.841-1.878 1.177-1.598q.525-.79 1.057-2.105.533-1.315.729-2.325t.21-1.25q.015-.24.001-.635-.014-.394-.115-.883t-.339-1.297q-.239-.807-.521-1.405t-.697-1.189-1.23-1.734"/><path fill="#1c7aa2" stroke="#1c7aa2" d="M31.818 953.764q-.001-.137.022-.199t-.089-.166q-.093-.017-.463.827-.37.845-1.1 2.207t-1.42 2.407-1.777 2.313-3.118 2.918-3.768 2.745-2.745 1.616q-1.007.523-2.28 1.09t-1.985.816q-.712.25-1.155.371t-.606.156-.946.192-3.062.172-3.743-.222-2.912-.659-1.946-.7-.908-.698q-.411-.42-.633-.667t-.358-.405q-.136-.159-.362-.544-.226-.386-.397-.889t-.371-2.547q-.199-2.044-.03-3.496t.252-1.916l.277-1.541q.194-1.078.517-3.534.322-2.455.528-4.092t.328-2.397.452-1.85q.329-1.091.493-1.429t.355-.597q.19-.259.468-.443.277-.184.865-.431.587-.248 1.806-.412t1.639-.166q.421-.003.873.043.452.045 2.095.425t3.93 1.064 4.344 1.424q2.056.74 2.965 1.072t1.987.76 1.699.67 1.35.509 1.79.643 1.547.57q.486.193.934.395l.957.428q.509.227.838.392.328.164 1.527.693"/><path fill="#fff" stroke="#fff" d="M64.655 747.582q-.233-.588-.262-.765-.029-.176-.418-1.527t-.905-2.855q-.517-1.503-.819-2.375-.303-.873-.706-1.943-.404-1.07-.852-2.207-.448-1.138-.972-2.34-.523-1.202-1.211-2.515-.688-1.312-1.373-2.571l-1.174-2.161q-.489-.902-.929-1.686t-1.465-2.059-1.884-2.012-1.113-.893-1.273-.712q-1.02-.557-2.265-1.058-1.245-.5-1.84-.685t-1.237-.35q-.642-.166-.872-.208t-2.034-.399-2.882-.475-1.597-.138-1.173.001-2.573.398-2.942.807-1.644.857q-.619.427-1.681 1.498-1.062 1.072-1.701 2.015t-1.34 2.598q-.7 1.655-.966 2.6t-.393 1.7-.214 1.907-.106 2.382.248 3.424.525 3.226q.259 1.033.527 1.787.267.755.761 1.834t.777 1.611.324.616q.04.085.855 1.371t2.198 2.904 2.254 2.569 1.351 1.429q.481.478.968 1.03t.764.904.456.601q.178.25.348.483t.7 1.203.986 1.983q.455 1.012.63 1.445.174.433.584 1.841.411 1.407.451 1.664.039.256.092.936t-.002 1.805-.175 2.37-.203 1.922-.297 2.39-.356 2.587-.638 3.17q-.495 2.297-.793 3.382-.298 1.086-.679 2.301l-1.01 3.226q-.629 2.011-1.239 3.976t-1.206 4.469-1.033 4.716-.719 3.705q-.282 1.492-.376 2.148t-.333 2.654q-.238 1.997-.489 4.389t-.394 4.258-.236 2.994q-.092 1.128-.311 3.723-.218 2.595-.319 3.819t-.199 3.114q-.098 1.889-.12 3.017t-.029 2.925q-.006 1.798.049 4.478.056 2.679.064 5.187.008 2.507-.049 4.324t-.115 2.643-.152 1.63-.269 1.94-.658 3.615-1.746 7.098q-1.263 4.617-2.335 7.909t-1.929 5.898-1.176 3.666q-.32 1.06-.61 2.074t-.364 1.296-.185.625-.715 2.719q-.603 2.376-.906 3.912t-.713 3.786-.769 4.284-.855 5.111l-.744 4.611q-.248 1.536-.879 4.966t-.775 4.25-.296 1.814q-.153.994-.459 3.267-.305 2.272-.346 2.974t.06 2.084q.101 1.381.179 1.735.079.354.246.809.167.454.228.627.06.172.274.546t.593.788q.38.414 1.001.861t.908.601 1.581.722 3.189 1.153 2.795.833q.899.249 1.85.551.95.302 1.349.404t.651.173.984.288q.733.218 1.399.389.665.171 1.111.264.446.092 1.755.326 1.309.233 2.491.511t2.374.606 2.405.594 2.845.727q1.632.462 3.222.837t2.378.573 2.171.473 2.068.356 1.429.185 1.55.143q.806.037 3.273-.301 2.466-.339 2.781-.474t.534-.302.436-.399.327-.396.177-.217.582-2.332.545-4.456l.047-3.514q.017-1.338.039-1.874.022-.535.132-1.68.11-1.144.326-2.646t.308-2.054.607-3.017.849-3.768q.332-1.303.683-2.364t.712-1.832q.361-.772.494-.982.132-.21.182-.307t.38-.483q.331-.386 1.276-1.082l.349-.144q1.67-.283 2.304-.223t1.272.241 1.066.347 1.088.491 1.079.557q.42.233.493.282t1.65.846 2.789 1.208 1.926.56 2.862.341q2.147.19 5.37.185t5.562-.165q2.34-.161 3.405-.321t1.784-.324 1.812-.496 1.82-.623q.728-.289 1.611-.723.884-.435 1.79-.979.907-.545 1.694-1.212t1.512-1.44 1.124-1.303.798-1.166.784-1.404.939-2.32q.555-1.554.938-4.08.384-2.526.264-5.016t-.344-3.853-.425-2.08-1.032-3.453-1.43-4.445-.809-2.289-.602-1.713-.64-1.798-.713-1.954-.536-1.502-.512-1.513-.615-1.831-.676-2.353q-.5-1.824-.797-3.235t-.704-4.055q-.405-2.643-.768-5.815-.362-3.172-.454-7.783-.092-4.61-.032-6.896.06-2.287.116-3.266t.133-2.082q.078-1.103.291-2.853t.439-3.027q.227-1.278.438-2.207.21-.929.908-3.132.697-2.203 1.087-3.112.389-.909 1.14-2.259t1.658-2.601 1.742-2.263q.835-1.011.885-1.064l2.524-2.769q2.474-2.714 3.886-4.212t2.19-2.312q.78-.814 1.131-1.21t.658-.75.591-.728q.285-.374.659-.936t.844-1.539q.471-.977.667-1.633.195-.657.275-1.056.079-.4.03-2.493-.05-2.093-.275-2.754-.226-.66-.538-1.199t-.786-1.094-1.321-1.23-.911-.731-.87-.512-1.469-.697-1.007-.339-.797-.215-.538-.15q-.084-.033-1.59-.276-1.506-.242-2.877-.422-1.372-.18-1.951-.286-.578-.107-1.462-.448t-1.004-.445q-.121-.104-.192-.247t-.076-.283.066-.342q.071-.203.734-.923t1.427-1.351q.763-.631 1.658-1.468t1.66-1.701q.764-.865 1.335-1.688.57-.822.66-1.005.089-.183.254-.493.164-.311.339-.628.174-.316.472-1.06.298-.743.477-1.616.18-.872.2-1.049t-.017-1.363-.29-2.052q-.253-.868-.527-1.278t-.528-.661q-.255-.251-1.281-.868-1.026-.616-1.63-.81-.604-.193-1.052-.288t-1.136-.213-1.475-.222-1.074-.137q-.286-.033-1.133-.218-.848-.185-2.492-.924l-.223-.238q-.203-.158-.561-1.162-.358-1.003-.567-2.034-.208-1.032-.374-1.841t-.602-2.245q-.435-1.436-.851-2.465-.415-1.03-.577-1.358-.163-.328-.493-.84t-.588-.843-.729-.861-.776-.754-.755-.48-.818-.424q-.37-.168-1.167-.366-.797-.199-1.315-.207t-.818.031q-.301.038-1.011.279-.71.24-.773.257-.063.016-1.269.659-1.206.644-1.964 1.105l-1.338.817-.796.488q-.215.134-1.245.658-1.03.523-1.739.799-.049-.24-.038-.457t.219-1.116.419-1.79q.211-.892.33-1.564t.162-1.776q.042-1.104-.105-2.224t-.274-1.773l-.392-2.044q-.265-1.393-.402-2.029-.138-.637-.334-1.475t-.403-1.53q-.208-.691-.425-1.274-.218-.583-.468-1.147-.25-.563-1.048-1.881t-1.551-2.32q-.754-1.001-1.816-2.008-1.061-1.007-1.736-1.579-.676-.572-1.019-.854-.342-.281-1.307-.9-.964-.62-1.526-.94t-1.108-.626q-.545-.307-.648-.358-.103-.052-.739-.315-.635-.262-1.038-.368t-1.484-.317-2.409-.228-2.024.084-1.08.206-.824.284-1.067.517q-.627.336-.807.441t-.769.484-.981.777q-.391.396-.738.96-.346.565-.411.856t-.059.485.086.612q.08.419.326 1.109.246.691.669 1.605.424.915.69 1.443.267.529.61 1.27.344.741.476 1.047t.902 2.035 1.236 3.345.773 3.866.345 3.266.032 2.358-.081 2.011q-.074.669-.2 1.223-.29.446-.537.706t-.318.314q-.072.056-.466.289l-.341.025-.314.172M-101.789 661.286q.064-.173.024-.598-.041-.426-.041-.69 0-.265.077-.75.077-.486.211-.895.133-.409.822-1.37.689-.96 1.642-1.625.954-.665 1.76-1.079t3.123-1.127q2.318-.714 5.834-1.256 3.515-.543 5.417-.784 1.901-.242 2.793-.349.891-.107 3.121-.306 2.229-.2 6.489-.473 4.259-.274 9.871-.544 5.611-.271 8.51-.344t5.185-.089q2.285-.017 3.501-.032t5.505-.001 8.52.32 8.996 1.039 7.317 1.165 5.049.867q2.499.433 4.791.934 2.292.5 4.04.899 1.747.4 3.955.978 2.207.578 4.102 1.034 1.894.457 2.817.686t1.733.487q.809.258 1.29.461.48.203 1.095.574.614.37.902.648.287.277.496.63.208.352.265.718.058.365.014.627-.043.262-.067.35t-.131.235-.246.24q-.141.093-.623.264-.482.17-1.579.221t-1.936.005q-.84-.047-1.242-.082t-1.465-.114q-1.064-.078-1.361-.094-.298-.016-2.714-.041t-4.129.052q-1.712.078-2.536.085t-2.007-.033-3.101-.288q-1.917-.248-3.204-.368t-2.157-.123-1.329.005-1.52.176-1.945.315q-.885.147-1.589.222t-3.047.167q-2.344.091-4.907-.063t-3.836-.234q-1.273-.079-2.802-.063-1.53.017-5.014.326t-5.182.421q-1.697.112-2.357.153-.659.04-.948.051t-.369.003q-.081-.009-.482-.034t-.789-.014-.527.003q-.138-.009-2.224.222-2.087.23-3.764.379-1.678.148-2.713.176-1.036.029-2.298-.019t-3.1-.284-2.314-.287q-.477-.05-2.35-.098-1.873-.049-3.921.176-2.048.226-3.291.373t-2.519.161q-1.277.014-2.76-.165t-2.342-.337l-1.269-.232q-.411-.075-.455-.09t-.622-.124q-.578-.108-1.905-.292-1.326-.185-2.554-.391t-1.79-.298q-.563-.093-1.142-.195-.58-.101-2.276-.248-1.697-.146-3.234-.114t-4.27.261l-.137.044-1.002.154"/></g><g fill="none" stroke="#171612" stroke-linecap="round" stroke-linejoin="round"><path stroke-width="8.466" d="M-112.213 1036.198q1.396-.021 8.987-.019t16.472.521q8.88.519 13.742.916 4.862.398 8.516.849t10.112.656 10.849.211q4.392.004 7.975.027t13.713.075M-19.121 1039.448q5.249.016 10.835-.038 5.587-.053 12.265-.509 6.678-.457 11.305-.654 4.627-.198 9.748-.056 5.122.141 11.575.776t9.955.846 11.518.458 12.692.203q4.676-.045 7.192-.183t8.647-.567 22.055-.513l.158-.586M-103.462 665.8l.122-.015q1.602.249 2.38.435.779.185 3.474.754 2.694.569 7.815 1.439t8.711 1.372q3.589.501 11.485 1.529 7.897 1.028 14.164 1.676 6.268.648 13.639.729t7.849.088 5.379.04 7.234.019 5.091-.233 4.757-.54 3.939-.673q1.94-.353 4.811-.962t4.421-.983q1.551-.374 3.708-1.032 2.157-.659 3.281-1.068t2.727-1.082 4.139-2.043 3.353-2.059q.816-.689 1.339-1.48.522-.792.65-1.827l-.115-.638q-.684-1.161-1.189-1.607t-2.077-1.115q-1.571-.669-2.887-.938t-3.165-.515-4.785-.587-3.847-.454q-.91-.113-3.942-.465t-4.992-.566-3.936-.459q-1.976-.246-4.412-.577t-2.553-.35q-.117-.02-3.388-.359t-6.307-.57q-3.037-.233-9.189-.852-6.152-.62-10.07-.926t-5.872-.396q-1.952-.09-6.879-.073-4.927.016-10.649.688t-8.907 1.038-6.282.623q-3.099.255-4.538.447-1.438.192-2.876.486-1.438.293-3.048.771t-3.159 1.149-2.323 1.13-1.35.883-1.496 1.334-1.359 1.588q-.438.68-.565 1.006-.128.326-.24 1.039.062.657.16.858t.328.461q.229.259.557.415t2.644.506"/><path stroke-width="8.466" d="M-102.339 666.72q-1.638-.082-2.103-.006-.464.076-.985.353-.422.451-1.148 3.673-.725 3.223-.472 7.574.254 4.35 1.102 8.594.847 4.243 1.506 6.924.658 2.681.979 3.977.322 1.296.833 3.492t1.359 5.403 1.343 4.864.83 2.837q.336 1.18 1.047 3.656t1.176 3.792 1.146 2.723 1.315 2.341q.635.933 1.185 1.589.549.656 1.897 1.942t1.475 1.402q.128.116 2.077 1.591t4.917 3.38 3.967 2.377 1.686.76 4.42 1.158 6.475 1.233q2.743.362 4.593.592t5.271.377 9.005-.056 9.199-.252q3.615-.051 7.623.07 4.009.121 7.192.681 3.183.561 4.813.872 1.63.312 4.707.494t4.923.025q1.847-.158 2.68-.317t2.537-.712 3.864-1.661q2.159-1.109 3.153-1.787.993-.678 2.057-1.565t1.745-1.546 1.624-1.727q.944-1.069 2.46-3.411t3.035-5.385 2.519-5.43q1.001-2.387 1.718-4.347.716-1.959 1.287-3.779t1.394-4.737 1.539-5.638 1.054-4.231q.338-1.511.816-3.846t.892-5.59.399-7.576-.162-5.9q-.147-1.581-.556-5.028-.409-3.448-.639-4.626-.23-1.177-2.915-5.732-.211-.142-3.147-.843M39.668 758.904q-.223-.124-1.183-.737t-2.026-1.35-3.007-2.271-3.578-3.228q-1.638-1.695-2.707-3.238t-1.603-2.51q-.536-.967-1.391-2.964t-1.213-3.413-.565-4.913.031-5.775q.238-2.279.29-2.519.053-.241.38-1.254.326-1.013 1.179-2.67.852-1.656 1.124-2.062t1.028-1.233 1.409-1.348 1.434-.975 1.694-.821 2.032-.626q1.118-.26 2.269-.395 1.15-.136 2.821-.069 1.672.066 2.692.263 1.019.197 2.173.605 1.153.409 3.587 1.653 2.434 1.245 3.7 2.195t2.794 2.576q1.528 1.628 2.329 2.747.8 1.12 2.793 4.998t2.624 5.42q.632 1.542.959 2.522.327.981.558 1.839.232.857.266.957.035.1 1.361 6.012l.051.041.617.02M57.116 721.514l-.119-.516q-.143-.94.034-1.355t.452-.696.976-.718q.7-.437 1.558-.738t1.609-.456 2.729-.278q1.977-.125 3.337-.002 1.36.122 2.374.328t2.279.722 1.85.877 3.695 3.017q3.109 2.656 3.8 3.466.691.811 1.39 1.889.698 1.078 1.209 2.116t1.047 2.502.938 4.396.124 5.918q-.279 2.985-.776 4.708-.496 1.723-.934 2.855-.437 1.133-1.116 2.55t-.744 1.684M86.119 746.721q1.339-.21 3.68-.318 2.341-.107 4.083.212t3.042 1.06 2.534 2.284 2.019 4.234.837 4.133q.052 1.444-.003 2.158l-.078.996q-.024.283-.024.535 0 .251.022.361.023.111.749.049M103.95 762.945q.194-.073 3.311-.383 3.116-.309 4.883-.136t2.893.553 2.264 1.167q1.137.787 1.738 1.452t.977 1.294.579 1.122q.201.493.404 1.326t.196 2.125-.296 2.29-.445 1.302q-.155.303-.218.456-.062.154-2.812 2.754t-4.807 3.708q-2.059 1.108-4.276 1.81l-1.254-.334M110.633 784.111l.184-.048q3.487-.057 5.496.372t3.674 1.228q1.666.799 2.504 1.381.839.583 1.691 1.385t1.659 1.926 1.253 2.097q.447.974.574 1.417t.231 1.019.118 1.628q.013 1.053-.07 1.576t-.202.913q-.118.39-.156.59-.038.201-1.473 2.251t-2.718 3.181q-1.282 1.131-2.075 1.75-.794.62-2.38 1.831-1.587 1.211-2.763 2.267-1.177 1.055-1.83 1.763-.654.709-1.506 1.895t-1.441 2.315-.935 2.002-.849 2.94-.691 3.588q-.19 1.523-.642 7.489t-.748 9.497q-.297 3.53-.367 6.675t-.086 6.441-.02 5.663q-.002 2.367.162 6.048.165 3.682.378 5.439.213 1.756.451 3.128t1.503 6.498q1.266 5.126 1.83 6.679t1.4 4.096 1.302 4.774.555 3.088q.088.858.036 3.195t-.387 3.821-.874 2.688q-.54 1.204-.917 1.809-.377.604-.936 1.295t-.811.958-2.219 1.801q-1.967 1.533-2.886 2.022-.918.488-2.201.992-1.282.505-2.056.729-.773.224-1.892.463-1.119.238-4.874.69t-5.948.394-3.107-.212-2.013-.492q-1.098-.338-2.013-.71t-3.118-1.552-3.202-1.751-2.911-1.594q-.457-.284-7.166-2.335"/><path stroke-width="8.466" d="M66.681 913.364q-.299.942-1.492 5.453t-1.979 10.256-1.251 9.058-.93 6.439-.936 10.063M38.698 759.484q.173.361-.499 4.607-.673 4.246-1.72 8.196-1.046 3.951-1.789 6.661t-1.317 5.25q-.575 2.541-1.147 5.482t-1.711 9.817q-1.138 6.877-1.733 11.013-.594 4.135-.792 6.819t-.287 5.067-.6 8.202q-.512 5.82-.76 10.574t-.368 7.442-.792 7.424-1.431 8.155-3.406 12.484q-2.647 9.064-4.201 14.416-1.554 5.351-2.235 8.196-.682 2.845-1.128 4.592t-.89 3.512q-.444 1.764-1.99 10.331t-3.934 23.22M-22.329 1039.275l.189.303M26.556 708.311q-.115-.926.315-4.449t1.16-5.696q.731-2.175 1.362-3.337t1.174-1.922q.541-.76 1.755-2.03 1.214-1.271 2.263-2.04t1.772-1.183 2.721-1.21 2.413-.885 1.368-.19 2.098.025 1.84.357q.694.233 1.113.458.42.226 1.716 1.505t1.919 2.448.928 2.113.608 2.285q.305 1.341.545 2.833t.531 4.164q.29 2.672.222 4.953t-.199 3.045q-.13.762-.291 1.393-.161.63-1.111 3.341-.267.647-.586 1.684M26.48 709.071l-.343.975-.146.769q-.135.969-.135 1.891-.001.922 1.032 5.527"/><path stroke-width="8.466" d="M24.873 712.432q-.369 1.108-.439 1.874t.096 1.487q.196.052 1.078-.082.25-.014 1.611.002M-76.372 543.448q1.136-.043 1.868-.003t1.495.204q.763.165 1.568.532t1.796 1.251q.99.883 1.467 1.525.476.642 1.115 1.985.638 1.343.951 2.57t.409 2.048.062 2.49q-.035 1.668-1.146 5.182-1.112 3.514-1.979 5.261t-1.502 2.845q-.635 1.096-1.671 2.828t-1.627 2.848q-.59 1.116-.999 2.082t-.635 1.659-.4 1.37q-.175.676-.344 1.661-.17.985-.262 2.075-.093 1.09.012 3.536.104 2.447 2.001 9.096 1.898 6.649 2.538 9.614t.9 5.737q.26 2.771.155 4.458-.105 1.686-.4 2.886-.295 1.199-1.015 2.665t-1.801 3.129q-1.08 1.665-1.653 2.641t-1.003 2.036q-.429 1.06-1.277 3.372M-26.885 543.608q2.145.6 3.348 1.133t1.646.848q.444.316 1.091.904.648.588 1.112 1.149t.847 1.136.964 1.781.689 1.501q.109.293.425 1.458t.537 3.131-.132 4.597-1.755 5.807q-1.4 3.177-2.877 6.478t-1.913 4.777-.738 3.878-.363 3.977-.07 5.178q-.007 3.604.486 6.433t.945 4.182.846 2.397q.393 1.044.57 1.504t.497 1.957q.321 1.497.328 2.568t-.194 2.451q-.202 1.38-.384 2.344-.181.964-.277 1.684-.096.721.068 2.79.028.037 1.141.677M-2.739 938.285q.64.208 3.479 1.076t5.943 1.846 4.355 1.396 2.933 1.017q1.683.598 2.741.979t6.802 2.008q5.744 1.628 14.247 3.352t11.263 2.336q2.761.612 8.893 1.789t9.882 1.942 7.322 1.46q3.572.694 7.04 1.313 3.469.62 6.878 1.138 3.408.519 5.442.742t2.371.205M-1.738 938.989q-.075.115-1.234 1.001-.193.203-1.087 4.833-.894 4.631-1.254 9.393-.361 4.762-.8 8.945-.44 4.182-1.156 7.211-.717 3.03-1.436 5.312-.72 2.281-2.61 8.792l-4.047 13.942q-2.156 7.432-3.365 11.346-1.208 3.914-1.96 6.338t-1.646 5.373-1.512 4.632-1.151 2.99-1.061 2.606q-.527 1.301-.694 1.671t-.487.439M98.72 960.636q4.305.027 6.321.114t3.646.297q1.63.209 2.889.546t1.306.347q.046.01 2.282 1.598.351.716.389.937.037.221-.254 1.781-.29 1.559-.867 2.778t-1.355 2.584-1.365 2.315q-.588.95-2.525 3.93-1.938 2.98-3.525 5.414t-4.271 7.007-4.019 6.987-2.803 5.201q-1.469 2.786-2.367 4.571-.899 1.785-2.71 5.403t-2.863 5.821q-1.051 2.204-1.672 3.601t-1.262 2.89-1.318 3.044l-1.245 2.85q-.567 1.297-1.332 2.993t-1.339 2.941l-.45.538"/><path stroke-width="8.466" d="M97.442 960.207q-.247.047-.902.206l-.078.024-1.507.122-5.645-.205M-27.497 1036.714l-.046.048q-.075.145-.273.505-.199.361-.444.746-.245.386-.303.448-.057.063-.107-.42-.113-.015-.286-.005-.015-.015-.014-.187-.204.004-.11-.491.019.011-.295.348-.315.338-.335.354-.021.017-1.385 1.226l-.276.196"/><path stroke-width="8.466" d="M97.826 961.318q.046 0 .794.058.747.057 1.257.103t2.002.163q1.491.118 2.204.158.713.039 4.107.054 3.393.014 3.897-.018.505-.033.802-.09.298-.058.554-.163t.42-.24q.163-.134.234-.22t.146-.228.115-.308q.039-.164.009-.491-.031-.328-.107-.485-.077-.158-.64-.617t-1.859-1.002l-1.672-.7q-.377-.157-1.289-.561-.912-.403-1.45-.636t-2.512-.932-3.237-1.128-1.707-.582l-1.51-.525q-1.066-.37-1.944-.689t-2.671-.983q-1.793-.663-3.089-1.093l-3.015-.998q-1.718-.569-3.357-1.052-1.638-.484-2.54-.746-.902-.263-2.034-.6t-2.766-.795q-1.635-.459-2.882-.824t-2.058-.584q-.812-.22-1.509-.379t-1.383-.292l-1.516-.293-1.714-.328q-.884-.168-1.545-.3-.662-.131-.89-.168"/><path stroke-width="8.466" d="M113.566 959.961q1.121.231 1.406.344t.526.261.338.227q.097.077.263.267.165.189.288.427.123.239.195.612.072.372.077.513.005.14-.014.369-.018.229-.197.975M-16.397 1013.113l.251-.187q1.015-.287 2.783-.516t4.094-.019 3.642.644 2.338.939q1.023.506 1.933 1.097t1.991 1.469q1.08.877 1.931 1.85.852.972 1.591 2.152.74 1.179 1.33 2.392t1.247 3.047q.655 1.834.911 2.793.257.959.48 2 .224 1.04.513 2.563.288 1.523.524 2.35l.537.31M63.415 982.314q-.882-.792-1.646-1.49l-.717-.525q-1.056-.546-1.628-.76-.572-.215-2.988-.381t-5.564 1.012q-3.148 1.179-4.807 2.354t-2.822 2.448q-1.164 1.273-2.656 3.912t-2.259 6.248q-.766 3.608-.266 6.477.501 2.868 1.485 4.327t2.227 2.477q1.242 1.017 2.393 1.671 1.152.653 2.72 1.294 1.568.64 2.45.879.883.24 4.327.466t5.607-.186q2.162-.413 3.557-.99 1.394-.576 1.931-.884.536-.308 1.135-.714.598-.406 1.319-1.004.72-.599 1.13-.994.41-.394 1.28-1.431t1.231-1.561 1.076-1.937 1.002-2.345.419-1.724q.131-.791.16-2.708t-.299-3.38q-.328-1.462-.744-2.339-.416-.876-1.144-1.872t-1.488-1.677-1.383-1.078-7.429-2.319M-4.545 969.998l1.943.529q3.05.978 4.955 1.488 1.905.509 4.828.714t5.536-.436q2.615-.64 4.627-1.541 2.013-.9 4.194-2.369t3.824-3.083 2.464-2.734q.822-1.121 2.339-3.707.513-1.124.749-1.748.235-.624.426-1.201.19-.577.857-3.655l.007-.299.411-1.365"/><path stroke-width="8.461" d="m109.07 1039.54.333.215q5.589.331 7.634.431t2.971.136q.927.035 1.687.048l1.795.029q1.036.017 4.201.021t4.481.013q1.317.009 4.182-.138t6.223-.325q3.356-.177 9.414-.203t9.014-.052 4.874-.058 7.903-.174 11.211-.226q5.227-.085 8.01-.109 2.784-.023 6.509-.07t8.844-.124q5.12-.076 8.867-.026 3.746.05 9.33-.017 5.583-.068 8.292-.091 2.71-.023 4.063-.181 1.354-.159 2.786-.308t2.076-.188 5.322-.107 8.867-.213 5.879-.212 2.792-.08q1.103-.013 1.787-.059.683-.045 1.798-.269l-.948-1.019M-110.282 1037.009q-.072.061-.521.152-.448.091-.503.107-.055.015-2.738.239-2.684.225-4.281.343t-6.189.423q-4.593.306-7.829.352t-5.902.262-4.482.267-6.713.031-7.635.049q-2.738.068-7.941.189t-14.035.11q-8.831-.011-14.232-.319-5.402-.308-9.38-.492t-5.908-.236-9.289-.333q-7.358-.28-15.005-.409t-11.49-.08-5.348.208q-1.504.159-3.837.534-2.333.376-5.195.504t-4.272.229q-1.411.101-5.691.918l-.187-.412"/></g></svg>